<svg width="397" height="391" viewBox="0 0 397 391" fill="none" xmlns="http://www.w3.org/2000/svg">
<path d="M165.7 26.952C172.98 -8.76749 224.02 -8.76749 231.3 26.952C236.289 51.4344 265.37 62.019 284.929 46.4714C313.465 23.7876 352.564 56.596 335.18 88.6377C323.265 110.599 338.739 137.4 363.716 138.062C400.157 139.028 409.02 189.294 375.107 202.665C351.863 211.83 346.489 242.307 365.197 258.869C392.491 283.032 366.971 327.235 332.397 315.679C308.7 307.759 284.993 327.651 288.678 352.364C294.055 388.419 246.092 405.876 227.035 374.8C213.974 353.5 183.026 353.5 169.965 374.8C150.908 405.876 102.945 388.419 108.322 352.364C112.007 327.651 88.2997 307.759 64.6028 315.679C30.0293 327.235 4.5088 283.032 31.8033 258.869C50.511 242.307 45.1371 211.83 21.893 202.665C-12.0198 189.294 -3.15669 139.028 33.2842 138.062C58.2609 137.4 73.7346 110.599 61.8196 88.6377C44.4356 56.596 83.5353 23.7876 112.071 46.4714C131.63 62.019 160.711 51.4344 165.7 26.952Z" fill="white"/>
</svg>
