<svg width="197" height="199" viewBox="0 0 197 199" fill="none" xmlns="http://www.w3.org/2000/svg">
<path d="M51.2173 23.4057C50.4819 0.247592 81.1621 -8.5498 92.8104 11.4791C99.8019 23.5009 115.967 26.2682 126.56 17.2566C144.207 2.24283 170.214 20.7444 161.817 42.3392C156.777 55.3009 164.693 69.665 178.342 72.3277C201.083 76.7639 202.833 108.632 180.715 115.532C167.438 119.673 161.143 134.817 167.572 147.149C178.283 167.695 154.458 188.933 135.273 175.941C123.758 168.144 107.992 172.664 102.359 185.379C92.9736 206.563 61.5147 201.178 59.7101 178.078C58.627 164.213 45.2631 154.706 31.8098 158.23C9.39601 164.1 -6.00778 136.146 10.927 120.333C21.0916 110.842 20.1924 94.466 9.04972 86.1446C-9.51454 72.2807 2.73613 42.8089 25.6579 46.1897C39.4161 48.219 51.6587 37.3057 51.2173 23.4057Z" fill="white"/>
</svg>
