<svg width="319" height="147" viewBox="0 0 319 147" fill="none" xmlns="http://www.w3.org/2000/svg">
<path d="M29.7883 0H286.367C286.367 0 295.367 2.08713 300.339 5.09393C304.854 7.8247 307.182 9.89951 310.5 14.0083C314.688 19.1941 316.678 22.7767 318.121 29.2901C319.413 35.1159 319.167 38.6968 318.121 44.5719C317.101 50.3025 316.04 53.5959 313.041 58.5802C310.317 63.107 308.306 65.5152 304.149 68.7681C299.777 72.1893 296.546 72.9488 291.447 75.1355C287.551 76.8066 284.795 76.5727 281.286 78.956C274.304 83.698 278.924 94.8458 271.124 98.0582C268.785 99.0217 267.204 100.034 264.773 99.3317C261.721 98.4503 259.693 92.9643 259.693 92.9643C259.693 92.9643 256.023 85.7822 252.071 82.7764C249.42 80.7601 247.622 79.9643 244.45 78.956C238.303 77.0019 234.275 77.7589 227.938 78.956C223.313 79.8295 220.897 81.0797 216.506 82.7764C210.913 84.9375 208.404 87.9314 202.534 89.1438C197.19 90.2476 193.986 89.7361 188.562 89.1438C178.737 88.071 164.428 81.5029 164.428 81.5029C161.933 80.5479 160.673 79.589 158.077 78.956C153.74 77.8981 150.68 77.0399 146.646 78.956C143.476 80.4614 142.24 82.3974 140.295 85.3234C139.064 87.174 138.563 88.3461 137.754 90.4173C134.501 98.7537 135.984 104.566 137.754 113.34C138.16 115.35 138.619 116.424 139.025 118.434C140.795 127.208 143.368 133.535 139.025 141.357C137.818 143.529 137.525 145.549 135.214 146.451C132.857 147.37 128.863 145.177 128.863 145.177C128.863 145.177 126.075 142.349 125.052 140.083C124.209 138.215 124.097 137.015 123.782 134.989C123.249 131.549 123.512 129.546 123.782 126.075C124.297 119.46 126.951 116.123 127.593 109.52C128.074 104.57 128.63 101.648 127.593 96.7847C126.571 91.995 125.825 88.9228 122.512 85.3234C120.086 82.6879 118.182 81.6348 114.891 80.2294C113.448 79.6132 112.593 79.3742 111.08 78.956C103.43 76.8399 98.072 75.8681 90.7573 78.956C88.0916 80.0813 86.6829 80.9875 84.4064 82.7764C79.955 86.2744 80.6966 91.965 75.5151 94.2378C73.1978 95.2542 71.6924 95.5852 69.1641 95.5112C61.0926 95.2752 62.3148 84.0433 55.192 80.2294C52.8358 78.9678 51.3883 78.4893 48.8411 77.6825C41.946 75.4986 37.4039 77.6634 30.4234 75.7723C23.8837 74.0006 19.8937 72.9372 14.546 68.7681C10.3834 65.5229 8.37836 63.107 5.65466 58.5802C2.65563 53.5959 0.573899 44.5719 0.573899 44.5719C0.573899 44.5719 -0.717374 35.1159 0.573899 29.2901C2.01759 22.7767 4.00733 19.1941 8.19504 14.0083C11.5131 9.89951 18.3566 5.09393 18.3566 5.09393L29.7883 0Z" fill="#285192"/>
<path d="M85.9175 46.672H95.7095C96.5015 46.672 97.0775 46.768 97.4375 46.96C97.7975 47.128 98.0375 47.404 98.1575 47.788C98.2775 48.172 98.3375 48.688 98.3375 49.336C98.3375 49.96 98.2775 50.464 98.1575 50.848C98.0375 51.232 97.8335 51.496 97.5455 51.64C97.0895 51.88 96.4655 52 95.6735 52H82.7135C81.0335 52 80.0495 51.544 79.7615 50.632C79.6175 50.248 79.5455 49.636 79.5455 48.796V28.78C79.5455 28.228 79.5575 27.82 79.5815 27.556C79.6295 27.268 79.7495 26.944 79.9415 26.584C80.2775 25.936 81.2135 25.612 82.7495 25.612C84.4295 25.612 85.4255 26.056 85.7375 26.944C85.8575 27.352 85.9175 27.976 85.9175 28.816V46.672ZM117.521 40.264C117.521 41.728 117.149 42.82 116.405 43.54C115.685 44.236 114.881 44.584 113.993 44.584H105.461C105.461 45.256 105.857 45.82 106.649 46.276C107.441 46.732 108.233 46.96 109.025 46.96C110.417 46.96 111.509 46.816 112.301 46.528L112.697 46.384C113.273 46.12 113.753 45.988 114.137 45.988C114.905 45.988 115.565 46.528 116.117 47.608C116.429 48.256 116.585 48.808 116.585 49.264C116.585 51.4 114.029 52.468 108.917 52.468C107.141 52.468 105.557 52.168 104.165 51.568C102.797 50.944 101.729 50.128 100.961 49.12C99.449 47.176 98.693 45.004 98.693 42.604C98.693 39.58 99.665 37.168 101.609 35.368C103.577 33.544 106.025 32.632 108.953 32.632C112.289 32.632 114.737 33.808 116.297 36.16C117.113 37.408 117.521 38.776 117.521 40.264ZM109.925 41.308C110.837 41.308 111.293 40.924 111.293 40.156C111.293 39.604 111.077 39.16 110.645 38.824C110.237 38.488 109.637 38.32 108.845 38.32C108.077 38.32 107.309 38.644 106.541 39.292C105.773 39.916 105.389 40.588 105.389 41.308H109.925ZM130.534 39.4L128.194 39.256V44.224C128.194 44.872 128.29 45.34 128.482 45.628C128.698 45.916 129.082 46.06 129.634 46.06C130.21 46.06 130.642 46.084 130.93 46.132C131.242 46.156 131.566 46.264 131.902 46.456C132.454 46.768 132.73 47.572 132.73 48.868C132.73 50.38 132.394 51.304 131.722 51.64C131.362 51.808 131.038 51.916 130.75 51.964C130.486 51.988 130.09 52 129.562 52C127.066 52 125.17 51.436 123.874 50.308C122.578 49.18 121.93 47.272 121.93 44.584V39.256C121.474 39.328 120.982 39.364 120.454 39.364C119.926 39.364 119.482 39.16 119.122 38.752C118.786 38.344 118.618 37.648 118.618 36.664C118.618 35.68 118.678 34.972 118.798 34.54C118.918 34.084 119.086 33.76 119.302 33.568C119.686 33.256 120.166 33.1 120.742 33.1L121.93 33.244V29.536C121.93 28.984 121.942 28.576 121.966 28.312C122.014 28.048 122.134 27.76 122.326 27.448C122.638 26.848 123.562 26.548 125.098 26.548C126.73 26.548 127.702 26.992 128.014 27.88C128.134 28.264 128.194 28.876 128.194 29.716V33.244C129.25 33.148 130.042 33.1 130.57 33.1C131.122 33.1 131.53 33.124 131.794 33.172C132.082 33.196 132.406 33.304 132.766 33.496C133.39 33.808 133.702 34.732 133.702 36.268C133.702 37.78 133.378 38.704 132.73 39.04C132.37 39.208 132.046 39.316 131.758 39.364C131.494 39.388 131.086 39.4 130.534 39.4ZM141.27 26.368C141.678 26.776 141.882 27.472 141.882 28.456V29.032C141.882 29.632 141.858 30.076 141.81 30.364C141.642 32.476 141.018 34.288 139.938 35.8C138.858 37.312 137.49 38.068 135.834 38.068C135.666 38.068 135.51 37.948 135.366 37.708C135.246 37.444 135.186 37.108 135.186 36.7C135.186 36.292 135.234 35.98 135.33 35.764C135.45 35.524 135.57 35.392 135.69 35.368C135.834 35.32 135.942 35.296 136.014 35.296C136.086 35.272 136.218 35.212 136.41 35.116C136.602 34.996 136.77 34.84 136.914 34.648C137.298 34.144 137.514 33.364 137.562 32.308C136.746 32.188 136.134 31.924 135.726 31.516C135.342 31.108 135.15 30.244 135.15 28.924C135.15 27.964 135.27 27.256 135.51 26.8C135.75 26.32 136.11 26.008 136.59 25.864C137.094 25.696 137.862 25.612 138.894 25.612C139.926 25.612 140.718 25.864 141.27 26.368ZM144.377 50.308C143.921 50.02 143.693 49.564 143.693 48.94C143.693 48.316 144.149 47.368 145.061 46.096C145.325 45.688 145.745 45.484 146.321 45.484C146.921 45.484 147.725 45.784 148.733 46.384C149.741 46.96 150.653 47.248 151.469 47.248C152.933 47.248 153.665 46.96 153.665 46.384C153.665 45.928 152.861 45.592 151.253 45.376C149.741 45.16 148.241 44.596 146.753 43.684C146.057 43.252 145.481 42.58 145.025 41.668C144.569 40.732 144.341 39.628 144.341 38.356C144.341 34.564 146.945 32.668 152.153 32.668C153.857 32.668 155.609 33.076 157.409 33.892C158.249 34.276 158.669 34.756 158.669 35.332C158.669 35.908 158.405 36.616 157.877 37.456C157.349 38.296 156.809 38.716 156.257 38.716C155.969 38.716 155.429 38.536 154.637 38.176C153.869 37.816 153.029 37.636 152.117 37.636C150.701 37.636 149.993 37.9 149.993 38.428C149.993 39.148 150.809 39.616 152.441 39.832C154.025 40 155.561 40.456 157.049 41.2C157.745 41.536 158.321 42.124 158.777 42.964C159.257 43.78 159.497 44.812 159.497 46.06C159.497 47.308 159.257 48.376 158.777 49.264C158.321 50.128 157.673 50.776 156.833 51.208C155.297 51.952 153.365 52.324 151.037 52.324C148.733 52.324 146.513 51.652 144.377 50.308ZM181.968 39.4L179.628 39.256V44.224C179.628 44.872 179.724 45.34 179.916 45.628C180.132 45.916 180.516 46.06 181.068 46.06C181.644 46.06 182.076 46.084 182.364 46.132C182.676 46.156 183 46.264 183.336 46.456C183.888 46.768 184.164 47.572 184.164 48.868C184.164 50.38 183.828 51.304 183.156 51.64C182.796 51.808 182.472 51.916 182.184 51.964C181.92 51.988 181.524 52 180.996 52C178.5 52 176.604 51.436 175.308 50.308C174.012 49.18 173.364 47.272 173.364 44.584V39.256C172.908 39.328 172.416 39.364 171.888 39.364C171.36 39.364 170.916 39.16 170.556 38.752C170.22 38.344 170.052 37.648 170.052 36.664C170.052 35.68 170.112 34.972 170.232 34.54C170.352 34.084 170.52 33.76 170.736 33.568C171.12 33.256 171.6 33.1 172.176 33.1L173.364 33.244V29.536C173.364 28.984 173.376 28.576 173.4 28.312C173.448 28.048 173.568 27.76 173.76 27.448C174.072 26.848 174.996 26.548 176.532 26.548C178.164 26.548 179.136 26.992 179.448 27.88C179.568 28.264 179.628 28.876 179.628 29.716V33.244C180.684 33.148 181.476 33.1 182.004 33.1C182.556 33.1 182.964 33.124 183.228 33.172C183.516 33.196 183.84 33.304 184.2 33.496C184.824 33.808 185.136 34.732 185.136 36.268C185.136 37.78 184.812 38.704 184.164 39.04C183.804 39.208 183.48 39.316 183.192 39.364C182.928 39.388 182.52 39.4 181.968 39.4ZM199.436 35.044C199.58 33.7 200.528 33.028 202.28 33.028C203.216 33.028 203.912 33.1 204.368 33.244C204.824 33.388 205.136 33.64 205.304 34C205.496 34.36 205.604 34.684 205.628 34.972C205.676 35.236 205.7 35.644 205.7 36.196V48.796C205.7 49.348 205.676 49.768 205.628 50.056C205.604 50.32 205.508 50.632 205.34 50.992C205.004 51.616 204.176 51.928 202.856 51.928C201.56 51.928 200.684 51.772 200.228 51.46C199.796 51.124 199.544 50.644 199.472 50.02C198.584 51.292 197.096 51.928 195.008 51.928C192.944 51.928 191.024 50.98 189.248 49.084C187.472 47.188 186.584 44.992 186.584 42.496C186.584 39.976 187.472 37.78 189.248 35.908C191.048 34.012 193.016 33.064 195.152 33.064C195.968 33.064 196.712 33.208 197.384 33.496C198.056 33.784 198.524 34.06 198.788 34.324C199.052 34.564 199.268 34.804 199.436 35.044ZM192.884 42.532C192.884 43.324 193.196 44.044 193.82 44.692C194.444 45.316 195.2 45.628 196.088 45.628C196.976 45.628 197.708 45.304 198.284 44.656C198.884 44.008 199.184 43.3 199.184 42.532C199.184 41.74 198.896 41.008 198.32 40.336C197.768 39.664 197.012 39.328 196.052 39.328C195.116 39.328 194.348 39.664 193.748 40.336C193.172 41.008 192.884 41.74 192.884 42.532ZM208.569 27.268C208.569 26.716 208.581 26.308 208.605 26.044C208.653 25.756 208.761 25.432 208.929 25.072C209.265 24.424 210.201 24.1 211.737 24.1C213.201 24.1 214.113 24.424 214.473 25.072C214.665 25.432 214.773 25.756 214.797 26.044C214.845 26.332 214.869 26.752 214.869 27.304V43.972C214.869 44.836 214.941 45.388 215.085 45.628C215.229 45.844 215.541 45.952 216.021 45.952C216.525 45.952 216.861 45.976 217.029 46.024C217.197 46.048 217.401 46.144 217.641 46.312C218.121 46.624 218.361 47.476 218.361 48.868C218.361 50.38 218.121 51.304 217.641 51.64C217.017 52.072 215.529 52.144 213.177 51.856C211.329 51.616 210.129 51.004 209.577 50.02C208.905 48.844 208.569 46.972 208.569 44.404V27.268ZM231.506 42.496L236.294 46.456C236.894 46.96 237.266 47.344 237.41 47.608C237.578 47.872 237.662 48.124 237.662 48.364C237.662 48.94 237.29 49.72 236.546 50.704C235.73 51.712 235.01 52.216 234.386 52.216C233.858 52.216 233.126 51.868 232.19 51.172L231.83 50.92C231.278 50.464 230.426 49.672 229.274 48.544C228.122 47.392 227.246 46.576 226.646 46.096V48.868C226.646 49.42 226.622 49.84 226.574 50.128C226.55 50.392 226.442 50.704 226.25 51.064C225.938 51.688 225.014 52 223.478 52C221.966 52 221.042 51.676 220.706 51.028C220.538 50.668 220.43 50.356 220.382 50.092C220.358 49.804 220.346 49.384 220.346 48.832V27.268C220.346 26.716 220.358 26.308 220.382 26.044C220.43 25.756 220.538 25.432 220.706 25.072C221.042 24.424 221.978 24.1 223.514 24.1C224.666 24.1 225.482 24.304 225.962 24.712C226.37 25.048 226.586 25.576 226.61 26.296C226.634 26.512 226.646 26.848 226.646 27.304V38.716C227.078 38.356 227.726 37.744 228.59 36.88C229.478 36.016 230.138 35.404 230.57 35.044L231.002 34.756C231.842 34.108 232.562 33.784 233.162 33.784C233.762 33.784 234.446 34.276 235.214 35.26C236.006 36.22 236.402 36.976 236.402 37.528C236.402 38.08 235.958 38.728 235.07 39.472L231.506 42.496Z" fill="white"/>
</svg>
