<svg width="95" height="87" viewBox="0 0 95 87" fill="none" xmlns="http://www.w3.org/2000/svg">
<path d="M49.8035 3.44906L67.2276 12.4934L84.043 21.5482C85.6488 22.4129 86.6564 24.0833 86.6722 25.9071L86.8249 43.5L86.6722 61.0929C86.6564 62.9167 85.6488 64.5871 84.043 65.4518L67.2276 74.5066L49.8035 83.5509C48.3593 84.3006 46.6407 84.3006 45.1965 83.5509L27.7724 74.5066L10.957 65.4518C9.35121 64.5871 8.34361 62.9167 8.32778 61.0929L8.17507 43.5L8.32778 25.9071C8.34361 24.0833 9.35122 22.4129 10.957 21.5482L27.7724 12.4934L45.1965 3.44906C46.6407 2.69943 48.3593 2.69943 49.8035 3.44906Z" fill="#EAF6FF" stroke="#EAF6FF" stroke-width="4"/>
<path d="M45 61.8C36.5 60.3 30 52.9 30 44C30 34.1 38.1 26 48 26C57.9 26 66 34.1 66 44C66 52.9 59.5 60.3 51 61.8L50 61H46L45 61.8Z" fill="url(#paint0_linear_20_79)"/>
<path d="M55 49L55.8 44H51V40.5C51 39.1 51.5 38 53.7 38H56V33.4C54.7 33.2 53.3 33 52 33C47.9 33 45 35.5 45 40V44H40.5V49H45V61.7C46 61.9 47 62 48 62C49 62 50 61.9 51 61.7V49H55Z" fill="white"/>
<defs>
<linearGradient id="paint0_linear_20_79" x1="48" y1="60.754" x2="48" y2="26" gradientUnits="userSpaceOnUse">
<stop stop-color="#0062E0"/>
<stop offset="1" stop-color="#19AFFF"/>
</linearGradient>
</defs>
</svg>
