<svg width="95" height="87" viewBox="0 0 95 87" fill="none" xmlns="http://www.w3.org/2000/svg">
<path d="M49.8035 3.44906L67.2276 12.4934L84.043 21.5482C85.6488 22.4129 86.6564 24.0833 86.6722 25.9071L86.8249 43.5L86.6722 61.0929C86.6564 62.9167 85.6488 64.5871 84.043 65.4518L67.2276 74.5066L49.8035 83.5509C48.3593 84.3006 46.6407 84.3006 45.1965 83.5509L27.7724 74.5066L10.957 65.4518C9.35121 64.5871 8.34361 62.9167 8.32778 61.0929L8.17507 43.5L8.32778 25.9071C8.34361 24.0833 9.35122 22.4129 10.957 21.5482L27.7724 12.4934L45.1965 3.44906C46.6407 2.69943 48.3593 2.69943 49.8035 3.44906Z" fill="#EAF6FF" stroke="#EAF6FF" stroke-width="4"/>
<path d="M48.0008 26.5454C43.2605 26.5454 42.6656 26.5661 40.8039 26.6509C38.9458 26.736 37.6774 27.0301 36.5677 27.4618C35.4197 27.9076 34.4459 28.504 33.4757 29.4745C32.5049 30.4447 31.9085 31.4185 31.4613 32.5661C31.0285 33.6763 30.734 34.945 30.6504 36.8025C30.5671 38.6643 30.5453 39.2596 30.5453 44C30.5453 48.7403 30.5664 49.3334 30.6507 51.1952C30.7362 53.0534 31.0304 54.3218 31.4616 55.4316C31.9078 56.5796 32.5041 57.5534 33.4747 58.5236C34.4444 59.4945 35.4182 60.0923 36.5655 60.5381C37.676 60.9698 38.9447 61.264 40.8024 61.349C42.6642 61.4338 43.2587 61.4545 47.9986 61.4545C52.7392 61.4545 53.3322 61.4338 55.194 61.349C57.0521 61.264 58.3219 60.9698 59.4324 60.5381C60.58 60.0923 61.5523 59.4945 62.5221 58.5236C63.493 57.5534 64.0894 56.5796 64.5366 55.432C64.9657 54.3218 65.2602 53.053 65.3475 51.1956C65.4311 49.3338 65.453 48.7403 65.453 44C65.453 39.2596 65.4311 38.6647 65.3475 36.8029C65.2602 34.9447 64.9657 33.6763 64.5366 32.5665C64.0894 31.4185 63.493 30.4447 62.5221 29.4745C61.5513 28.5036 60.5804 27.9072 59.4313 27.4618C58.3186 27.0301 57.0496 26.736 55.1915 26.6509C53.3297 26.5661 52.737 26.5454 47.9953 26.5454H48.0008ZM46.435 29.6909C46.8997 29.6901 47.4182 29.6909 48.0008 29.6909C52.661 29.6909 53.2133 29.7076 55.0536 29.7912C56.7554 29.869 57.679 30.1534 58.2943 30.3923C59.1088 30.7087 59.6895 31.0869 60.3 31.6978C60.9109 32.3087 61.2891 32.8905 61.6062 33.705C61.8451 34.3196 62.1298 35.2432 62.2072 36.945C62.2909 38.785 62.3091 39.3378 62.3091 43.996C62.3091 48.6541 62.2909 49.2069 62.2072 51.0469C62.1294 52.7487 61.8451 53.6723 61.6062 54.2869C61.2898 55.1014 60.9109 55.6814 60.3 56.292C59.6891 56.9029 59.1091 57.281 58.2943 57.5974C57.6797 57.8374 56.7554 58.121 55.0536 58.1989C53.2137 58.2825 52.661 58.3007 48.0008 58.3007C43.3402 58.3007 42.7878 58.2825 40.9479 58.1989C39.2461 58.1203 38.3225 57.836 37.7069 57.597C36.8924 57.2807 36.3106 56.9025 35.6997 56.2916C35.0888 55.6807 34.7106 55.1003 34.3935 54.2854C34.1546 53.6709 33.8699 52.7472 33.7925 51.0454C33.7088 49.2054 33.6921 48.6527 33.6921 43.9916C33.6921 39.3305 33.7088 38.7807 33.7925 36.9407C33.8703 35.2389 34.1546 34.3152 34.3935 33.7C34.7099 32.8854 35.0888 32.3036 35.6997 31.6927C36.3106 31.0818 36.8924 30.7036 37.7069 30.3865C38.3221 30.1465 39.2461 29.8629 40.9479 29.7847C42.558 29.712 43.182 29.6901 46.435 29.6865V29.6909ZM57.3176 32.589C56.1612 32.589 55.2231 33.5261 55.2231 34.6829C55.2231 35.8392 56.1612 36.7774 57.3176 36.7774C58.4739 36.7774 59.4121 35.8392 59.4121 34.6829C59.4121 33.5265 58.4739 32.5883 57.3176 32.5883V32.589ZM48.0008 35.0363C43.0507 35.0363 39.0374 39.0498 39.0374 44C39.0374 48.9501 43.0507 52.9618 48.0008 52.9618C52.9508 52.9618 56.9627 48.9501 56.9627 44C56.9627 39.0498 52.9504 35.0363 48.0004 35.0363H48.0008ZM48.0008 38.1818C51.2138 38.1818 53.8188 40.7865 53.8188 44C53.8188 47.213 51.2138 49.8181 48.0008 49.8181C44.7874 49.8181 42.1828 47.213 42.1828 44C42.1828 40.7865 44.7874 38.1818 48.0008 38.1818V38.1818Z" fill="url(#paint0_radial_20_78)"/>
<path d="M48.0008 26.5454C43.2605 26.5454 42.6656 26.5661 40.8039 26.6509C38.9458 26.736 37.6774 27.0301 36.5677 27.4618C35.4197 27.9076 34.4459 28.504 33.4757 29.4745C32.5049 30.4447 31.9085 31.4185 31.4613 32.5661C31.0285 33.6763 30.734 34.945 30.6504 36.8025C30.5671 38.6643 30.5453 39.2596 30.5453 44C30.5453 48.7403 30.5664 49.3334 30.6507 51.1952C30.7362 53.0534 31.0304 54.3218 31.4616 55.4316C31.9078 56.5796 32.5041 57.5534 33.4747 58.5236C34.4444 59.4945 35.4182 60.0923 36.5655 60.5381C37.676 60.9698 38.9447 61.264 40.8024 61.349C42.6642 61.4338 43.2587 61.4545 47.9986 61.4545C52.7392 61.4545 53.3322 61.4338 55.194 61.349C57.0521 61.264 58.3219 60.9698 59.4324 60.5381C60.58 60.0923 61.5523 59.4945 62.5221 58.5236C63.493 57.5534 64.0894 56.5796 64.5366 55.432C64.9657 54.3218 65.2602 53.053 65.3475 51.1956C65.4311 49.3338 65.453 48.7403 65.453 44C65.453 39.2596 65.4311 38.6647 65.3475 36.8029C65.2602 34.9447 64.9657 33.6763 64.5366 32.5665C64.0894 31.4185 63.493 30.4447 62.5221 29.4745C61.5513 28.5036 60.5804 27.9072 59.4313 27.4618C58.3186 27.0301 57.0496 26.736 55.1915 26.6509C53.3297 26.5661 52.737 26.5454 47.9953 26.5454H48.0008ZM46.435 29.6909C46.8997 29.6901 47.4182 29.6909 48.0008 29.6909C52.661 29.6909 53.2133 29.7076 55.0536 29.7912C56.7554 29.869 57.679 30.1534 58.2943 30.3923C59.1088 30.7087 59.6895 31.0869 60.3 31.6978C60.9109 32.3087 61.2891 32.8905 61.6062 33.705C61.8451 34.3196 62.1298 35.2432 62.2072 36.945C62.2909 38.785 62.3091 39.3378 62.3091 43.996C62.3091 48.6541 62.2909 49.2069 62.2072 51.0469C62.1294 52.7487 61.8451 53.6723 61.6062 54.2869C61.2898 55.1014 60.9109 55.6814 60.3 56.292C59.6891 56.9029 59.1091 57.281 58.2943 57.5974C57.6797 57.8374 56.7554 58.121 55.0536 58.1989C53.2137 58.2825 52.661 58.3007 48.0008 58.3007C43.3402 58.3007 42.7878 58.2825 40.9479 58.1989C39.2461 58.1203 38.3225 57.836 37.7069 57.597C36.8924 57.2807 36.3106 56.9025 35.6997 56.2916C35.0888 55.6807 34.7106 55.1003 34.3935 54.2854C34.1546 53.6709 33.8699 52.7472 33.7925 51.0454C33.7088 49.2054 33.6921 48.6527 33.6921 43.9916C33.6921 39.3305 33.7088 38.7807 33.7925 36.9407C33.8703 35.2389 34.1546 34.3152 34.3935 33.7C34.7099 32.8854 35.0888 32.3036 35.6997 31.6927C36.3106 31.0818 36.8924 30.7036 37.7069 30.3865C38.3221 30.1465 39.2461 29.8629 40.9479 29.7847C42.558 29.712 43.182 29.6901 46.435 29.6865V29.6909ZM57.3176 32.589C56.1612 32.589 55.2231 33.5261 55.2231 34.6829C55.2231 35.8392 56.1612 36.7774 57.3176 36.7774C58.4739 36.7774 59.4121 35.8392 59.4121 34.6829C59.4121 33.5265 58.4739 32.5883 57.3176 32.5883V32.589ZM48.0008 35.0363C43.0507 35.0363 39.0374 39.0498 39.0374 44C39.0374 48.9501 43.0507 52.9618 48.0008 52.9618C52.9508 52.9618 56.9627 48.9501 56.9627 44C56.9627 39.0498 52.9504 35.0363 48.0004 35.0363H48.0008ZM48.0008 38.1818C51.2138 38.1818 53.8188 40.7865 53.8188 44C53.8188 47.213 51.2138 49.8181 48.0008 49.8181C44.7874 49.8181 42.1828 47.213 42.1828 44C42.1828 40.7865 44.7874 38.1818 48.0008 38.1818V38.1818Z" fill="url(#paint1_radial_20_78)"/>
<defs>
<radialGradient id="paint0_radial_20_78" cx="0" cy="0" r="1" gradientUnits="userSpaceOnUse" gradientTransform="translate(39.8177 64.1432) rotate(-90) scale(34.5975 32.1771)">
<stop stop-color="#FFDD55"/>
<stop offset="0.1" stop-color="#FFDD55"/>
<stop offset="0.5" stop-color="#FF543E"/>
<stop offset="1" stop-color="#C837AB"/>
</radialGradient>
<radialGradient id="paint1_radial_20_78" cx="0" cy="0" r="1" gradientUnits="userSpaceOnUse" gradientTransform="translate(24.6981 29.0602) rotate(78.6811) scale(15.4652 63.7458)">
<stop stop-color="#3771C8"/>
<stop offset="0.128" stop-color="#3771C8"/>
<stop offset="1" stop-color="#6600FF" stop-opacity="0"/>
</radialGradient>
</defs>
</svg>
