<svg width="252" height="116" viewBox="0 0 252 116" fill="none" xmlns="http://www.w3.org/2000/svg">
<path d="M23.4518 0H225.452C225.452 0 232.538 1.63891 236.452 4C240.006 6.14433 241.84 7.77357 244.452 11C247.749 15.0721 249.315 17.8853 250.452 23C251.468 27.5747 251.275 30.3866 250.452 35C249.649 39.4999 248.813 42.086 246.452 46C244.307 49.5546 242.724 51.4457 239.452 54C236.01 56.6865 233.466 57.2829 229.452 59C226.384 60.3122 224.214 60.1285 221.452 62C215.956 65.7237 219.593 74.4775 213.452 77C211.61 77.7566 210.365 78.5511 208.452 78C206.049 77.3079 204.452 73 204.452 73C204.452 73 201.563 67.3603 198.452 65C196.365 63.4167 194.949 62.7918 192.452 62C187.612 60.4656 184.441 61.06 179.452 62C175.811 62.6859 173.909 63.6676 170.452 65C166.049 66.697 164.074 69.048 159.452 70C155.244 70.8667 152.722 70.4651 148.452 70C140.716 69.1575 129.452 64 129.452 64C127.487 63.25 126.495 62.4971 124.452 62C121.037 61.1693 118.628 60.4954 115.452 62C112.956 63.1821 111.984 64.7024 110.452 67C109.483 68.4532 109.088 69.3736 108.452 71C105.89 77.5461 107.058 82.1101 108.452 89C108.771 90.5782 109.133 91.4218 109.452 93C110.845 99.8899 112.871 104.858 109.452 111C108.502 112.706 108.272 114.292 106.452 115C104.596 115.722 101.452 114 101.452 114C101.452 114 99.2566 111.779 98.4518 110C97.7882 108.533 97.6993 107.591 97.4518 106C97.0316 103.299 97.2391 101.725 97.4518 99C97.8573 93.8056 99.9467 91.1857 100.452 86C100.83 82.1132 101.269 79.8189 100.452 76C99.6473 72.2389 99.0604 69.8265 96.4518 67C94.5419 64.9305 93.0427 64.1035 90.4518 63C89.3156 62.5161 88.6423 62.3284 87.4518 62C81.4284 60.3384 77.2106 59.5753 71.4518 62C69.3531 62.8837 68.244 63.5953 66.4518 65C62.9473 67.7468 63.5312 72.2153 59.4518 74C57.6275 74.7981 56.4423 75.0581 54.4518 75C48.0972 74.8146 49.0595 65.9948 43.4518 63C41.5968 62.0093 40.4572 61.6335 38.4518 61C33.0234 59.2851 29.4475 60.985 23.9518 59.5C18.8033 58.1088 15.662 57.2738 11.4518 54C8.17467 51.4517 6.59615 49.5546 4.45182 46C2.09073 42.086 0.451822 35 0.451822 35C0.451822 35 -0.564777 27.5747 0.451822 23C1.58841 17.8853 3.15491 15.0721 6.45182 11C9.06404 7.77357 14.4518 4 14.4518 4L23.4518 0Z" fill="white"/>
<path d="M68.208 34.448H74.736C75.264 34.448 75.648 34.512 75.888 34.64C76.128 34.752 76.288 34.936 76.368 35.192C76.448 35.448 76.488 35.792 76.488 36.224C76.488 36.64 76.448 36.976 76.368 37.232C76.288 37.488 76.152 37.664 75.96 37.76C75.656 37.92 75.24 38 74.712 38H66.072C64.952 38 64.296 37.696 64.104 37.088C64.008 36.832 63.96 36.424 63.96 35.864V22.52C63.96 22.152 63.968 21.88 63.984 21.704C64.016 21.512 64.096 21.296 64.224 21.056C64.448 20.624 65.072 20.408 66.096 20.408C67.216 20.408 67.88 20.704 68.088 21.296C68.168 21.568 68.208 21.984 68.208 22.544V34.448ZM77.6859 31.688C77.6859 29.768 78.3579 28.184 79.7019 26.936C81.0459 25.688 82.5819 25.064 84.3099 25.064C86.0379 25.064 87.5659 25.688 88.8939 26.936C90.2219 28.168 90.8859 29.744 90.8859 31.664C90.8859 32.992 90.5419 34.176 89.8539 35.216C89.1659 36.24 88.3259 37 87.3339 37.496C86.3579 37.976 85.3419 38.216 84.2859 38.216C83.2299 38.216 82.2059 37.96 81.2139 37.448C80.2219 36.92 79.3819 36.152 78.6939 35.144C78.0219 34.12 77.6859 32.968 77.6859 31.688ZM82.7019 33.416C83.2139 33.8 83.7339 33.992 84.2619 33.992C84.7899 33.992 85.3179 33.792 85.8459 33.392C86.3739 32.992 86.6379 32.4 86.6379 31.616C86.6379 30.832 86.3899 30.248 85.8939 29.864C85.3979 29.48 84.8619 29.288 84.2859 29.288C83.7099 29.288 83.1739 29.488 82.6779 29.888C82.1819 30.288 81.9339 30.88 81.9339 31.664C81.9339 32.432 82.1899 33.016 82.7019 33.416ZM96.3966 31.688C96.3966 32.36 96.6206 32.888 97.0686 33.272C97.5166 33.64 97.9886 33.824 98.4846 33.824C98.9966 33.824 99.4686 33.68 99.9006 33.392C100.349 33.088 100.709 32.936 100.981 32.936C101.461 32.936 102.045 33.36 102.733 34.208C103.101 34.672 103.285 35.088 103.285 35.456C103.285 36.064 102.845 36.632 101.965 37.16C101.053 37.8 99.9326 38.12 98.6046 38.12C97.1166 38.12 95.6846 37.584 94.3086 36.512C93.6526 36 93.1166 35.32 92.7006 34.472C92.2846 33.608 92.0766 32.664 92.0766 31.64C92.0766 30.6 92.2846 29.664 92.7006 28.832C93.1166 27.984 93.6526 27.304 94.3086 26.792C95.6366 25.736 97.0526 25.208 98.5566 25.208C99.1646 25.208 99.7566 25.296 100.333 25.472C100.909 25.632 101.333 25.792 101.605 25.952L101.989 26.192C102.277 26.384 102.501 26.536 102.661 26.648C103.077 26.968 103.285 27.336 103.285 27.752C103.285 28.152 103.117 28.608 102.781 29.12C102.205 30 101.653 30.44 101.125 30.44C100.821 30.44 100.389 30.264 99.8286 29.912C99.5406 29.64 99.1246 29.504 98.5806 29.504C98.0526 29.504 97.5566 29.696 97.0926 30.08C96.6286 30.464 96.3966 31 96.3966 31.688ZM113.043 26.696C113.139 25.8 113.771 25.352 114.939 25.352C115.563 25.352 116.027 25.4 116.331 25.496C116.635 25.592 116.843 25.76 116.955 26C117.083 26.24 117.155 26.456 117.171 26.648C117.203 26.824 117.219 27.096 117.219 27.464V35.864C117.219 36.232 117.203 36.512 117.171 36.704C117.155 36.88 117.091 37.088 116.979 37.328C116.755 37.744 116.203 37.952 115.323 37.952C114.459 37.952 113.875 37.848 113.571 37.64C113.283 37.416 113.115 37.096 113.067 36.68C112.475 37.528 111.483 37.952 110.091 37.952C108.715 37.952 107.435 37.32 106.251 36.056C105.067 34.792 104.475 33.328 104.475 31.664C104.475 29.984 105.067 28.52 106.251 27.272C107.451 26.008 108.763 25.376 110.187 25.376C110.731 25.376 111.227 25.472 111.675 25.664C112.123 25.856 112.435 26.04 112.611 26.216C112.787 26.376 112.931 26.536 113.043 26.696ZM108.675 31.688C108.675 32.216 108.883 32.696 109.299 33.128C109.715 33.544 110.219 33.752 110.811 33.752C111.403 33.752 111.891 33.536 112.275 33.104C112.675 32.672 112.875 32.2 112.875 31.688C112.875 31.16 112.683 30.672 112.299 30.224C111.931 29.776 111.427 29.552 110.787 29.552C110.163 29.552 109.651 29.776 109.251 30.224C108.867 30.672 108.675 31.16 108.675 31.688ZM126.476 29.6L124.916 29.504V32.816C124.916 33.248 124.98 33.56 125.108 33.752C125.252 33.944 125.508 34.04 125.876 34.04C126.26 34.04 126.548 34.056 126.74 34.088C126.948 34.104 127.164 34.176 127.388 34.304C127.756 34.512 127.94 35.048 127.94 35.912C127.94 36.92 127.716 37.536 127.268 37.76C127.028 37.872 126.812 37.944 126.62 37.976C126.444 37.992 126.18 38 125.828 38C124.164 38 122.9 37.624 122.036 36.872C121.172 36.12 120.74 34.848 120.74 33.056V29.504C120.436 29.552 120.108 29.576 119.756 29.576C119.404 29.576 119.108 29.44 118.868 29.168C118.644 28.896 118.532 28.432 118.532 27.776C118.532 27.12 118.572 26.648 118.652 26.36C118.732 26.056 118.844 25.84 118.988 25.712C119.244 25.504 119.564 25.4 119.948 25.4L120.74 25.496V23.024C120.74 22.656 120.748 22.384 120.764 22.208C120.796 22.032 120.876 21.84 121.004 21.632C121.212 21.232 121.828 21.032 122.852 21.032C123.94 21.032 124.588 21.328 124.796 21.92C124.876 22.176 124.916 22.584 124.916 23.144V25.496C125.62 25.432 126.148 25.4 126.5 25.4C126.868 25.4 127.14 25.416 127.316 25.448C127.508 25.464 127.724 25.536 127.964 25.664C128.38 25.872 128.588 26.488 128.588 27.512C128.588 28.52 128.372 29.136 127.94 29.36C127.7 29.472 127.484 29.544 127.292 29.576C127.116 29.592 126.844 29.6 126.476 29.6ZM141.636 30.176C141.636 31.152 141.388 31.88 140.892 32.36C140.412 32.824 139.876 33.056 139.284 33.056H133.596C133.596 33.504 133.86 33.88 134.388 34.184C134.916 34.488 135.444 34.64 135.972 34.64C136.9 34.64 137.628 34.544 138.156 34.352L138.42 34.256C138.804 34.08 139.124 33.992 139.38 33.992C139.892 33.992 140.332 34.352 140.7 35.072C140.908 35.504 141.012 35.872 141.012 36.176C141.012 37.6 139.308 38.312 135.9 38.312C134.716 38.312 133.66 38.112 132.732 37.712C131.82 37.296 131.108 36.752 130.596 36.08C129.588 34.784 129.084 33.336 129.084 31.736C129.084 29.72 129.732 28.112 131.028 26.912C132.34 25.696 133.972 25.088 135.924 25.088C138.148 25.088 139.78 25.872 140.82 27.44C141.364 28.272 141.636 29.184 141.636 30.176ZM136.572 30.872C137.18 30.872 137.484 30.616 137.484 30.104C137.484 29.736 137.34 29.44 137.052 29.216C136.78 28.992 136.38 28.88 135.852 28.88C135.34 28.88 134.828 29.096 134.316 29.528C133.804 29.944 133.548 30.392 133.548 30.872H136.572ZM160.769 21.056C160.929 20.8 161.161 20.624 161.465 20.528C161.769 20.432 162.145 20.384 162.593 20.384C163.057 20.384 163.425 20.424 163.697 20.504C163.969 20.584 164.177 20.68 164.321 20.792C164.465 20.904 164.569 21.072 164.633 21.296C164.729 21.568 164.777 21.984 164.777 22.544V29.792C164.777 31.904 164.121 33.824 162.809 35.552C162.169 36.368 161.345 37.032 160.337 37.544C159.329 38.04 158.209 38.288 156.977 38.288C155.761 38.288 154.649 38.032 153.641 37.52C152.649 37.008 151.841 36.336 151.217 35.504C149.921 33.808 149.273 31.888 149.273 29.744V22.52C149.273 22.136 149.281 21.856 149.297 21.68C149.329 21.488 149.409 21.272 149.537 21.032C149.665 20.792 149.881 20.624 150.185 20.528C150.489 20.432 150.897 20.384 151.409 20.384C151.921 20.384 152.329 20.432 152.633 20.528C152.937 20.624 153.145 20.792 153.257 21.032C153.449 21.4 153.545 21.904 153.545 22.544V29.744C153.545 30.72 153.785 31.648 154.265 32.528C154.505 32.976 154.865 33.336 155.345 33.608C155.825 33.88 156.393 34.016 157.049 34.016C158.217 34.016 159.089 33.584 159.665 32.72C160.241 31.856 160.529 30.856 160.529 29.72V22.376C160.529 21.752 160.609 21.312 160.769 21.056ZM166.314 36.872C166.01 36.68 165.858 36.376 165.858 35.96C165.858 35.544 166.162 34.912 166.77 34.064C166.946 33.792 167.226 33.656 167.61 33.656C168.01 33.656 168.546 33.856 169.218 34.256C169.89 34.64 170.498 34.832 171.042 34.832C172.018 34.832 172.506 34.64 172.506 34.256C172.506 33.952 171.97 33.728 170.898 33.584C169.89 33.44 168.89 33.064 167.898 32.456C167.434 32.168 167.05 31.72 166.746 31.112C166.442 30.488 166.29 29.752 166.29 28.904C166.29 26.376 168.026 25.112 171.498 25.112C172.634 25.112 173.802 25.384 175.002 25.928C175.562 26.184 175.842 26.504 175.842 26.888C175.842 27.272 175.666 27.744 175.314 28.304C174.962 28.864 174.602 29.144 174.234 29.144C174.042 29.144 173.682 29.024 173.154 28.784C172.642 28.544 172.082 28.424 171.474 28.424C170.53 28.424 170.058 28.6 170.058 28.952C170.058 29.432 170.602 29.744 171.69 29.888C172.746 30 173.77 30.304 174.762 30.8C175.226 31.024 175.61 31.416 175.914 31.976C176.234 32.52 176.394 33.208 176.394 34.04C176.394 34.872 176.234 35.584 175.914 36.176C175.61 36.752 175.178 37.184 174.618 37.472C173.594 37.968 172.306 38.216 170.754 38.216C169.218 38.216 167.738 37.768 166.314 36.872Z" fill="#274C8F"/>
</svg>
