<svg width="656" height="148" viewBox="0 0 656 148" fill="none" xmlns="http://www.w3.org/2000/svg">
<path d="M502.312 13.272C506.579 13.272 510.12 14.9147 512.936 18.2C515.795 21.4427 517.224 25.4107 517.224 30.104V41.368C517.224 42.3493 517.181 43.096 517.096 43.608C517.053 44.0773 516.883 44.6107 516.584 45.208C515.987 46.36 514.323 46.936 511.592 46.936C508.563 46.936 506.813 46.1467 506.344 44.568C506.088 43.8427 505.96 42.7547 505.96 41.304V30.04C505.96 28.2907 505.448 26.9253 504.424 25.944C503.443 24.9627 502.099 24.472 500.392 24.472C498.728 24.472 497.363 24.984 496.296 26.008C495.272 27.032 494.76 28.376 494.76 30.04V41.368C494.76 42.3493 494.717 43.096 494.632 43.608C494.589 44.0773 494.397 44.6107 494.056 45.208C493.501 46.36 491.859 46.936 489.128 46.936C486.44 46.936 484.797 46.36 484.2 45.208C483.901 44.568 483.709 44.0133 483.624 43.544C483.581 43.032 483.56 42.2853 483.56 41.304V18.648C483.56 17.7093 483.581 17.0053 483.624 16.536C483.709 16.024 483.923 15.4693 484.264 14.872C484.861 13.8053 486.504 13.272 489.192 13.272C491.795 13.272 493.395 13.7627 493.992 14.744C494.419 15.4693 494.632 16.344 494.632 17.368C494.803 17.0693 495.187 16.6427 495.784 16.088C496.381 15.5333 496.957 15.0853 497.512 14.744C498.963 13.7627 500.563 13.272 502.312 13.272Z" fill="white"/>
<path d="M482.072 28.136C482.072 30.7387 481.411 32.68 480.088 33.96C478.808 35.1973 477.379 35.816 475.8 35.816H460.632C460.632 37.0107 461.336 38.0133 462.744 38.824C464.152 39.6347 465.56 40.04 466.968 40.04C469.443 40.04 471.384 39.784 472.792 39.272L473.496 39.016C474.52 38.5467 475.373 38.312 476.056 38.312C477.421 38.312 478.595 39.272 479.576 41.192C480.131 42.344 480.408 43.3253 480.408 44.136C480.408 47.9333 475.864 49.832 466.776 49.832C463.619 49.832 460.803 49.2987 458.328 48.232C455.896 47.1227 453.997 45.672 452.632 43.88C449.944 40.424 448.6 36.5627 448.6 32.296C448.6 26.92 450.328 22.632 453.784 19.432C457.283 16.1893 461.635 14.568 466.84 14.568C472.771 14.568 477.123 16.6587 479.896 20.84C481.347 23.0587 482.072 25.4907 482.072 28.136ZM468.568 29.992C470.189 29.992 471 29.3093 471 27.944C471 26.9627 470.616 26.1733 469.848 25.576C469.123 24.9787 468.056 24.68 466.648 24.68C465.283 24.68 463.917 25.256 462.552 26.408C461.187 27.5173 460.504 28.712 460.504 29.992H468.568Z" fill="white"/>
<path d="M438.451 26.1789C441.17 28.9827 442.66 32.2361 442.919 35.9391C443.131 40.2013 441.913 43.8792 439.263 46.9729C436.654 50.021 433.327 51.6865 429.284 51.9692L412.492 53.1434C409.513 53.3517 407.711 52.6651 407.088 51.0834C406.782 50.3777 406.577 49.28 406.472 47.7903L403.995 12.3568C403.923 11.3353 403.892 10.589 403.902 10.1178C403.955 9.64365 404.129 9.07545 404.425 8.4132C404.94 7.22234 406.56 6.53167 409.284 6.34119L425.373 5.21615C429.288 4.94234 432.661 6.07517 435.49 8.61466C438.45 11.1878 440.066 14.4109 440.337 18.2842C440.533 21.0933 439.904 23.7249 438.451 26.1789ZM431.573 36.0908C431.502 35.0693 431.318 34.2695 431.021 33.6915C430.766 33.1105 430.353 32.7117 429.782 32.495C428.907 32.214 427.704 32.1271 426.171 32.2343C424.639 32.3414 423.469 32.1238 422.661 31.5815C421.853 31.0392 421.386 29.853 421.258 28.0228C421.127 26.15 421.423 24.8889 422.148 24.2395C422.915 23.587 424.213 23.1968 426.044 23.0688C427.746 22.9498 428.736 22.4314 429.014 21.5138C429.109 21.0367 429.12 20.2661 429.045 19.202C428.971 18.138 428.557 17.4184 427.804 17.0434C427.093 16.6654 426.035 16.5255 424.631 16.6237L415.692 17.2487L417.384 41.4456L427.855 40.7135C430.536 40.526 431.776 38.9851 431.573 36.0908Z" fill="white"/>
<path d="M555.072 28.136C555.072 30.7387 554.411 32.68 553.088 33.96C551.808 35.1973 550.379 35.816 548.8 35.816H533.632C533.632 37.0107 534.336 38.0133 535.744 38.824C537.152 39.6347 538.56 40.04 539.968 40.04C542.443 40.04 544.384 39.784 545.792 39.272L546.496 39.016C547.52 38.5467 548.373 38.312 549.056 38.312C550.421 38.312 551.595 39.272 552.576 41.192C553.131 42.344 553.408 43.3253 553.408 44.136C553.408 47.9333 548.864 49.832 539.776 49.832C536.619 49.832 533.803 49.2987 531.328 48.232C528.896 47.1227 526.997 45.672 525.632 43.88C522.944 40.424 521.6 36.5627 521.6 32.296C521.6 26.92 523.328 22.632 526.784 19.432C530.283 16.1893 534.635 14.568 539.84 14.568C545.771 14.568 550.123 16.6587 552.896 20.84C554.347 23.0587 555.072 25.4907 555.072 28.136ZM541.568 29.992C543.189 29.992 544 29.3093 544 27.944C544 26.9627 543.616 26.1733 542.848 25.576C542.123 24.9787 541.056 24.68 539.648 24.68C538.283 24.68 536.917 25.256 535.552 26.408C534.187 27.5173 533.504 28.712 533.504 29.992H541.568Z" fill="white"/>
<path d="M579.612 16.8206C582.549 17.026 584.216 17.9552 584.614 19.6083C584.813 20.4348 584.866 21.5078 584.774 22.8273C584.682 24.1467 584.458 25.2004 584.104 25.9882C583.795 26.7365 583.33 27.2601 582.711 27.5589C581.781 28.0071 580.465 28.1717 578.763 28.0527L574.694 27.5116L573.498 44.6218C573.385 46.2392 573.087 47.4374 572.605 48.2163C572.168 48.9556 571.516 49.4232 570.647 49.6191C569.82 49.8179 568.747 49.8712 567.428 49.7789C566.108 49.6867 565.053 49.4846 564.262 49.1726C563.517 48.8211 562.995 48.3355 562.696 47.7158C562.4 47.0536 562.227 46.4641 562.178 45.9474C562.171 45.4337 562.202 44.6873 562.27 43.7084L563.453 26.7897L561.155 26.629C560.054 26.4665 559.285 26.156 558.846 25.6977C558.094 24.8324 557.799 23.2506 557.959 20.9522C558.203 17.4621 559.581 15.8048 562.092 15.9804L564.199 16.1277L564.436 12.744C564.665 9.46667 566.042 6.59041 568.568 4.11521C571.096 1.59746 574.574 0.493344 579 0.802876C579.979 0.871331 580.7 0.96449 581.162 1.08235C581.67 1.16063 582.231 1.39235 582.845 1.77749C583.956 2.41116 584.416 4.09001 584.225 6.81403C584.083 8.85704 583.618 10.3002 582.832 11.1434C582.189 11.7827 581.225 12.1003 579.943 12.0961C579.56 12.0693 578.964 12.0277 578.155 11.9711C576.58 11.861 575.756 12.338 575.681 13.402L575.436 16.9135L579.612 16.8206Z" fill="white"/>
<path d="M587.812 23.9915C587.863 23.0115 587.923 22.2883 587.99 21.8219C588.102 21.315 588.324 20.7499 588.655 20.1264C589.31 19.0498 591.001 18.583 593.728 18.7259C595.773 18.8331 597.202 19.2712 598.017 20.0402C598.71 20.6747 599.045 21.6108 599.023 22.8487C599.043 23.277 599.032 23.896 598.99 24.7055L597.818 47.0748C597.766 48.0548 597.684 48.7982 597.572 49.305C597.505 49.7715 597.285 50.3154 596.91 50.9366C596.298 52.0154 594.629 52.4833 591.902 52.3404C589.218 52.1997 587.607 51.5386 587.071 50.3569C586.806 49.7021 586.644 49.1382 586.583 48.665C586.565 48.1941 586.583 47.4473 586.636 46.4247L587.812 23.9915ZM598.913 12.7171C598.584 13.298 598.007 13.695 597.184 13.9082C596.362 14.1214 595.268 14.1923 593.905 14.1209C592.584 14.0517 591.525 13.868 590.729 13.5699C589.933 13.2719 589.381 12.7943 589.074 12.1373C588.809 11.4826 588.647 10.9186 588.586 10.4455C588.57 9.93193 588.588 9.18517 588.639 8.20519C588.691 7.2252 588.75 6.50197 588.817 6.03552C588.929 5.52868 589.15 4.98483 589.479 4.40394C590.136 3.28478 591.828 2.79666 594.555 2.93957C597.239 3.08025 598.828 3.74032 599.322 4.91977C599.629 5.57675 599.791 6.16201 599.807 6.67554C599.867 7.1487 599.872 7.87527 599.821 8.85526C599.769 9.83525 599.687 10.5787 599.575 11.0855C599.508 11.5519 599.288 12.0958 598.913 12.7171Z" fill="white"/>
<path d="M621.953 33.5235L617.855 32.7625L616.779 41.5286C616.638 42.672 616.706 43.5186 616.983 44.0684C617.301 44.6234 617.948 44.9607 618.922 45.0803C619.938 45.2051 620.695 45.341 621.193 45.4881C621.738 45.5981 622.287 45.8588 622.838 46.2704C623.744 46.9405 624.057 48.419 623.776 50.7058C623.449 53.3738 622.656 54.9314 621.397 55.3787C620.725 55.5972 620.13 55.7175 619.612 55.7398C619.141 55.725 618.439 55.6604 617.508 55.546C613.103 55.0052 609.88 53.5992 607.838 51.3281C605.795 49.0569 605.065 45.5498 605.648 40.8067L606.802 31.4053C605.982 31.4336 605.106 31.3905 604.174 31.2761C603.242 31.1617 602.503 30.7056 601.956 29.9076C601.452 29.1149 601.306 27.8504 601.519 26.1141C601.733 24.3778 601.992 23.1415 602.297 22.4052C602.608 21.6266 602.974 21.0913 603.397 20.7993C604.142 20.332 605.023 20.1607 606.039 20.2855L608.104 20.797L608.908 14.2541C609.027 13.2801 609.137 12.5628 609.237 12.1021C609.378 11.6467 609.653 11.1645 610.059 10.6556C610.74 9.66447 612.435 9.3353 615.145 9.66809C618.025 10.0217 619.644 11.0157 620.002 12.6502C620.131 13.3538 620.104 14.4467 619.922 15.9289L619.158 22.1541C621.042 22.2135 622.45 22.3004 623.381 22.4148C624.355 22.5344 625.07 22.6652 625.525 22.807C626.028 22.9118 626.577 23.1726 627.17 23.5893C628.204 24.2751 628.554 25.9731 628.221 28.6834C627.894 31.3514 627.122 32.9116 625.906 33.3641C625.234 33.5825 624.639 33.7029 624.12 33.7252C623.649 33.7103 622.927 33.6431 621.953 33.5235Z" fill="white"/>
<path d="M627.417 53.2324C626.675 52.6254 626.371 51.7714 626.507 50.6703C626.642 49.5693 627.652 47.9953 629.537 45.9484C630.091 45.2857 630.876 45.0167 631.893 45.1415C632.951 45.2715 634.305 45.975 635.954 47.2521C637.607 48.4869 639.154 49.1927 640.594 49.3695C643.177 49.6867 644.532 49.3371 644.656 48.3207C644.755 47.5161 643.409 46.749 640.619 46.0195C637.998 45.3108 635.473 43.9906 633.045 42.0589C631.91 41.1459 631.04 39.8353 630.433 38.1273C629.831 36.3769 629.668 34.3794 629.943 32.135C630.765 25.4439 635.77 22.6625 644.96 23.7909C647.967 24.16 650.97 25.2596 653.969 27.0894C655.368 27.949 656.005 28.8869 655.88 29.9033C655.756 30.9197 655.136 32.1117 654.023 33.4796C652.909 34.8474 651.865 35.4715 650.891 35.3519C650.383 35.2895 649.469 34.8549 648.15 34.0481C646.873 33.2464 645.429 32.7468 643.82 32.5492C641.322 32.2424 640.015 32.5549 639.901 33.4866C639.745 34.757 641.083 35.7596 643.916 36.4943C646.675 37.134 649.286 38.2714 651.751 39.9066C652.906 40.6502 653.795 41.8126 654.418 43.3936C655.088 44.9374 655.288 46.8104 655.017 49.0125C654.747 51.2147 654.092 53.0472 653.053 54.5101C652.061 55.9358 650.777 56.9389 649.201 57.5191C646.33 58.4992 642.84 58.737 638.732 58.2326C634.667 57.7334 630.895 56.0667 627.417 53.2324Z" fill="white"/>
<path d="M75.1032 108.76C75.9923 103.717 78.4906 99.8688 82.598 97.2137C86.7055 94.5586 91.0282 93.6311 95.5662 94.4313C100.104 95.2315 103.828 97.5778 106.738 101.47C109.655 105.321 110.669 109.767 109.78 114.809C109.165 118.297 107.713 121.247 105.425 123.659C103.144 126.03 100.586 127.637 97.7509 128.48C94.9655 129.289 92.1862 129.448 89.413 128.959C86.6398 128.47 84.0691 127.324 81.7011 125.52C79.3404 123.674 77.4901 121.268 76.1501 118.302C74.8595 115.302 74.5105 112.121 75.1032 108.76ZM87.4759 115.62C88.6426 116.866 89.9193 117.611 91.3059 117.855C92.6925 118.1 94.1718 117.819 95.7436 117.013C97.3154 116.207 98.2829 114.775 98.6459 112.716C99.009 110.657 98.6281 109.008 97.5033 107.77C96.3786 106.532 95.0599 105.78 93.5472 105.513C92.0345 105.246 90.5343 105.523 89.0465 106.344C87.5587 107.165 86.6333 108.605 86.2703 110.664C85.9146 112.681 86.3165 114.333 87.4759 115.62Z" fill="white"/>
<path d="M134.076 98.4495C136.991 98.8592 138.59 99.9024 138.871 101.579C139.012 102.418 138.99 103.492 138.806 104.802C138.622 106.111 138.326 107.147 137.917 107.908C137.557 108.633 137.057 109.123 136.418 109.378C135.459 109.76 134.135 109.832 132.445 109.595L128.425 108.771L126.037 125.756C125.812 127.362 125.431 128.536 124.896 129.28C124.409 129.987 123.725 130.408 122.844 130.543C122.006 130.683 120.932 130.662 119.622 130.478C118.312 130.293 117.274 130.018 116.507 129.652C115.788 129.249 115.301 128.728 115.046 128.089C114.797 127.408 114.666 126.808 114.652 126.289C114.681 125.776 114.764 125.034 114.901 124.062L117.261 107.267L114.98 106.946C113.893 106.708 113.147 106.344 112.742 105.856C112.052 104.941 111.867 103.342 112.188 101.061C112.675 97.596 114.164 96.0388 116.657 96.3892L118.749 96.6831L119.221 93.3241C119.678 90.0708 121.253 87.2976 123.945 85.0046C126.643 82.6693 130.189 81.8105 134.583 82.428C135.555 82.5646 136.267 82.7078 136.72 82.8576C137.221 82.9712 137.764 83.2414 138.351 83.6685C139.414 84.3781 139.756 86.085 139.376 88.7891C139.091 90.8171 138.527 92.2243 137.684 93.0107C136.998 93.6036 136.015 93.8532 134.735 93.7595C134.355 93.7061 133.763 93.623 132.961 93.5101C131.397 93.2904 130.541 93.7087 130.393 94.765L129.903 98.2508L134.076 98.4495Z" fill="white"/>
<path d="M179.008 107.711H190.272C192.576 107.796 193.984 108.393 194.496 109.503C194.923 110.313 195.136 111.508 195.136 113.087V127.167C195.136 128.532 194.539 129.833 193.344 131.071C189.76 134.783 184.384 136.639 177.216 136.639C170.859 136.639 165.333 134.249 160.64 129.471C155.947 124.649 153.6 118.847 153.6 112.063C153.6 105.279 155.989 99.6253 160.768 95.1026C165.547 90.5373 171.179 88.2546 177.664 88.2546C182.699 88.2546 187.456 89.9186 191.936 93.2466C193.088 94.0999 193.664 95.0599 193.664 96.1266C193.664 97.1506 193.173 98.3453 192.192 99.7106C190.528 101.972 189.013 103.103 187.648 103.103C186.837 103.103 185.536 102.527 183.744 101.375C181.952 100.18 179.819 99.5826 177.344 99.5826C174.101 99.5826 171.221 100.735 168.704 103.039C166.187 105.3 164.928 108.287 164.928 111.999C164.928 115.668 166.208 118.804 168.768 121.407C171.328 123.967 174.229 125.247 177.472 125.247C179.819 125.247 181.931 124.863 183.808 124.095V117.119H178.752C177.429 117.119 176.491 116.948 175.936 116.607C175.381 116.265 175.019 115.775 174.848 115.135C174.677 114.452 174.592 113.556 174.592 112.447C174.592 111.295 174.677 110.377 174.848 109.695C175.061 109.012 175.424 108.543 175.936 108.287C176.704 107.903 177.728 107.711 179.008 107.711Z" fill="white"/>
<path d="M222.689 102.353C223.504 102.595 224.173 103.031 224.696 103.662C225.261 104.25 225.555 105.226 225.579 106.591C225.603 107.957 225.224 109.457 224.441 111.092C223.659 112.727 222.5 113.558 220.964 113.585C220.197 113.598 219.447 113.441 218.716 113.112C218.027 112.783 217.107 112.628 215.955 112.648C214.803 112.668 213.723 113.093 212.713 113.921C211.746 114.749 211.273 115.739 211.293 116.89L211.527 130.328C211.544 131.31 211.515 132.057 211.438 132.57C211.404 133.04 211.222 133.598 210.891 134.244C210.271 135.364 208.617 135.948 205.929 135.995C203.882 136.031 202.403 135.694 201.495 134.984C200.802 134.399 200.402 133.488 200.295 132.253C200.288 131.826 200.277 131.207 200.263 130.397L199.871 107.936C199.854 106.955 199.862 106.23 199.897 105.76C199.973 105.246 200.155 104.688 200.444 104.086C201.021 102.924 202.674 102.319 205.405 102.271C207.964 102.226 209.573 102.689 210.23 103.659C210.711 104.333 210.958 105.033 210.97 105.758C211.178 105.456 211.471 105.088 211.847 104.655C212.266 104.221 213.131 103.63 214.441 102.881C215.75 102.133 216.896 101.75 217.877 101.733C218.901 101.715 219.755 101.764 220.44 101.88C221.124 101.954 221.874 102.111 222.689 102.353Z" fill="white"/>
<path d="M247.13 102.616C247.009 100.216 248.487 98.7725 251.563 98.2852C253.207 98.0249 254.449 97.9578 255.29 98.0838C256.131 98.2099 256.748 98.5656 257.144 99.151C257.581 99.7297 257.861 100.269 257.983 100.768C258.141 101.218 258.296 101.928 258.45 102.897L261.954 125.021C262.107 125.99 262.182 126.734 262.178 127.253C262.209 127.724 262.127 128.298 261.932 128.977C261.516 130.166 260.149 130.944 257.831 131.311C255.555 131.672 253.974 131.642 253.086 131.22C252.234 130.751 251.658 129.978 251.358 128.902C250.153 131.383 247.717 132.913 244.051 133.494C240.427 134.068 236.792 132.937 233.146 130.102C229.5 127.267 227.33 123.658 226.636 119.275C225.935 114.85 226.884 110.747 229.482 106.966C232.115 103.137 235.307 100.925 239.057 100.331C240.49 100.104 241.837 100.15 243.097 100.469C244.357 100.787 245.255 101.142 245.792 101.532C246.323 101.88 246.769 102.241 247.13 102.616ZM237.708 117.586C237.928 118.977 238.677 120.154 239.952 121.119C241.222 122.041 242.636 122.378 244.195 122.132C245.754 121.885 246.95 121.112 247.781 119.814C248.654 118.509 248.984 117.183 248.77 115.834C248.55 114.444 247.841 113.238 246.643 112.219C245.486 111.192 244.065 110.812 242.38 111.079C240.736 111.34 239.481 112.143 238.615 113.49C237.79 114.83 237.488 116.196 237.708 117.586Z" fill="white"/>
<path d="M282.472 100.69C286.686 100.022 290.441 101.091 293.736 103.895C297.067 106.651 299.099 110.346 299.834 114.982L301.596 126.107C301.749 127.076 301.824 127.821 301.82 128.34C301.851 128.81 301.766 129.363 301.564 130C301.155 131.231 299.601 132.06 296.904 132.488C293.912 132.962 292.061 132.456 291.35 130.97C290.984 130.293 290.687 129.239 290.46 127.806L288.698 116.681C288.425 114.953 287.705 113.684 286.541 112.875C285.418 112.06 284.014 111.785 282.328 112.052C280.684 112.313 279.416 113.032 278.523 114.21C277.671 115.382 277.376 116.789 277.636 118.433L279.408 129.621C279.562 130.591 279.637 131.335 279.632 131.854C279.664 132.324 279.557 132.881 279.314 133.524C278.946 134.749 277.414 135.575 274.717 136.002C272.062 136.422 270.349 136.11 269.579 135.066C269.184 134.481 268.908 133.963 268.75 133.513C268.628 133.014 268.49 132.279 268.336 131.31L264.792 108.933C264.645 108.006 264.556 107.307 264.525 106.837C264.529 106.318 264.653 105.737 264.897 105.093C265.32 103.946 266.859 103.163 269.514 102.742C272.084 102.335 273.741 102.569 274.485 103.445C275.02 104.095 275.367 104.925 275.527 105.937C275.649 105.615 275.962 105.134 276.465 104.492C276.968 103.851 277.467 103.318 277.962 102.895C279.241 101.698 280.744 100.963 282.472 100.69Z" fill="white"/>
<path d="M321.472 100.69C325.686 100.022 329.441 101.091 332.736 103.895C336.067 106.651 338.099 110.346 338.834 114.982L340.596 126.107C340.749 127.076 340.824 127.82 340.82 128.339C340.851 128.81 340.766 129.363 340.564 130C340.155 131.231 338.601 132.06 335.904 132.487C332.912 132.961 331.061 132.455 330.35 130.97C329.984 130.293 329.687 129.239 329.46 127.806L327.698 116.68C327.425 114.953 326.705 113.684 325.541 112.875C324.418 112.059 323.014 111.785 321.328 112.052C319.684 112.312 318.416 113.032 317.523 114.21C316.671 115.381 316.376 116.789 316.636 118.433L318.408 129.621C318.562 130.59 318.637 131.335 318.632 131.854C318.664 132.324 318.557 132.881 318.314 133.524C317.946 134.749 316.414 135.574 313.717 136.002C311.062 136.422 309.349 136.11 308.579 135.066C308.184 134.48 307.908 133.963 307.75 133.512C307.628 133.013 307.49 132.279 307.336 131.31L303.792 108.933C303.645 108.006 303.556 107.307 303.525 106.837C303.529 106.318 303.653 105.737 303.897 105.093C304.32 103.946 305.859 103.163 308.514 102.742C311.084 102.335 312.741 102.569 313.485 103.445C314.02 104.095 314.367 104.925 314.527 105.937C314.649 105.615 314.962 105.133 315.465 104.492C315.968 103.851 316.467 103.318 316.962 102.894C318.241 101.698 319.744 100.963 321.472 100.69Z" fill="white"/>
<path d="M386.046 82.3347C386.876 82.9377 387.428 84.103 387.701 85.8308L387.862 86.8422C388.029 87.8957 388.11 88.682 388.106 89.2011C388.398 92.9562 387.806 96.3115 386.33 99.2667C384.855 102.222 382.663 103.93 379.755 104.39C379.46 104.437 379.153 104.27 378.833 103.888C378.549 103.458 378.35 102.885 378.237 102.169C378.123 101.452 378.121 100.891 378.229 100.485C378.373 100.03 378.547 99.7651 378.751 99.6896C378.991 99.5652 379.174 99.4931 379.3 99.473C379.42 99.4109 379.635 99.2688 379.945 99.0468C380.249 98.7827 380.501 98.4621 380.7 98.0849C381.234 97.0932 381.397 95.6635 381.187 93.7959C379.721 93.8121 378.573 93.5188 377.743 92.9159C376.955 92.3063 376.378 90.8426 376.011 88.5248C375.744 86.8391 375.758 85.5626 376.052 84.6952C376.34 83.7856 376.886 83.1376 377.688 82.7513C378.527 82.3161 379.852 81.9551 381.664 81.668C383.476 81.381 384.937 81.6033 386.046 82.3347Z" fill="white"/>
<path d="M370.985 97.0965C373.645 97.7984 375.098 98.929 375.345 100.488C375.465 101.247 375.41 101.99 375.18 102.718C374.95 103.445 374.838 103.83 374.844 103.872L364.15 143.538C363.94 144.392 363.741 145.049 363.555 145.511C363.411 145.966 363.116 146.423 362.671 146.882C362.225 147.341 361.623 147.631 360.865 147.751C360.106 147.872 358.939 147.732 357.364 147.334C354.704 146.632 353.254 145.522 353.014 144.005C352.854 142.994 354.112 137.848 356.79 128.569L340.856 109.385C339.793 108.128 339.208 107.162 339.102 106.488C338.888 105.139 339.812 103.611 341.874 101.902C343.174 100.832 344.224 100.234 345.024 100.107C345.825 99.9799 346.505 100.045 347.064 100.302C347.623 100.559 348.038 100.861 348.309 101.206C348.615 101.504 350.084 103.28 352.717 106.535C355.384 109.741 357.91 112.732 360.294 115.508C360.397 114.8 361.125 112.028 362.476 107.192C363.82 102.314 364.532 99.717 364.611 99.402C364.733 99.0803 364.929 98.6821 365.2 98.2073C365.634 97.4041 366.336 96.9258 367.305 96.7722C368.316 96.6121 369.543 96.7202 370.985 97.0965Z" fill="white"/>
<path d="M391.01 129.925C390.129 129.546 389.602 128.809 389.428 127.713C389.255 126.617 389.792 124.826 391.039 122.339C391.389 121.549 392.07 121.074 393.081 120.914C394.135 120.747 395.63 121.05 397.567 121.823C399.497 122.554 401.179 122.806 402.611 122.579C405.182 122.172 406.387 121.463 406.227 120.452C406.1 119.651 404.595 119.285 401.711 119.353C398.996 119.394 396.206 118.821 393.339 117.633C391.997 117.068 390.799 116.048 389.745 114.574C388.684 113.057 387.976 111.182 387.622 108.948C386.568 102.29 390.613 98.2367 399.758 96.7883C402.75 96.3145 405.939 96.5436 409.327 97.4758C410.909 97.9165 411.78 98.6425 411.94 99.6539C412.1 100.665 411.833 101.982 411.14 103.604C410.446 105.225 409.615 106.113 408.646 106.267C408.14 106.347 407.142 106.181 405.651 105.769C404.202 105.35 402.677 105.268 401.076 105.522C398.59 105.915 397.42 106.576 397.567 107.503C397.767 108.767 399.33 109.362 402.256 109.287C405.084 109.142 407.908 109.515 410.727 110.408C412.043 110.804 413.218 111.677 414.252 113.025C415.322 114.324 416.03 116.069 416.377 118.261C416.724 120.452 416.6 122.394 416.004 124.087C415.444 125.731 414.486 127.049 413.131 128.041C410.641 129.775 407.352 130.965 403.264 131.613C399.219 132.253 395.134 131.691 391.01 129.925Z" fill="white"/>
<path d="M425.172 76.0566L460.561 72.3371C461.918 72.1944 462.933 72.2593 463.606 72.5319C464.273 72.762 464.749 73.2054 465.033 73.862C465.316 74.5186 465.516 75.3986 465.632 76.5018C465.748 77.6051 465.735 78.5073 465.594 79.2085C465.449 79.8673 465.135 80.3508 464.653 80.6589C463.929 81.1211 462.867 81.4258 461.467 81.5729L449.31 82.8507L452.675 114.866C452.778 115.842 452.811 116.568 452.775 117.044C452.782 117.515 452.649 118.087 452.376 118.759C452.142 119.384 451.635 119.866 450.855 120.206C450.076 120.545 449.028 120.784 447.713 120.922C446.397 121.06 445.323 121.045 444.49 120.875C443.7 120.7 443.103 120.334 442.701 119.776C442.338 119.17 442.089 118.639 441.955 118.181C441.859 117.676 441.759 116.936 441.657 115.96L438.299 84.008L426.078 85.2925C424.72 85.4352 423.707 85.3915 423.04 85.1613C422.367 84.8888 421.89 84.4242 421.606 83.7676C421.322 83.1109 421.123 82.231 421.007 81.1277C420.891 80.0245 420.906 79.1435 421.051 78.4847C421.192 77.7834 421.503 77.2788 421.986 76.9706C422.709 76.5085 423.771 76.2038 425.172 76.0566Z" fill="white"/>
<path d="M490.591 84.4313C491.381 84.7433 492.01 85.2363 492.476 85.9105C492.988 86.545 493.196 87.5433 493.101 88.9053C493.005 90.2673 492.497 91.7287 491.575 93.2896C490.653 94.8504 489.426 95.5773 487.894 95.4701C487.128 95.4165 486.395 95.1942 485.695 94.8031C485.038 94.415 484.135 94.1807 482.986 94.1004C481.836 94.02 480.723 94.3485 479.645 95.0857C478.609 95.826 478.051 96.7707 477.971 97.9199L477.033 111.327C476.965 112.306 476.87 113.048 476.749 113.553C476.674 114.018 476.444 114.558 476.059 115.173C475.343 116.235 473.644 116.672 470.963 116.484C468.92 116.341 467.477 115.877 466.634 115.091C465.994 114.447 465.675 113.505 465.676 112.265C465.706 111.84 465.749 111.222 465.806 110.414L467.373 88.0044C467.441 87.0255 467.513 86.3034 467.588 85.8382C467.709 85.3334 467.939 84.7935 468.279 84.2184C468.955 83.1109 470.655 82.6524 473.379 82.8429C475.933 83.0214 477.495 83.6225 478.065 84.6461C478.486 85.3599 478.671 86.0785 478.62 86.8021C478.854 86.519 479.177 86.1781 479.59 85.7792C480.045 85.3834 480.958 84.8698 482.328 84.2385C483.698 83.6072 484.872 83.3258 485.851 83.3942C486.873 83.4656 487.72 83.589 488.392 83.7643C489.067 83.8971 489.8 84.1194 490.591 84.4313Z" fill="white"/>
<path d="M528.785 95.1983C528.83 97.8006 528.203 99.7532 526.902 101.056C525.644 102.316 524.226 102.959 522.648 102.987L507.482 103.251C507.503 104.446 508.224 105.436 509.646 106.222C511.068 107.008 512.483 107.389 513.891 107.364C516.365 107.321 518.301 107.031 519.7 106.495L520.4 106.226C521.415 105.739 522.264 105.49 522.947 105.478C524.312 105.454 525.502 106.393 526.517 108.296C527.092 109.438 527.386 110.414 527.4 111.225C527.466 115.022 522.956 116.999 513.87 117.158C510.713 117.213 507.888 116.729 505.395 115.706C502.944 114.639 501.02 113.222 499.624 111.454C496.876 108.045 495.465 104.208 495.39 99.9418C495.296 94.5667 496.949 90.2492 500.349 86.9893C503.79 83.6861 508.114 81.9891 513.318 81.8982C519.248 81.7947 523.636 83.8091 526.482 87.9414C527.971 90.1344 528.738 92.5534 528.785 95.1983ZM515.315 97.2897C516.936 97.2614 517.735 96.5647 517.711 95.1996C517.694 94.2184 517.296 93.4359 516.518 92.852C515.782 92.2675 514.71 91.9875 513.303 92.012C511.937 92.0359 510.582 92.6356 509.237 93.8112C507.892 94.9442 507.23 96.1506 507.252 97.4305L515.315 97.2897Z" fill="white"/>
<path d="M553.616 87.2803C553.789 84.8834 555.431 83.6307 558.544 83.522C560.207 83.4639 561.448 83.5487 562.267 83.7762C563.086 84.0038 563.656 84.4321 563.977 85.0613C564.34 85.689 564.552 86.258 564.613 86.7682C564.715 87.2342 564.783 87.9576 564.817 88.9384L565.599 111.325C565.633 112.305 565.616 113.053 565.549 113.568C565.523 114.038 565.371 114.599 565.095 115.249C564.537 116.378 563.085 116.984 560.74 117.066C558.437 117.146 556.871 116.923 556.042 116.397C555.253 115.827 554.776 114.99 554.609 113.886C553.11 116.201 550.506 117.423 546.796 117.553C543.129 117.681 539.659 116.116 536.386 112.857C533.113 109.599 531.399 105.752 531.244 101.318C531.088 96.8403 532.529 92.8836 535.569 89.4474C538.649 85.9671 542.087 84.1607 545.882 84.0282C547.332 83.9776 548.662 84.1873 549.874 84.6572C551.086 85.1272 551.935 85.5886 552.42 86.0412C552.904 86.4513 553.303 86.8643 553.616 87.2803ZM542.44 100.991C542.489 102.398 543.088 103.658 544.237 104.77C545.384 105.84 546.747 106.348 548.324 106.293C549.902 106.237 551.183 105.616 552.166 104.429C553.192 103.241 553.681 101.964 553.633 100.6C553.584 99.1926 553.027 97.91 551.962 96.7518C550.939 95.5921 549.575 95.042 547.87 95.1016C546.207 95.1597 544.863 95.8043 543.839 97.0354C542.857 98.2651 542.391 99.5835 542.44 100.991Z" fill="white"/>
<path d="M588.302 95.8437L584.25 94.8692L582.716 103.567C582.516 104.701 582.54 105.55 582.787 106.114C583.076 106.685 583.704 107.056 584.671 107.226C585.679 107.404 586.428 107.579 586.917 107.752C587.456 107.89 587.99 108.18 588.519 108.619C589.389 109.336 589.624 110.829 589.224 113.098C588.757 115.745 587.884 117.259 586.603 117.64C585.921 117.823 585.321 117.912 584.802 117.907C584.332 117.868 583.635 117.766 582.711 117.603C578.341 116.833 575.195 115.26 573.275 112.885C571.354 110.51 570.808 106.97 571.638 102.264L573.283 92.9354C572.462 92.9207 571.59 92.8319 570.666 92.6689C569.741 92.5059 569.027 92.0116 568.522 91.1862C568.06 90.3681 567.981 89.0978 568.285 87.375C568.588 85.6522 568.912 84.4312 569.255 83.7119C569.606 82.9506 570 82.4352 570.438 82.1658C571.207 81.7381 572.095 81.6131 573.103 81.7909L575.139 82.4098L576.284 75.918C576.454 74.9515 576.601 74.2409 576.725 73.7861C576.89 73.3387 577.189 72.8716 577.622 72.3846C578.353 71.4304 580.063 71.1905 582.753 71.6646C585.61 72.1685 587.174 73.2459 587.447 74.8969C587.538 75.6062 587.454 76.6962 587.195 78.1668L586.106 84.3436C587.984 84.5015 589.386 84.6619 590.31 84.8249C591.277 84.9953 591.983 85.1633 592.431 85.3288C592.928 85.4598 593.461 85.7489 594.033 86.1962C595.029 86.935 595.29 88.6491 594.816 91.3382C594.349 93.9854 593.496 95.5031 592.258 95.8913C591.576 96.0743 590.975 96.1634 590.456 96.1585C589.987 96.119 589.269 96.0141 588.302 95.8437Z" fill="white"/>
<path d="M38.8404 5.69335C39.8069 5.86376 40.5138 6.03173 40.9612 6.19727C41.458 6.32819 41.9709 6.61359 42.4999 7.05346C43.0709 7.50075 43.412 8.14579 43.5234 8.9886C43.6347 9.8314 43.5718 10.9251 43.3347 12.2697C43.0977 13.6143 42.7827 14.6635 42.3898 15.4174C41.9969 16.1713 41.4557 16.6608 40.7661 16.8858C40.084 17.0688 39.4834 17.1578 38.9644 17.153C38.4948 17.1135 37.7557 17.0048 36.7473 16.827L17.4608 13.4263L16.3384 19.7921L28.7548 21.9815C29.7633 22.1593 30.4912 22.3309 30.9386 22.4965C31.4354 22.6274 31.9693 22.9165 32.5403 23.3638C33.5216 24.1867 33.7752 25.9428 33.301 28.6319C32.7824 31.5732 31.6766 33.1762 29.9836 33.4409C29.2742 33.5325 28.1842 33.4486 26.7136 33.1893L14.3602 31.011L12.2597 42.9233C12.0819 43.9317 11.9102 44.6596 11.7447 45.107C11.6212 45.5618 11.3358 46.0747 10.8885 46.6457C10.1002 47.6765 8.36144 47.9548 5.67226 47.4806C2.73096 46.962 1.14898 45.8599 0.926298 44.1742C0.79273 43.4575 0.855604 42.3638 1.11492 40.8932L7.29402 5.84975C7.67187 3.70681 8.32666 2.32756 9.25837 1.71199C10.1975 1.05441 11.7805 0.921963 14.0075 1.31464L38.8404 5.69335Z" fill="white"/>
<path d="M95.5969 28.3992C97.5813 30.0527 98.4567 31.6169 98.2231 33.0918C98.0896 33.9346 97.4847 35.0268 96.4082 36.3682L79.7691 56.7361C79.2343 57.3857 78.4565 57.9321 77.436 58.3753C76.4221 58.7763 75.4516 58.9033 74.5245 58.7565C73.6395 58.6163 72.809 58.2688 72.0329 57.7139C71.3057 57.1235 70.8102 56.5699 70.5465 56.0529L70.0877 55.2675L60.5038 30.6815C59.8812 29.1574 59.64 27.9528 59.7802 27.0678C60.0205 25.5508 61.3397 24.3126 63.738 23.3532C65.4862 22.6798 66.8239 22.4165 67.751 22.5633C68.6781 22.7101 69.3478 23.1186 69.76 23.7887C70.2211 24.4233 70.6565 25.3562 71.0663 26.5875L76.8241 43.8284L87.6278 29.2106C88.2182 28.4833 88.6454 27.9678 88.9095 27.664C89.2225 27.3248 89.6585 27.0267 90.2176 26.7696C90.7833 26.4705 91.4876 26.3876 92.3305 26.5211C93.1733 26.6546 94.2621 27.2806 95.5969 28.3992Z" fill="white"/>
<path d="M47.0509 25.9859C47.1534 25.0099 47.2505 24.2908 47.342 23.8285C47.4803 23.3282 47.7315 22.7754 48.0954 22.1701C48.8054 21.1293 50.5183 20.7516 53.234 21.0371C55.2708 21.2511 56.6756 21.7635 57.4485 22.574C58.1074 23.2439 58.3934 24.1963 58.3065 25.4314C58.3043 25.8601 58.2609 26.4776 58.1761 27.2839L55.8347 49.5612C55.7321 50.5371 55.6116 51.2752 55.4732 51.7755C55.3818 52.2378 55.1328 52.7694 54.7265 53.3702C54.0589 54.4155 52.3672 54.7954 49.6515 54.51C46.9782 54.229 45.4048 53.4844 44.9311 52.2763C44.701 51.6086 44.568 51.0369 44.5322 50.5612C44.5389 50.09 44.5957 49.3452 44.7027 48.3268L47.0509 25.9859ZM58.727 15.3078C58.3675 15.8707 57.7713 16.237 56.9383 16.4069C56.1053 16.5768 55.0099 16.5903 53.652 16.4476C52.3366 16.3094 51.2892 16.0706 50.5097 15.7312C49.7302 15.3919 49.2042 14.8861 48.9317 14.214C48.7015 13.5463 48.5686 12.9746 48.5327 12.4989C48.5438 11.9852 48.6007 11.2404 48.7032 10.2645C48.8058 9.2885 48.9029 8.56937 48.9943 8.10706C49.1327 7.60679 49.3817 7.07523 49.7411 6.51239C50.4556 5.42914 52.1707 5.03023 54.8864 5.31566C57.5597 5.59663 59.1119 6.33895 59.5431 7.54262C59.8157 8.21479 59.9464 8.80771 59.9354 9.32136C59.9712 9.79705 59.9378 10.5229 59.8352 11.4988C59.7326 12.4748 59.6121 13.2129 59.4738 13.7132C59.3823 14.1755 59.1333 14.707 58.727 15.3078Z" fill="white"/>
<path d="M132.026 40.4857C131.845 43.082 131.05 44.9725 129.641 46.1571C128.278 47.3022 126.809 47.8196 125.234 47.7095L110.103 46.6514C110.019 47.8432 110.652 48.8925 112 49.7994C113.348 50.7063 114.724 51.2089 116.129 51.3071C118.597 51.4797 120.552 51.3598 121.992 50.9472L122.712 50.741C123.766 50.3442 124.634 50.1696 125.315 50.2173C126.677 50.3125 127.781 51.352 128.626 53.3358C129.099 54.5237 129.307 55.522 129.25 56.3307C128.985 60.1187 124.32 61.6958 115.254 61.0619C112.104 60.8416 109.332 60.1131 106.938 58.8765C104.59 57.6002 102.797 56.0206 101.56 54.1377C99.1193 50.5026 98.048 46.557 98.3456 42.3007C98.7206 36.9378 100.743 32.7808 104.414 29.8296C108.131 26.8389 112.585 25.5251 117.778 25.8882C123.694 26.3019 127.89 28.6911 130.364 33.0557C131.657 35.3701 132.211 37.8468 132.026 40.4857ZM118.426 41.3952C120.043 41.5083 120.899 40.8838 120.995 39.5218C121.063 38.5429 120.735 37.7287 120.011 37.0792C119.329 36.4328 118.285 36.0604 116.881 35.9622C115.519 35.867 114.117 36.3463 112.674 37.4003C111.235 38.4117 110.471 39.5558 110.381 40.8327L118.426 41.3952Z" fill="white"/>
<path d="M151.261 50.8199L136.038 50.2883C133.651 50.2049 132.247 49.4302 131.829 47.964C131.643 47.189 131.57 46.2046 131.612 45.0106C131.654 43.8167 131.815 42.8617 132.096 42.1458C132.377 41.4298 132.8 40.9323 133.365 40.6532C134.146 40.2962 135.176 40.14 136.455 40.1847L151.678 40.7163C154.066 40.7997 155.448 41.5524 155.826 42.9744C156.055 43.7509 156.148 44.7361 156.107 45.93C156.065 47.124 155.903 48.1003 155.62 48.8589C155.382 49.5763 155.001 50.0753 154.479 50.3559C153.698 50.7129 152.626 50.8676 151.261 50.8199Z" fill="white"/>
<path d="M168.336 15.1655L180.173 15.4361C186.359 15.5441 191.759 17.8787 196.374 22.4399C200.989 26.9585 203.239 32.4813 203.126 39.0083C203.012 45.4926 200.612 51.0196 195.923 55.5891C191.277 60.1594 185.691 62.3875 179.164 62.2736L167.454 62.0692C164.851 62.0238 163.24 61.4622 162.618 60.3846C162.122 59.4798 161.89 58.1102 161.922 56.2758L162.543 20.6972C162.561 19.6734 162.595 18.9272 162.646 18.4587C162.74 17.9909 162.963 17.44 163.315 16.8061C163.932 15.6647 165.606 15.1178 168.336 15.1655ZM179.554 50.9507C182.625 51.0043 185.418 49.9222 187.931 47.7044C190.446 45.444 191.733 42.586 191.794 39.1305C191.854 35.675 190.688 32.7743 188.297 30.4282C185.949 28.0402 183.154 26.8179 179.912 26.7613L173.769 26.654L173.346 50.8424L179.554 50.9507Z" fill="white"/>
<path d="M225.209 29.589C226.032 29.8022 226.716 30.215 227.26 30.8273C227.846 31.3948 228.174 32.3603 228.245 33.7237C228.317 35.0872 227.99 36.5997 227.266 38.2612C226.541 39.9228 225.412 40.7937 223.878 40.8741C223.111 40.9143 222.356 40.7829 221.614 40.48C220.914 40.1749 219.989 40.0525 218.839 40.1128C217.689 40.1731 216.623 40.6348 215.643 41.4979C214.705 42.3588 214.267 43.3645 214.327 44.5149L215.031 57.9365C215.082 58.9165 215.078 59.6644 215.02 60.1801C215.002 60.6511 214.839 61.215 214.532 61.872C213.951 63.0133 212.318 63.6543 209.634 63.795C207.589 63.9022 206.1 63.617 205.167 62.9396C204.454 62.3788 204.022 61.4828 203.872 60.2517C203.85 59.8256 203.818 59.2078 203.775 58.3982L202.6 35.965C202.548 34.985 202.532 34.2595 202.55 33.7886C202.608 33.2729 202.771 32.7089 203.038 32.0968C203.574 30.9151 205.206 30.2528 207.932 30.1099C210.489 29.9759 212.112 30.3821 212.803 31.3286C213.307 31.9858 213.579 32.6766 213.616 33.4009C213.814 33.0915 214.093 32.7137 214.454 32.2675C214.858 31.8191 215.701 31.1981 216.984 30.4045C218.267 29.611 219.399 29.1885 220.379 29.1372C221.401 29.0836 222.257 29.1028 222.945 29.1949C223.631 29.2444 224.386 29.3758 225.209 29.589Z" fill="white"/>
<path d="M263.06 42.2254C263.06 44.828 262.399 46.7694 261.076 48.0494C259.796 49.2867 258.367 49.9053 256.788 49.9053H241.62C241.62 51.1 242.324 52.1027 243.732 52.9133C245.14 53.724 246.548 54.1294 247.956 54.1294C250.431 54.1294 252.372 53.8734 253.78 53.3614L254.484 53.1054C255.508 52.636 256.361 52.4014 257.044 52.4014C258.409 52.4014 259.583 53.3614 260.564 55.2814C261.119 56.4334 261.396 57.4147 261.396 58.2254C261.396 62.0227 256.852 63.9214 247.764 63.9214C244.607 63.9214 241.791 63.388 239.316 62.3214C236.884 61.212 234.985 59.7614 233.62 57.9694C230.932 54.5134 229.588 50.652 229.588 46.3853C229.588 41.0093 231.316 36.7214 234.772 33.5214C238.271 30.2787 242.623 28.6573 247.828 28.6573C253.759 28.6573 258.111 30.748 260.884 34.9293C262.335 37.148 263.06 39.58 263.06 42.2254ZM249.556 44.0813C251.177 44.0813 251.988 43.3987 251.988 42.0334C251.988 41.052 251.604 40.2627 250.836 39.6653C250.111 39.068 249.044 38.7694 247.636 38.7694C246.271 38.7694 244.905 39.3453 243.54 40.4973C242.175 41.6067 241.492 42.8013 241.492 44.0813H249.556Z" fill="white"/>
<path d="M287.082 30.5738C287.212 28.1744 288.833 26.8932 291.943 26.7301C293.605 26.6431 294.847 26.7061 295.67 26.9193C296.493 27.1326 297.07 27.5509 297.402 28.1744C297.777 28.7957 297.998 29.3608 298.068 29.8699C298.178 30.3341 298.258 31.0562 298.31 32.0362L299.482 54.4055C299.533 55.3855 299.53 56.1334 299.471 56.6492C299.453 57.1201 299.312 57.6829 299.047 58.3377C298.509 59.4767 297.068 60.1077 294.724 60.2305C292.423 60.3511 290.854 60.1556 290.015 59.6442C289.217 59.0878 288.725 58.2591 288.539 57.158C287.081 59.4989 284.498 60.7664 280.791 60.9607C277.127 61.1527 273.63 59.6484 270.301 56.4475C266.971 53.2467 265.19 49.4307 264.958 44.9995C264.724 40.5256 266.096 36.5443 269.075 33.0556C272.094 29.5221 275.5 27.656 279.292 27.4573C280.74 27.3813 282.075 27.5678 283.295 28.0165C284.514 28.4653 285.371 28.9118 285.864 29.3559C286.355 29.7574 286.761 30.1634 287.082 30.5738ZM276.146 44.4772C276.22 45.8833 276.841 47.1325 278.009 48.2249C279.175 49.2746 280.546 49.7582 282.122 49.6756C283.699 49.5929 284.968 48.9496 285.931 47.7456C286.936 46.5394 287.402 45.2545 287.331 43.891C287.257 42.485 286.678 41.2122 285.593 40.0728C284.55 38.9311 283.177 38.4049 281.472 38.4943C279.811 38.5813 278.478 39.2493 277.476 40.4982C276.516 41.7448 276.073 43.0711 276.146 44.4772Z" fill="white"/>
<path d="M314.263 32.038C316.107 28.9079 318.436 27.2691 321.248 27.1218C325.594 26.894 328.929 28.5777 331.254 32.173C331.689 31.5093 332.208 30.8199 332.812 30.1046C333.455 29.3446 334.48 28.5218 335.887 27.6363C337.291 26.7082 338.76 26.204 340.294 26.1236C343.702 25.945 346.626 27.1162 349.065 29.6373C351.502 32.1159 352.88 36.3803 353.197 42.4307L353.783 53.6153C353.834 54.5953 353.831 55.3432 353.772 55.8589C353.754 56.3299 353.591 56.8938 353.284 57.5508C352.79 58.7303 351.18 59.3914 348.453 59.5344C345.769 59.675 344.097 59.1645 343.438 58.0027C343.107 57.3792 342.886 56.8354 342.776 56.3711C342.707 55.8621 342.646 55.1176 342.595 54.1376L342.009 42.9529C341.814 39.246 340.396 37.4618 337.755 37.6002C336.263 37.6784 335.266 38.222 334.764 39.231C334.304 40.2378 334.121 41.6359 334.215 43.4255L334.801 54.6101C334.854 55.6327 334.851 56.3806 334.79 56.8537C334.772 57.3247 334.61 57.8886 334.302 58.5456C333.766 59.7273 332.134 60.3896 329.407 60.5325C326.723 60.6732 325.051 60.1626 324.392 59.0009C324.061 58.3774 323.84 57.8335 323.73 57.3693C323.661 56.8602 323.6 56.1157 323.549 55.1357L322.963 43.9511C322.769 40.2442 321.351 38.4599 318.709 38.5984C316.152 38.7323 314.971 40.6528 315.165 44.3597L315.758 55.6722C315.81 56.6522 315.806 57.4 315.748 57.9158C315.73 58.3867 315.567 58.9507 315.26 59.6077C314.679 60.749 313.046 61.39 310.362 61.5307C307.677 61.6713 306.007 61.1821 305.35 60.0629C305.018 59.4394 304.797 58.8956 304.688 58.4314C304.62 57.9649 304.56 57.2204 304.506 56.1978L303.327 33.7007C303.276 32.7207 303.259 31.9952 303.277 31.5243C303.336 31.0085 303.52 30.4435 303.829 29.8291C304.408 28.6452 305.891 27.9907 308.277 27.8656C310.663 27.7406 312.238 28.0425 313.003 28.7715C313.767 29.5005 314.187 30.5894 314.263 32.038Z" fill="white"/>
<path d="M384.373 16.8826C386.945 17.8587 388.272 19.1349 388.355 20.7114C388.395 21.4784 388.263 22.2117 387.958 22.9113C387.652 23.6109 387.501 23.982 387.503 24.0246L372.721 62.3547C372.423 63.1822 372.157 63.8156 371.923 64.2551C371.733 64.6923 371.392 65.1161 370.9 65.5264C370.409 65.9366 369.78 66.1619 369.013 66.2021C368.246 66.2423 367.1 65.9819 365.576 65.4209C363.004 64.4448 361.678 63.1898 361.597 61.656C361.544 60.6334 363.333 55.6475 366.966 46.6985L353.125 25.9544C352.199 24.593 351.718 23.5714 351.683 22.8897C351.611 21.5262 352.69 20.1025 354.92 18.6184C356.324 17.6904 357.43 17.2051 358.24 17.1627C359.05 17.1202 359.719 17.2561 360.248 17.5701C360.777 17.8842 361.158 18.2274 361.392 18.5997C361.665 18.9272 362.941 20.847 365.218 24.3593C367.536 27.8268 369.735 31.0654 371.816 34.0754C371.993 33.3825 373.006 30.7018 374.855 26.0333C376.702 21.3222 377.681 18.8141 377.793 18.5092C377.948 18.202 378.185 17.8264 378.503 17.3825C379.019 16.6291 379.767 16.2267 380.747 16.1754C381.77 16.1218 382.978 16.3575 384.373 16.8826Z" fill="white"/>
</svg>
