<svg width="40" height="40" viewBox="0 0 40 40" fill="none" xmlns="http://www.w3.org/2000/svg">
<path d="M11.4281 4.07316C13.5331 5.60816 15.1264 7.76483 16.4831 9.7465L17.5464 11.3098C17.8766 11.7924 18.0277 12.3753 17.9735 12.9575C17.9194 13.5398 17.6633 14.0848 17.2498 14.4982L14.9898 16.7582L15.2281 17.2648C15.8114 18.4465 16.8181 20.1482 18.3331 21.6648C19.3809 22.6932 20.56 23.5787 21.8398 24.2982L22.4514 24.6265L22.9964 24.8965L23.2398 25.0082L25.4981 22.7482C25.9128 22.3331 26.4602 22.0771 27.0446 22.025C27.6291 21.9729 28.2132 22.128 28.6947 22.4632L30.3848 23.6348C32.3048 24.9848 34.3098 26.5232 35.8681 28.5198C36.1375 28.8663 36.3088 29.2788 36.3642 29.7142C36.4196 30.1496 36.3571 30.5919 36.1831 30.9948C34.7881 34.2498 31.2581 37.0215 27.5864 36.8848L27.0864 36.8582L26.6981 36.8248L26.2681 36.7748L25.7998 36.7115L25.2914 36.6265L24.7481 36.5198L24.1714 36.3915L23.5614 36.2348L22.9198 36.0515L22.2498 35.8348C19.1731 34.7915 15.2681 32.7415 11.2614 28.7348C7.25475 24.7282 5.20642 20.8248 4.16308 17.7482L3.94642 17.0782L3.76308 16.4365L3.60642 15.8265L3.47642 15.2498C3.43891 15.0692 3.40391 14.8881 3.37142 14.7065L3.28808 14.1982L3.22142 13.7298L3.17308 13.2998L3.13975 12.9115L3.11308 12.4115C2.97808 8.75149 5.77975 5.1965 9.01975 3.80816C9.40971 3.63977 9.83675 3.57566 10.259 3.62212C10.6812 3.66858 11.0841 3.82401 11.4281 4.07316ZM9.88308 7.08649C8.09642 8.01983 6.36642 10.1532 6.44475 12.2882L6.47808 12.8348L6.51475 13.1765L6.56308 13.5598L6.62975 13.9815L6.71475 14.4432L6.82308 14.9398L6.95642 15.4732L7.11642 16.0382L7.30642 16.6348C7.37642 16.8382 7.45086 17.0465 7.52975 17.2598L7.78642 17.9132L8.07975 18.5915C9.12642 20.8948 10.8331 23.5915 13.6214 26.3782C16.4081 29.1648 19.1048 30.8732 21.4081 31.9198L22.0864 32.2132L22.7398 32.4698C22.9531 32.5498 23.1614 32.6243 23.3648 32.6932L23.9614 32.8832L24.5281 33.0432L25.0598 33.1765L25.5564 33.2848L26.0181 33.3698L26.4414 33.4365L26.8248 33.4865L27.1648 33.5198L27.7114 33.5532C29.8181 33.6315 31.9681 31.9115 32.8981 30.1482C31.7114 28.7565 30.2381 27.6148 28.6131 26.4648L27.3664 25.5965L27.0498 25.9282L26.3731 26.6665L26.0148 27.0432C25.0381 28.0382 23.8981 28.8832 22.5314 28.3315L22.1548 28.1732L21.6948 27.9665L21.4381 27.8448L20.8748 27.5632L20.2564 27.2298C18.6931 26.3567 17.2541 25.2776 15.9781 24.0215C14.7219 22.7454 13.6429 21.3065 12.7698 19.7432L12.4364 19.1265L12.1531 18.5615L11.8264 17.8448L11.6664 17.4648C11.1481 16.1832 11.8614 15.1015 12.7731 14.1648L13.1464 13.7982L14.0747 12.9432L14.4081 12.6265L13.6198 11.4715C12.4481 9.77149 11.3031 8.23816 9.88142 7.08483L9.88308 7.08649ZM24.9881 10.0648L25.1814 10.0865C26.3946 10.3005 27.5089 10.8931 28.3646 11.7793C29.2203 12.6655 29.7734 13.7999 29.9447 15.0198C30.0058 15.4418 29.9029 15.8711 29.6571 16.2195C29.4113 16.5679 29.0413 16.8088 28.6233 16.8927C28.2052 16.9766 27.7709 16.8971 27.4097 16.6706C27.0485 16.444 26.7879 16.0877 26.6814 15.6748L26.6431 15.4832C26.576 15.005 26.3719 14.5565 26.0555 14.1918C25.739 13.8271 25.3237 13.5619 24.8598 13.4282L24.6014 13.3698C24.1829 13.2957 23.8086 13.0644 23.5549 12.7233C23.3013 12.3823 23.1875 11.9572 23.2369 11.5351C23.2863 11.1129 23.4951 10.7256 23.8206 10.4523C24.1461 10.179 24.5638 10.0404 24.9881 10.0648ZM24.9998 4.99816C27.6519 4.99816 30.1955 6.05173 32.0708 7.92709C33.9462 9.80246 34.9998 12.346 34.9998 14.9982C34.9993 15.423 34.8366 15.8315 34.545 16.1404C34.2534 16.4493 33.8548 16.6352 33.4308 16.6601C33.0067 16.685 32.5891 16.547 32.2634 16.2744C31.9376 16.0017 31.7283 15.615 31.6781 15.1932L31.6664 14.9982C31.6662 13.3058 31.0224 11.6768 29.8655 10.4416C28.7086 9.20633 27.1252 8.45735 25.4364 8.34649L24.9998 8.3315C24.5577 8.3315 24.1338 8.1559 23.8212 7.84334C23.5087 7.53078 23.3331 7.10686 23.3331 6.66483C23.3331 6.2228 23.5087 5.79888 23.8212 5.48632C24.1338 5.17376 24.5577 4.99816 24.9998 4.99816Z" fill="#285192"/>
</svg>
