<svg width="95" height="87" viewBox="0 0 95 87" fill="none" xmlns="http://www.w3.org/2000/svg">
<path d="M49.8035 3.44906L67.2276 12.4934L84.043 21.5482C85.6488 22.4129 86.6564 24.0833 86.6722 25.9071L86.8249 43.5L86.6722 61.0929C86.6564 62.9167 85.6488 64.5871 84.043 65.4518L67.2276 74.5066L49.8035 83.5509C48.3593 84.3006 46.6407 84.3006 45.1965 83.5509L27.7724 74.5066L10.957 65.4518C9.35121 64.5871 8.34361 62.9167 8.32778 61.0929L8.17507 43.5L8.32778 25.9071C8.34361 24.0833 9.35122 22.4129 10.957 21.5482L27.7724 12.4934L45.1965 3.44906C46.6407 2.69943 48.3593 2.69943 49.8035 3.44906Z" fill="#EAF6FF" stroke="#EAF6FF" stroke-width="4"/>
<path fill-rule="evenodd" clip-rule="evenodd" d="M49.6424 25.9167C54.1 26.1358 58.2536 27.974 61.4261 31.1486C64.8101 34.5347 66.6728 39.0358 66.671 43.8225C66.6669 53.7002 58.6256 61.7372 48.7473 61.7372C45.0325 61.7372 42.0805 60.5959 40.1744 59.5567L30.6727 62.0479L33.2156 52.7644C31.6471 50.0476 30.8217 46.9658 30.823 43.8082C30.827 33.9307 38.8676 25.8945 48.747 25.8945L49.6424 25.9167ZM40.6146 56.3135L41.1587 56.6361C43.446 57.9928 46.0679 58.7106 48.7411 58.7117H48.7472C56.9584 58.7117 63.6414 52.0318 63.6446 43.8214C63.6462 39.8428 62.0981 36.1017 59.2854 33.2872C56.4726 30.4726 52.7323 28.9216 48.7531 28.9203C40.5356 28.9203 33.8526 35.5995 33.8493 43.8093C33.8482 46.6229 34.6357 49.363 36.127 51.7336L36.4812 52.2971L34.9762 57.7918L40.6146 56.3135ZM57.7771 48.0826C57.6651 47.8957 57.3666 47.7838 56.9188 47.5597C56.4709 47.3356 54.2691 46.2527 53.8585 46.1032C53.448 45.954 53.1494 45.8794 52.8509 46.3274C52.5524 46.7754 51.6941 47.7838 51.4328 48.0826C51.1716 48.3813 50.9103 48.4187 50.4625 48.1946C50.0147 47.9706 48.5716 47.4978 46.861 45.9728C45.5296 44.7858 44.6308 43.32 44.3695 42.8719C44.1083 42.4238 44.3416 42.1815 44.5658 41.9583C44.7673 41.7577 45.0138 41.4355 45.2377 41.1741C45.4616 40.9128 45.5362 40.7259 45.6856 40.4273C45.8348 40.1285 45.7601 39.8672 45.6482 39.6431C45.5362 39.4189 44.6406 37.2156 44.2674 36.3193C43.9038 35.4465 43.5346 35.5647 43.2597 35.5509C42.9988 35.538 42.6999 35.5351 42.4014 35.5351C42.1028 35.5351 41.6176 35.6471 41.2071 36.0953C40.7966 36.5434 39.6396 37.6264 39.6396 39.8296C39.6396 42.033 41.2444 44.1614 41.4684 44.4602C41.6923 44.7591 44.6264 49.2802 49.119 51.2194C50.1875 51.6806 51.0217 51.956 51.6721 52.1623C52.745 52.503 53.7213 52.455 54.493 52.3397C55.3534 52.2112 57.1427 51.2568 57.5159 50.2113C57.8891 49.1655 57.8891 48.2692 57.7771 48.0826Z" fill="white"/>
<mask id="mask0_20_80" style="mask-type:alpha" maskUnits="userSpaceOnUse" x="33" y="28" width="31" height="31">
<path fill-rule="evenodd" clip-rule="evenodd" d="M40.6146 56.3135L41.1587 56.6362C43.446 57.9929 46.0678 58.7107 48.7411 58.7118H48.7471C56.9583 58.7118 63.6413 52.0319 63.6446 43.8215C63.6461 39.8429 62.0981 36.1018 59.2854 33.2873C56.4726 30.4727 52.7322 28.9217 48.7531 28.9204C40.5356 28.9204 33.8525 35.5996 33.8492 43.8094C33.8481 46.623 34.6357 49.3631 36.127 51.7337L36.4812 52.2972L34.9762 57.7918L40.6146 56.3135ZM57.777 48.0827C57.6651 47.8958 57.3666 47.7839 56.9187 47.5598C56.4709 47.3357 54.269 46.2528 53.8585 46.1033C53.448 45.9541 53.1494 45.8795 52.8509 46.3274C52.5524 46.7755 51.6941 47.7839 51.4327 48.0827C51.1715 48.3814 50.9103 48.4188 50.4625 48.1947C50.0147 47.9707 48.5716 47.4979 46.861 45.9729C45.5295 44.7859 44.6307 43.3201 44.3695 42.872C44.1083 42.4239 44.3416 42.1815 44.5658 41.9584C44.7673 41.7578 45.0137 41.4355 45.2377 41.1741C45.4616 40.9128 45.5362 40.726 45.6855 40.4274C45.8348 40.1286 45.7601 39.8673 45.6482 39.6432C45.5362 39.419 44.6406 37.2157 44.2674 36.3194C43.9038 35.4466 43.5345 35.5648 43.2596 35.551C42.9987 35.538 42.6999 35.5352 42.4014 35.5352C42.1028 35.5352 41.6176 35.6472 41.207 36.0954C40.7965 36.5435 39.6396 37.6265 39.6396 39.8297C39.6396 42.0331 41.2444 44.1615 41.4683 44.4603C41.6922 44.7592 44.6263 49.2803 49.1189 51.2194C50.1874 51.6807 51.0217 51.956 51.6721 52.1624C52.745 52.5031 53.7212 52.455 54.493 52.3397C55.3534 52.2112 57.1427 51.2568 57.5158 50.2114C57.889 49.1655 57.889 48.2693 57.777 48.0827Z" fill="black"/>
</mask>
<g mask="url(#mask0_20_80)">
<path d="M73.3599 19H23V69.36H73.3599V19Z" fill="url(#paint0_linear_20_80)"/>
</g>
<defs>
<linearGradient id="paint0_linear_20_80" x1="48.18" y1="69.36" x2="48.18" y2="19" gradientUnits="userSpaceOnUse">
<stop stop-color="#25CF43"/>
<stop offset="1" stop-color="#61FD7D"/>
</linearGradient>
</defs>
</svg>
