<svg width="594" height="171" viewBox="0 0 594 171" fill="none" xmlns="http://www.w3.org/2000/svg">
<path d="M432.312 28.272C436.579 28.272 440.12 29.9147 442.936 33.2C445.795 36.4427 447.224 40.4107 447.224 45.104V56.368C447.224 57.3493 447.181 58.096 447.096 58.608C447.053 59.0773 446.883 59.6107 446.584 60.208C445.987 61.36 444.323 61.936 441.592 61.936C438.563 61.936 436.813 61.1467 436.344 59.568C436.088 58.8427 435.96 57.7547 435.96 56.304V45.04C435.96 43.2907 435.448 41.9253 434.424 40.944C433.443 39.9627 432.099 39.472 430.392 39.472C428.728 39.472 427.363 39.984 426.296 41.008C425.272 42.032 424.76 43.376 424.76 45.04V56.368C424.76 57.3493 424.717 58.096 424.632 58.608C424.589 59.0773 424.397 59.6107 424.056 60.208C423.501 61.36 421.859 61.936 419.128 61.936C416.44 61.936 414.797 61.36 414.2 60.208C413.901 59.568 413.709 59.0133 413.624 58.544C413.581 58.032 413.56 57.2853 413.56 56.304V33.648C413.56 32.7093 413.581 32.0053 413.624 31.536C413.709 31.024 413.923 30.4693 414.264 29.872C414.861 28.8053 416.504 28.272 419.192 28.272C421.795 28.272 423.395 28.7627 423.992 29.744C424.419 30.4693 424.632 31.344 424.632 32.368C424.803 32.0693 425.187 31.6427 425.784 31.088C426.381 30.5333 426.957 30.0853 427.512 29.744C428.963 28.7627 430.563 28.272 432.312 28.272Z" fill="white"/>
<path d="M412.072 43.136C412.072 45.7387 411.411 47.68 410.088 48.96C408.808 50.1973 407.379 50.816 405.8 50.816H390.632C390.632 52.0107 391.336 53.0133 392.744 53.824C394.152 54.6347 395.56 55.04 396.968 55.04C399.443 55.04 401.384 54.784 402.792 54.272L403.496 54.016C404.52 53.5467 405.373 53.312 406.056 53.312C407.421 53.312 408.595 54.272 409.576 56.192C410.131 57.344 410.408 58.3253 410.408 59.136C410.408 62.9333 405.864 64.832 396.776 64.832C393.619 64.832 390.803 64.2987 388.328 63.232C385.896 62.1227 383.997 60.672 382.632 58.88C379.944 55.424 378.6 51.5627 378.6 47.296C378.6 41.92 380.328 37.632 383.784 34.432C387.283 31.1893 391.635 29.568 396.84 29.568C402.771 29.568 407.123 31.6587 409.896 35.84C411.347 38.0587 412.072 40.4907 412.072 43.136ZM398.568 44.992C400.189 44.992 401 44.3093 401 42.944C401 41.9627 400.616 41.1733 399.848 40.576C399.123 39.9787 398.056 39.68 396.648 39.68C395.283 39.68 393.917 40.256 392.552 41.408C391.187 42.5173 390.504 43.712 390.504 44.992H398.568Z" fill="white"/>
<path d="M368.451 41.1789C371.17 43.9827 372.66 47.2361 372.918 50.939C373.131 55.2013 371.913 58.8792 369.263 61.9729C366.654 65.021 363.327 66.6865 359.283 66.9692L342.492 68.1434C339.513 68.3517 337.711 67.665 337.088 66.0834C336.782 65.3777 336.577 64.28 336.472 62.7903L333.995 27.3568C333.923 26.3353 333.892 25.589 333.902 25.1178C333.955 24.6436 334.129 24.0754 334.425 23.4132C334.94 22.2223 336.56 21.5317 339.284 21.3412L355.373 20.2161C359.288 19.9423 362.661 21.0752 365.49 23.6146C368.45 26.1878 370.066 29.4109 370.337 33.2841C370.533 36.0933 369.904 38.7249 368.451 41.1789ZM361.573 51.0908C361.502 50.0693 361.318 49.2695 361.021 48.6915C360.766 48.1105 360.353 47.7117 359.782 47.495C358.907 47.214 357.704 47.1271 356.171 47.2343C354.639 47.3414 353.469 47.1238 352.661 46.5815C351.853 46.0392 351.385 44.853 351.258 43.0228C351.127 41.15 351.423 39.8889 352.148 39.2394C352.915 38.587 354.213 38.1968 356.044 38.0688C357.746 37.9498 358.736 37.4314 359.014 36.5138C359.109 36.0367 359.12 35.2661 359.045 34.202C358.971 33.138 358.557 32.4184 357.804 32.0434C357.093 31.6654 356.035 31.5255 354.631 31.6237L345.692 32.2487L347.384 56.4456L357.855 55.7135C360.536 55.526 361.776 53.9851 361.573 51.0908Z" fill="white"/>
<path d="M485.072 43.136C485.072 45.7387 484.411 47.68 483.088 48.96C481.808 50.1973 480.379 50.816 478.8 50.816H463.632C463.632 52.0107 464.336 53.0133 465.744 53.824C467.152 54.6347 468.56 55.04 469.968 55.04C472.443 55.04 474.384 54.784 475.792 54.272L476.496 54.016C477.52 53.5467 478.373 53.312 479.056 53.312C480.421 53.312 481.595 54.272 482.576 56.192C483.131 57.344 483.408 58.3253 483.408 59.136C483.408 62.9333 478.864 64.832 469.776 64.832C466.619 64.832 463.803 64.2987 461.328 63.232C458.896 62.1227 456.997 60.672 455.632 58.88C452.944 55.424 451.6 51.5627 451.6 47.296C451.6 41.92 453.328 37.632 456.784 34.432C460.283 31.1893 464.635 29.568 469.84 29.568C475.771 29.568 480.123 31.6587 482.896 35.84C484.347 38.0587 485.072 40.4907 485.072 43.136ZM471.568 44.992C473.189 44.992 474 44.3093 474 42.944C474 41.9627 473.616 41.1733 472.848 40.576C472.123 39.9787 471.056 39.68 469.648 39.68C468.283 39.68 466.917 40.256 465.552 41.408C464.187 42.5173 463.504 43.712 463.504 44.992H471.568Z" fill="white"/>
<path d="M509.612 31.8206C512.549 32.026 514.216 32.9552 514.614 34.6083C514.813 35.4348 514.866 36.5078 514.774 37.8273C514.682 39.1467 514.458 40.2004 514.104 40.9882C513.795 41.7365 513.33 42.2601 512.711 42.5589C511.781 43.0071 510.465 43.1717 508.763 43.0527L504.694 42.5116L503.498 59.6218C503.385 61.2392 503.087 62.4373 502.605 63.2163C502.168 63.9556 501.516 64.4232 500.646 64.6191C499.82 64.8179 498.747 64.8712 497.427 64.7789C496.108 64.6866 495.053 64.4846 494.262 64.1726C493.517 63.8211 492.995 63.3355 492.696 62.7158C492.4 62.0536 492.227 61.4641 492.178 60.9474C492.171 60.4337 492.202 59.6873 492.27 58.7084L493.453 41.7897L491.155 41.629C490.054 41.4665 489.285 41.156 488.846 40.6977C488.094 39.8324 487.799 38.2506 487.959 35.9522C488.203 32.4621 489.581 30.8048 492.092 30.9804L494.199 31.1277L494.436 27.744C494.665 24.4667 496.042 21.5904 498.568 19.1152C501.096 16.5974 504.574 15.4933 509 15.8029C509.979 15.8713 510.7 15.9645 511.162 16.0823C511.67 16.1606 512.231 16.3923 512.845 16.7775C513.956 17.4112 514.416 19.09 514.225 21.814C514.083 23.857 513.618 25.3001 512.832 26.1434C512.189 26.7827 511.225 27.1003 509.943 27.0961C509.56 27.0693 508.964 27.0277 508.155 26.9711C506.58 26.861 505.756 27.338 505.681 28.402L505.436 31.9135L509.612 31.8206Z" fill="white"/>
<path d="M517.812 38.9915C517.863 38.0115 517.923 37.2883 517.99 36.8218C518.102 36.315 518.324 35.7499 518.655 35.1264C519.31 34.0498 521.001 33.583 523.728 33.7259C525.773 33.8331 527.202 34.2712 528.017 35.0402C528.71 35.6747 529.045 36.6108 529.023 37.8487C529.043 38.277 529.032 38.8959 528.99 39.7055L527.818 62.0748C527.766 63.0548 527.684 63.7982 527.572 64.305C527.505 64.7715 527.285 65.3154 526.91 65.9366C526.298 67.0154 524.629 67.4833 521.902 67.3404C519.218 67.1997 517.607 66.5386 517.071 65.3569C516.806 64.7021 516.644 64.1382 516.583 63.665C516.565 63.1941 516.583 62.4473 516.636 61.4247L517.812 38.9915ZM528.913 27.7171C528.584 28.2979 528.007 28.695 527.184 28.9082C526.361 29.1214 525.268 29.1923 523.905 29.1209C522.584 29.0516 521.525 28.868 520.729 28.5699C519.933 28.2718 519.381 27.7943 519.074 27.1373C518.809 26.4826 518.647 25.9186 518.586 25.4455C518.57 24.9319 518.588 24.1852 518.639 23.2052C518.691 22.2252 518.75 21.502 518.817 21.0355C518.929 20.5287 519.15 19.9848 519.479 19.4039C520.136 18.2848 521.828 17.7967 524.555 17.9396C527.239 18.0802 528.828 18.7403 529.322 19.9198C529.629 20.5767 529.791 21.162 529.807 21.6755C529.867 22.1487 529.872 22.8753 529.821 23.8553C529.769 24.8352 529.687 25.5787 529.575 26.0855C529.508 26.5519 529.288 27.0958 528.913 27.7171Z" fill="white"/>
<path d="M551.953 48.5235L547.855 47.7625L546.779 56.5286C546.638 57.672 546.706 58.5186 546.983 59.0684C547.301 59.6234 547.948 59.9607 548.922 60.0803C549.938 60.2051 550.695 60.341 551.193 60.4881C551.738 60.5981 552.287 60.8588 552.838 61.2704C553.744 61.9405 554.057 63.419 553.776 65.7058C553.449 68.3738 552.656 69.9314 551.397 70.3787C550.725 70.5972 550.13 70.7175 549.612 70.7398C549.141 70.725 548.439 70.6604 547.508 70.546C543.103 70.0052 539.88 68.5992 537.838 66.328C535.795 64.0569 535.065 60.5498 535.648 55.8067L536.802 46.4053C535.982 46.4336 535.106 46.3905 534.174 46.2761C533.242 46.1617 532.503 45.7055 531.956 44.9076C531.452 44.1149 531.306 42.8504 531.519 41.1141C531.733 39.3778 531.992 38.1415 532.297 37.4052C532.608 36.6266 532.974 36.0913 533.397 35.7993C534.142 35.332 535.023 35.1607 536.039 35.2855L538.104 35.797L538.908 29.2541C539.027 28.2801 539.137 27.5628 539.237 27.1021C539.378 26.6467 539.653 26.1645 540.059 25.6556C540.739 24.6645 542.435 24.3353 545.145 24.6681C548.025 25.0217 549.644 26.0157 550.002 27.6502C550.131 28.3538 550.104 29.4467 549.922 30.9289L549.157 37.1541C551.042 37.2135 552.45 37.3004 553.381 37.4148C554.355 37.5344 555.07 37.6651 555.525 37.807C556.028 37.9118 556.577 38.1726 557.17 38.5893C558.204 39.2751 558.554 40.9731 558.221 43.6834C557.894 46.3514 557.122 47.9116 555.906 48.3641C555.234 48.5825 554.639 48.7029 554.12 48.7252C553.649 48.7103 552.927 48.6431 551.953 48.5235Z" fill="white"/>
<path d="M557.417 68.2324C556.675 67.6254 556.371 66.7714 556.507 65.6703C556.642 64.5693 557.652 62.9953 559.537 60.9484C560.091 60.2857 560.876 60.0167 561.893 60.1415C562.951 60.2715 564.305 60.975 565.954 62.2521C567.608 63.4869 569.154 64.1927 570.594 64.3695C573.177 64.6866 574.532 64.3371 574.656 63.3207C574.755 62.5161 573.409 61.749 570.619 61.0195C567.997 60.3107 565.473 58.9906 563.045 57.0589C561.91 56.1459 561.04 54.8353 560.433 53.1273C559.831 51.3769 559.668 49.3794 559.943 47.135C560.765 40.4439 565.77 37.6625 574.96 38.7909C577.967 39.16 580.97 40.2595 583.969 42.0894C585.368 42.949 586.005 43.8869 585.88 44.9033C585.756 45.9197 585.136 47.1117 584.023 48.4796C582.909 49.8474 581.865 50.4715 580.891 50.3519C580.383 50.2895 579.469 49.8549 578.15 49.048C576.873 48.2464 575.429 47.7468 573.82 47.5492C571.322 47.2424 570.015 47.5549 569.901 48.4866C569.745 49.757 571.083 50.7596 573.916 51.4943C576.675 52.1339 579.286 53.2714 581.751 54.9065C582.906 55.6502 583.795 56.8126 584.418 58.3936C585.088 59.9374 585.288 61.8104 585.017 64.0125C584.747 66.2147 584.092 68.0472 583.053 69.5101C582.061 70.9358 580.777 71.9388 579.201 72.5191C576.33 73.4992 572.84 73.737 568.732 73.2326C564.667 72.7334 560.895 71.0667 557.417 68.2324Z" fill="white"/>
<path d="M7.1032 126.76C7.99228 121.717 10.4905 117.869 14.598 115.214C18.7055 112.559 23.0282 111.631 27.5662 112.431C32.1042 113.231 35.828 115.578 38.7376 119.47C41.6546 123.321 42.6686 127.767 41.7796 132.809C41.1646 136.297 39.7129 139.247 37.4246 141.659C35.1436 144.03 32.5857 145.637 29.7509 146.48C26.9655 147.289 24.1862 147.448 21.413 146.959C18.6397 146.47 16.0691 145.324 13.701 143.52C11.3404 141.674 9.49005 139.268 8.15002 136.302C6.85942 133.302 6.51048 130.121 7.1032 126.76ZM19.4758 133.62C20.6426 134.866 21.9193 135.611 23.3059 135.855C24.6925 136.1 26.1717 135.819 27.7436 135.013C29.3154 134.207 30.2828 132.775 30.6459 130.716C31.0089 128.657 30.6281 127.008 29.5033 125.77C28.3785 124.532 27.0598 123.78 25.5472 123.513C24.0345 123.246 22.5343 123.523 21.0465 124.344C19.5587 125.165 18.6333 126.605 18.2702 128.664C17.9146 130.681 18.3165 132.333 19.4758 133.62Z" fill="white"/>
<path d="M66.076 116.449C68.9913 116.859 70.5897 117.902 70.8711 119.579C71.0118 120.418 70.9901 121.492 70.806 122.802C70.6219 124.111 70.3256 125.147 69.917 125.908C69.5566 126.633 69.0569 127.123 68.4179 127.378C67.4593 127.76 66.135 127.832 64.445 127.595L60.4245 126.771L58.0374 143.756C57.8117 145.362 57.4312 146.536 56.8959 147.28C56.4087 147.987 55.7248 148.408 54.8442 148.543C54.0058 148.683 52.9317 148.662 51.6219 148.478C50.3121 148.293 49.2736 148.018 48.5065 147.652C47.7875 147.249 47.3006 146.728 47.0457 146.089C46.7968 145.408 46.6657 144.808 46.6524 144.289C46.6814 143.776 46.7642 143.034 46.9008 142.062L49.2612 125.267L46.9796 124.946C45.8929 124.708 45.1469 124.344 44.7415 123.856C44.0516 122.941 43.8669 121.342 44.1876 119.061C44.6745 115.596 46.1644 114.039 48.6572 114.389L50.7487 114.683L51.2207 111.324C51.678 108.071 53.2526 105.298 55.9446 103.005C58.6425 100.669 62.1885 99.8105 66.5827 100.428C67.5545 100.565 68.2668 100.708 68.7197 100.858C69.2208 100.971 69.7644 101.241 70.3507 101.669C71.4143 102.378 71.7561 104.085 71.376 106.789C71.091 108.817 70.527 110.224 69.684 111.011C68.9975 111.604 68.0145 111.853 66.7351 111.76C66.3549 111.706 65.7633 111.623 64.9606 111.51C63.3973 111.29 62.5414 111.709 62.3929 112.765L61.903 116.251L66.076 116.449Z" fill="white"/>
<path d="M111.008 125.711H122.272C124.576 125.796 125.984 126.393 126.496 127.503C126.923 128.313 127.136 129.508 127.136 131.087V145.167C127.136 146.532 126.539 147.833 125.344 149.071C121.76 152.783 116.384 154.639 109.216 154.639C102.859 154.639 97.3333 152.249 92.64 147.471C87.9467 142.649 85.6 136.847 85.6 130.063C85.6 123.279 87.9893 117.625 92.768 113.103C97.5467 108.537 103.179 106.255 109.664 106.255C114.699 106.255 119.456 107.919 123.936 111.247C125.088 112.1 125.664 113.06 125.664 114.127C125.664 115.151 125.173 116.345 124.192 117.711C122.528 119.972 121.013 121.103 119.648 121.103C118.837 121.103 117.536 120.527 115.744 119.375C113.952 118.18 111.819 117.583 109.344 117.583C106.101 117.583 103.221 118.735 100.704 121.039C98.1867 123.3 96.928 126.287 96.928 129.999C96.928 133.668 98.208 136.804 100.768 139.407C103.328 141.967 106.229 143.247 109.472 143.247C111.819 143.247 113.931 142.863 115.808 142.095V135.119H110.752C109.429 135.119 108.491 134.948 107.936 134.607C107.381 134.265 107.019 133.775 106.848 133.135C106.677 132.452 106.592 131.556 106.592 130.447C106.592 129.295 106.677 128.377 106.848 127.695C107.061 127.012 107.424 126.543 107.936 126.287C108.704 125.903 109.728 125.711 111.008 125.711Z" fill="white"/>
<path d="M154.689 120.353C155.504 120.595 156.173 121.031 156.696 121.662C157.261 122.25 157.555 123.226 157.579 124.591C157.603 125.957 157.224 127.457 156.441 129.092C155.659 130.727 154.5 131.558 152.964 131.585C152.197 131.598 151.447 131.441 150.716 131.112C150.027 130.783 149.107 130.628 147.955 130.648C146.804 130.668 145.723 131.093 144.713 131.921C143.746 132.749 143.273 133.739 143.293 134.89L143.527 148.328C143.544 149.31 143.515 150.057 143.438 150.57C143.404 151.04 143.222 151.598 142.891 152.244C142.271 153.364 140.617 153.948 137.929 153.995C135.882 154.031 134.403 153.694 133.495 152.984C132.802 152.399 132.402 151.488 132.295 150.253C132.288 149.826 132.277 149.207 132.263 148.397L131.871 125.936C131.854 124.955 131.862 124.23 131.897 123.76C131.973 123.246 132.155 122.688 132.444 122.086C133.021 120.924 134.674 120.319 137.405 120.271C139.964 120.226 141.573 120.689 142.23 121.659C142.711 122.333 142.958 123.033 142.97 123.758C143.178 123.456 143.471 123.088 143.847 122.655C144.266 122.221 145.131 121.63 146.441 120.881C147.75 120.133 148.896 119.75 149.877 119.733C150.901 119.715 151.755 119.764 152.44 119.88C153.124 119.954 153.874 120.111 154.689 120.353Z" fill="white"/>
<path d="M179.13 120.616C179.009 118.216 180.487 116.772 183.563 116.285C185.207 116.025 186.449 115.958 187.29 116.084C188.131 116.21 188.749 116.566 189.144 117.151C189.581 117.73 189.861 118.269 189.983 118.768C190.141 119.218 190.296 119.928 190.45 120.897L193.954 143.021C194.107 143.99 194.182 144.734 194.178 145.253C194.209 145.724 194.127 146.298 193.932 146.977C193.516 148.166 192.149 148.944 189.831 149.311C187.555 149.672 185.974 149.641 185.086 149.22C184.234 148.751 183.658 147.978 183.359 146.902C182.153 149.383 179.717 150.913 176.051 151.494C172.427 152.068 168.792 150.937 165.146 148.102C161.5 145.267 159.33 141.658 158.636 137.275C157.935 132.85 158.884 128.747 161.482 124.966C164.115 121.137 167.307 118.925 171.057 118.331C172.49 118.104 173.837 118.15 175.097 118.469C176.357 118.787 177.255 119.142 177.792 119.532C178.323 119.88 178.769 120.241 179.13 120.616ZM169.708 135.586C169.929 136.977 170.677 138.154 171.952 139.119C173.222 140.041 174.636 140.378 176.195 140.131C177.754 139.885 178.95 139.112 179.781 137.814C180.654 136.509 180.984 135.183 180.77 133.834C180.55 132.444 179.841 131.238 178.643 130.219C177.486 129.192 176.066 128.812 174.38 129.079C172.736 129.34 171.481 130.143 170.615 131.49C169.79 132.83 169.488 134.196 169.708 135.586Z" fill="white"/>
<path d="M214.472 118.69C218.686 118.022 222.441 119.091 225.736 121.895C229.067 124.651 231.1 128.346 231.834 132.982L233.596 144.107C233.749 145.076 233.824 145.821 233.82 146.34C233.851 146.81 233.766 147.363 233.565 148C233.155 149.231 231.601 150.06 228.904 150.488C225.912 150.962 224.061 150.456 223.35 148.97C222.984 148.293 222.688 147.239 222.461 145.806L220.699 134.681C220.425 132.953 219.706 131.684 218.541 130.875C217.418 130.06 216.014 129.785 214.328 130.052C212.685 130.313 211.416 131.032 210.523 132.21C209.672 133.382 209.376 134.789 209.636 136.433L211.408 147.621C211.562 148.591 211.637 149.335 211.632 149.854C211.664 150.324 211.558 150.881 211.314 151.524C210.946 152.749 209.414 153.575 206.717 154.002C204.062 154.422 202.349 154.11 201.579 153.066C201.184 152.481 200.908 151.963 200.75 151.513C200.628 151.014 200.49 150.279 200.336 149.31L196.792 126.933C196.645 126.006 196.556 125.307 196.525 124.837C196.529 124.318 196.653 123.737 196.897 123.093C197.32 121.946 198.859 121.163 201.514 120.742C204.084 120.335 205.742 120.569 206.485 121.445C207.02 122.095 207.367 122.925 207.528 123.937C207.649 123.615 207.962 123.134 208.465 122.492C208.968 121.851 209.467 121.318 209.962 120.895C211.241 119.698 212.745 118.963 214.472 118.69Z" fill="white"/>
<path d="M253.472 118.69C257.686 118.022 261.441 119.091 264.736 121.895C268.067 124.651 270.1 128.346 270.834 132.982L272.596 144.107C272.749 145.076 272.824 145.82 272.82 146.339C272.851 146.81 272.766 147.363 272.565 148C272.155 149.231 270.601 150.06 267.904 150.487C264.912 150.961 263.061 150.455 262.35 148.97C261.984 148.293 261.688 147.239 261.461 145.806L259.699 134.68C259.425 132.953 258.706 131.684 257.541 130.875C256.418 130.059 255.014 129.785 253.328 130.052C251.685 130.312 250.416 131.032 249.523 132.21C248.672 133.381 248.376 134.789 248.636 136.433L250.408 147.621C250.562 148.59 250.637 149.334 250.632 149.854C250.664 150.324 250.558 150.881 250.314 151.524C249.946 152.749 248.414 153.574 245.717 154.002C243.062 154.422 241.349 154.11 240.579 153.066C240.184 152.48 239.908 151.963 239.75 151.512C239.628 151.013 239.49 150.279 239.336 149.31L235.792 126.933C235.645 126.006 235.556 125.307 235.525 124.837C235.529 124.318 235.653 123.737 235.897 123.093C236.32 121.946 237.859 121.163 240.514 120.742C243.084 120.335 244.742 120.569 245.485 121.445C246.02 122.095 246.367 122.925 246.528 123.937C246.649 123.615 246.962 123.133 247.465 122.492C247.968 121.851 248.467 121.318 248.962 120.894C250.241 119.698 251.745 118.963 253.472 118.69Z" fill="white"/>
<path d="M302.985 115.097C305.645 115.798 307.098 116.929 307.345 118.488C307.466 119.247 307.41 119.99 307.18 120.718C306.95 121.445 306.838 121.83 306.845 121.872L296.15 161.538C295.94 162.392 295.741 163.049 295.555 163.511C295.411 163.966 295.117 164.423 294.671 164.882C294.225 165.341 293.623 165.631 292.865 165.751C292.106 165.872 290.939 165.732 289.364 165.334C286.704 164.632 285.254 163.522 285.014 162.005C284.854 160.994 286.112 155.848 288.79 146.569L272.857 127.385C271.793 126.128 271.209 125.162 271.102 124.488C270.888 123.139 271.812 121.611 273.874 119.902C275.174 118.832 276.224 118.234 277.024 118.107C277.825 117.98 278.505 118.045 279.064 118.302C279.623 118.559 280.038 118.861 280.309 119.206C280.615 119.504 282.084 121.28 284.717 124.535C287.384 127.741 289.91 130.732 292.294 133.508C292.398 132.8 293.125 130.028 294.476 125.192C295.82 120.314 296.532 117.717 296.611 117.402C296.733 117.08 296.929 116.682 297.2 116.207C297.634 115.404 298.336 114.926 299.305 114.772C300.317 114.612 301.543 114.72 302.985 115.097ZM318.046 100.335C318.876 100.938 319.428 102.103 319.702 103.831L319.862 104.842C320.029 105.896 320.11 106.682 320.106 107.201C320.398 110.956 319.806 114.311 318.331 117.267C316.855 120.222 314.663 121.93 311.755 122.39C311.46 122.437 311.153 122.27 310.833 121.888C310.549 121.458 310.35 120.885 310.237 120.169C310.123 119.452 310.121 118.891 310.229 118.485C310.373 118.03 310.547 117.765 310.751 117.69C310.991 117.565 311.174 117.493 311.3 117.473C311.42 117.411 311.635 117.269 311.946 117.047C312.249 116.783 312.501 116.462 312.7 116.085C313.235 115.093 313.397 113.663 313.187 111.796C311.721 111.812 310.573 111.519 309.743 110.916C308.956 110.306 308.378 108.843 308.011 106.525C307.744 104.839 307.758 103.563 308.053 102.695C308.34 101.786 308.886 101.138 309.689 100.751C310.527 100.316 311.852 99.9551 313.664 99.668C315.476 99.381 316.937 99.6033 318.046 100.335Z" fill="white"/>
<path d="M323.01 147.925C322.129 147.546 321.602 146.809 321.428 145.713C321.255 144.617 321.792 142.826 323.039 140.339C323.389 139.549 324.07 139.074 325.082 138.914C326.135 138.747 327.63 139.05 329.567 139.823C331.497 140.554 333.179 140.806 334.611 140.579C337.182 140.172 338.387 139.463 338.227 138.452C338.1 137.651 336.595 137.285 333.712 137.352C330.997 137.394 328.206 136.821 325.34 135.633C323.997 135.068 322.799 134.048 321.745 132.574C320.684 131.057 319.976 129.182 319.623 126.948C318.568 120.29 322.613 116.237 331.758 114.788C334.75 114.314 337.94 114.544 341.327 115.476C342.909 115.916 343.78 116.643 343.94 117.654C344.1 118.665 343.834 119.982 343.14 121.604C342.447 123.225 341.615 124.113 340.646 124.267C340.14 124.347 339.142 124.181 337.651 123.769C336.203 123.35 334.678 123.268 333.076 123.522C330.59 123.915 329.42 124.576 329.567 125.503C329.767 126.767 331.33 127.362 334.256 127.287C337.084 127.142 339.908 127.515 342.727 128.408C344.043 128.804 345.218 129.677 346.252 131.025C347.322 132.324 348.03 134.069 348.377 136.261C348.724 138.452 348.6 140.394 348.004 142.087C347.444 143.731 346.486 145.049 345.131 146.041C342.641 147.775 339.352 148.965 335.265 149.612C331.219 150.253 327.134 149.691 323.01 147.925Z" fill="white"/>
<path d="M357.172 94.0566L392.561 90.3371C393.919 90.1943 394.934 90.2593 395.606 90.5318C396.273 90.762 396.749 91.2053 397.033 91.862C397.316 92.5186 397.516 93.3985 397.632 94.5018C397.748 95.6051 397.735 96.5073 397.594 97.2085C397.449 97.8673 397.135 98.3508 396.653 98.6589C395.929 99.1211 394.867 99.4257 393.467 99.5729L381.31 100.851L384.675 132.866C384.778 133.842 384.811 134.568 384.775 135.044C384.782 135.515 384.649 136.087 384.376 136.759C384.142 137.384 383.635 137.866 382.855 138.206C382.076 138.545 381.028 138.784 379.713 138.922C378.397 139.06 377.323 139.045 376.49 138.875C375.7 138.7 375.103 138.334 374.702 137.776C374.338 137.17 374.089 136.639 373.955 136.181C373.859 135.676 373.76 134.936 373.657 133.96L370.299 102.008L358.078 103.292C356.72 103.435 355.707 103.391 355.04 103.161C354.367 102.889 353.89 102.424 353.606 101.768C353.323 101.111 353.123 100.231 353.007 99.1277C352.891 98.0245 352.906 97.1434 353.051 96.4846C353.192 95.7834 353.503 95.2787 353.986 94.9706C354.709 94.5085 355.771 94.2038 357.172 94.0566Z" fill="white"/>
<path d="M422.591 102.431C423.382 102.743 424.01 103.236 424.476 103.91C424.988 104.545 425.196 105.543 425.101 106.905C425.005 108.267 424.497 109.729 423.575 111.29C422.653 112.85 421.426 113.577 419.894 113.47C419.128 113.417 418.395 113.194 417.695 112.803C417.038 112.415 416.135 112.181 414.986 112.1C413.837 112.02 412.723 112.348 411.645 113.086C410.609 113.826 410.051 114.771 409.971 115.92L409.034 129.327C408.965 130.306 408.87 131.048 408.75 131.553C408.674 132.018 408.444 132.558 408.059 133.173C407.343 134.235 405.644 134.672 402.963 134.484C400.92 134.341 399.477 133.877 398.634 133.091C397.994 132.447 397.675 131.505 397.676 130.265C397.706 129.84 397.749 129.222 397.806 128.414L399.373 106.004C399.441 105.025 399.513 104.303 399.589 103.838C399.709 103.333 399.94 102.793 400.279 102.218C400.955 101.111 402.656 100.652 405.38 100.843C407.933 101.021 409.495 101.623 410.065 102.646C410.486 103.36 410.671 104.079 410.62 104.802C410.854 104.519 411.177 104.178 411.59 103.779C412.045 103.383 412.958 102.87 414.328 102.238C415.698 101.607 416.873 101.326 417.851 101.394C418.873 101.466 419.72 101.589 420.392 101.764C421.067 101.897 421.8 102.119 422.591 102.431Z" fill="white"/>
<path d="M460.785 113.198C460.83 115.801 460.203 117.753 458.903 119.056C457.644 120.316 456.226 120.959 454.648 120.987L439.482 121.251C439.503 122.446 440.224 123.436 441.646 124.222C443.068 125.008 444.483 125.389 445.891 125.364C448.365 125.321 450.301 125.031 451.7 124.495L452.4 124.226C453.415 123.739 454.265 123.49 454.947 123.478C456.312 123.454 457.502 124.393 458.517 126.296C459.092 127.438 459.386 128.414 459.4 129.225C459.466 133.022 454.956 134.999 445.87 135.158C442.713 135.213 439.888 134.729 437.395 133.706C434.944 132.639 433.02 131.222 431.624 129.454C428.876 126.045 427.465 122.208 427.39 117.942C427.296 112.567 428.949 108.249 432.349 104.989C435.791 101.686 440.114 99.9891 445.318 99.8982C451.248 99.7947 455.636 101.809 458.482 105.941C459.971 108.134 460.738 110.553 460.785 113.198ZM447.315 115.29C448.936 115.261 449.735 114.565 449.711 113.2C449.694 112.218 449.296 111.436 448.518 110.852C447.782 110.267 446.71 109.987 445.303 110.012C443.937 110.036 442.582 110.636 441.237 111.811C439.892 112.944 439.23 114.151 439.252 115.43L447.315 115.29Z" fill="white"/>
<path d="M485.616 105.28C485.789 102.883 487.431 101.631 490.544 101.522C492.207 101.464 493.448 101.549 494.267 101.776C495.086 102.004 495.656 102.432 495.977 103.061C496.34 103.689 496.552 104.258 496.613 104.768C496.715 105.234 496.783 105.958 496.817 106.938L497.599 129.325C497.633 130.305 497.616 131.053 497.549 131.568C497.523 132.038 497.371 132.599 497.095 133.249C496.537 134.378 495.085 134.984 492.74 135.066C490.437 135.146 488.871 134.923 488.042 134.397C487.253 133.827 486.776 132.99 486.609 131.886C485.11 134.201 482.506 135.423 478.796 135.553C475.129 135.681 471.659 134.116 468.386 130.857C465.113 127.599 463.399 123.752 463.244 119.318C463.088 114.84 464.53 110.884 467.569 107.447C470.649 103.967 474.087 102.161 477.882 102.028C479.332 101.978 480.663 102.187 481.874 102.657C483.086 103.127 483.935 103.589 484.42 104.041C484.904 104.451 485.303 104.864 485.616 105.28ZM474.44 118.991C474.489 120.398 475.088 121.658 476.237 122.77C477.384 123.84 478.747 124.348 480.324 124.293C481.902 124.237 483.183 123.616 484.166 122.429C485.192 121.241 485.681 119.964 485.633 118.6C485.584 117.193 485.027 115.91 483.962 114.752C482.939 113.592 481.575 113.042 479.87 113.102C478.207 113.16 476.863 113.804 475.839 115.035C474.857 116.265 474.391 117.584 474.44 118.991Z" fill="white"/>
<path d="M520.302 113.844L516.25 112.869L514.716 121.567C514.516 122.701 514.54 123.55 514.787 124.114C515.076 124.685 515.704 125.056 516.671 125.226C517.679 125.404 518.428 125.579 518.917 125.752C519.456 125.89 519.99 126.18 520.519 126.619C521.389 127.336 521.624 128.829 521.224 131.098C520.757 133.745 519.884 135.259 518.604 135.64C517.921 135.823 517.321 135.912 516.802 135.907C516.332 135.868 515.635 135.766 514.711 135.603C510.341 134.833 507.195 133.26 505.275 130.885C503.354 128.51 502.808 124.97 503.638 120.264L505.283 110.935C504.462 110.921 503.59 110.832 502.666 110.669C501.741 110.506 501.027 110.012 500.522 109.186C500.06 108.368 499.981 107.098 500.285 105.375C500.588 103.652 500.912 102.431 501.256 101.712C501.606 100.951 502.001 100.435 502.438 100.166C503.207 99.7381 504.095 99.6131 505.104 99.7909L507.139 100.41L508.284 93.9179C508.454 92.9515 508.601 92.2409 508.725 91.7861C508.89 91.3387 509.189 90.8715 509.622 90.3846C510.353 89.4304 512.063 89.1905 514.753 89.6646C517.61 90.1684 519.174 91.2458 519.447 92.8968C519.538 93.6062 519.454 94.6962 519.195 96.1668L518.106 102.344C519.984 102.501 521.386 102.662 522.31 102.825C523.277 102.995 523.983 103.163 524.431 103.329C524.928 103.46 525.462 103.749 526.033 104.196C527.029 104.935 527.29 106.649 526.816 109.338C526.349 111.985 525.496 113.503 524.258 113.891C523.576 114.074 522.975 114.163 522.456 114.158C521.987 114.119 521.269 114.014 520.302 113.844Z" fill="white"/>
<path d="M98.3363 30.1655L110.173 30.4361C116.359 30.5441 121.759 32.8787 126.374 37.4399C130.989 41.9585 133.239 47.4813 133.125 54.0083C133.012 60.4926 130.611 66.0196 125.923 70.5891C121.277 75.1594 115.691 77.3876 109.164 77.2736L97.4536 77.0692C94.8513 77.0238 93.2395 76.4623 92.6182 75.3846C92.122 74.4798 91.8898 73.1102 91.9218 71.2758L92.5429 35.6972C92.5607 34.6734 92.5951 33.9272 92.6459 33.4587C92.7395 32.9909 92.9624 32.4401 93.3149 31.8061C93.9322 30.6647 95.606 30.1178 98.3363 30.1655ZM109.553 65.9507C112.625 66.0043 115.418 64.9222 117.931 62.7044C120.446 60.444 121.733 57.586 121.794 54.1305C121.854 50.6751 120.688 47.7743 118.297 45.4282C115.949 43.0402 113.154 41.8179 109.912 41.7613L103.769 41.654L103.346 65.8424L109.553 65.9507Z" fill="white"/>
<path d="M155.209 44.589C156.032 44.8022 156.716 45.215 157.26 45.8273C157.846 46.3948 158.174 47.3603 158.245 48.7237C158.317 50.0872 157.99 51.5997 157.265 53.2612C156.541 54.9228 155.411 55.7937 153.878 55.8741C153.111 55.9143 152.356 55.783 151.614 55.4801C150.914 55.1749 149.989 55.0525 148.839 55.1128C147.688 55.1731 146.623 55.6348 145.643 56.4979C144.705 57.3589 144.267 58.3645 144.327 59.5149L145.03 72.9365C145.082 73.9165 145.078 74.6644 145.02 75.1802C145.002 75.6511 144.839 76.215 144.532 76.872C143.951 78.0133 142.318 78.6543 139.634 78.795C137.588 78.9022 136.1 78.6171 135.167 77.9396C134.454 77.3788 134.022 76.4828 133.872 75.2517C133.85 74.8256 133.818 74.2078 133.775 73.3982L132.6 50.965C132.548 49.985 132.531 49.2596 132.55 48.7886C132.608 48.2729 132.771 47.7089 133.038 47.0968C133.574 45.9151 135.205 45.2528 137.932 45.1099C140.489 44.9759 142.112 45.3822 142.803 46.3286C143.307 46.9858 143.578 47.6766 143.616 48.4009C143.814 48.0915 144.093 47.7137 144.454 47.2675C144.858 46.8191 145.701 46.1981 146.984 45.4045C148.267 44.611 149.399 44.1885 150.379 44.1372C151.401 44.0836 152.257 44.1028 152.945 44.1949C153.631 44.2444 154.386 44.3758 155.209 44.589Z" fill="white"/>
<path d="M193.06 57.2254C193.06 59.828 192.399 61.7694 191.076 63.0494C189.796 64.2867 188.367 64.9054 186.788 64.9054H171.62C171.62 66.1 172.324 67.1027 173.732 67.9134C175.14 68.724 176.548 69.1294 177.956 69.1294C180.431 69.1294 182.372 68.8734 183.78 68.3614L184.484 68.1054C185.508 67.636 186.361 67.4014 187.044 67.4014C188.409 67.4014 189.583 68.3614 190.564 70.2814C191.119 71.4334 191.396 72.4147 191.396 73.2254C191.396 77.0227 186.852 78.9214 177.764 78.9214C174.607 78.9214 171.791 78.388 169.316 77.3214C166.884 76.212 164.985 74.7614 163.62 72.9694C160.932 69.5134 159.588 65.652 159.588 61.3854C159.588 56.0094 161.316 51.7214 164.772 48.5214C168.271 45.2787 172.623 43.6574 177.828 43.6574C183.759 43.6574 188.111 45.748 190.884 49.9294C192.335 52.148 193.06 54.58 193.06 57.2254ZM179.556 59.0814C181.177 59.0814 181.988 58.3987 181.988 57.0334C181.988 56.052 181.604 55.2627 180.836 54.6654C180.111 54.068 179.044 53.7694 177.636 53.7694C176.271 53.7694 174.905 54.3454 173.54 55.4974C172.175 56.6067 171.492 57.8014 171.492 59.0814H179.556Z" fill="white"/>
<path d="M217.082 45.5738C217.212 43.1744 218.833 41.8932 221.943 41.7301C223.605 41.6431 224.847 41.7061 225.67 41.9193C226.493 42.1326 227.071 42.5509 227.402 43.1744C227.777 43.7957 227.999 44.3608 228.068 44.8699C228.178 45.3341 228.258 46.0562 228.31 47.0362L229.482 69.4055C229.533 70.3855 229.53 71.1334 229.471 71.6492C229.453 72.1201 229.312 72.6829 229.047 73.3377C228.509 74.4767 227.068 75.1077 224.724 75.2305C222.423 75.3511 220.854 75.1556 220.015 74.6442C219.217 74.0878 218.725 73.2591 218.539 72.158C217.081 74.4989 214.498 75.7664 210.791 75.9607C207.127 76.1527 203.63 74.6484 200.301 71.4475C196.971 68.2467 195.191 64.4307 194.958 59.9995C194.724 55.5256 196.096 51.5443 199.075 48.0556C202.094 44.5221 205.5 42.656 209.292 42.4573C210.741 42.3813 212.075 42.5678 213.295 43.0165C214.515 43.4653 215.371 43.9118 215.864 44.3559C216.355 44.7574 216.761 45.1634 217.082 45.5738ZM206.146 59.4772C206.22 60.8833 206.841 62.1325 208.009 63.2249C209.175 64.2746 210.546 64.7582 212.123 64.6756C213.699 64.5929 214.969 63.9496 215.931 62.7456C216.936 61.5394 217.402 60.2545 217.331 58.891C217.257 57.485 216.678 56.2122 215.593 55.0728C214.55 53.9311 213.177 53.4049 211.473 53.4943C209.811 53.5813 208.479 54.2493 207.476 55.4982C206.516 56.7448 206.073 58.0711 206.146 59.4772Z" fill="white"/>
<path d="M244.264 47.038C246.108 43.9079 248.436 42.2691 251.248 42.1218C255.594 41.894 258.929 43.5778 261.254 47.173C261.689 46.5093 262.208 45.8199 262.812 45.1046C263.456 44.3446 264.481 43.5218 265.887 42.6363C267.291 41.7082 268.76 41.204 270.294 41.1236C273.702 40.945 276.626 42.1162 279.066 44.6373C281.503 47.1159 282.88 51.3803 283.197 57.4307L283.783 68.6153C283.834 69.5953 283.831 70.3432 283.772 70.8589C283.754 71.3299 283.592 71.8938 283.284 72.5508C282.791 73.7303 281.18 74.3914 278.453 74.5344C275.769 74.675 274.097 74.1645 273.438 73.0027C273.107 72.3792 272.886 71.8354 272.776 71.3711C272.707 70.8621 272.646 70.1176 272.595 69.1376L272.009 57.9529C271.815 54.246 270.397 52.4618 267.755 52.6002C266.264 52.6784 265.267 53.222 264.764 54.231C264.304 55.2378 264.121 56.6359 264.215 58.4255L264.801 69.6101C264.855 70.6327 264.851 71.3806 264.79 71.8537C264.772 72.3247 264.61 72.8886 264.302 73.5456C263.766 74.7273 262.134 75.3896 259.408 75.5325C256.723 75.6732 255.052 75.1626 254.393 74.0009C254.061 73.3774 253.84 72.8335 253.73 72.3693C253.661 71.8602 253.6 71.1157 253.549 70.1357L252.963 58.9511C252.769 55.2442 251.351 53.4599 248.709 53.5984C246.152 53.7323 244.971 55.6528 245.166 59.3597L245.758 70.6722C245.81 71.6522 245.806 72.4 245.748 72.9158C245.73 73.3867 245.567 73.9507 245.26 74.6077C244.679 75.749 243.046 76.39 240.362 76.5307C237.677 76.6713 236.007 76.1821 235.35 75.0629C235.018 74.4394 234.797 73.8956 234.688 73.4314C234.621 72.9649 234.56 72.2204 234.507 71.1978L233.328 48.7007C233.276 47.7207 233.26 46.9952 233.278 46.5243C233.336 46.0085 233.52 45.4435 233.83 44.8291C234.408 43.6452 235.891 42.9907 238.277 42.8656C240.663 42.7406 242.238 43.0426 243.003 43.7715C243.767 44.5005 244.188 45.5894 244.264 47.038Z" fill="white"/>
<path d="M314.373 31.8826C316.945 32.8586 318.272 34.1349 318.355 35.7114C318.395 36.4784 318.263 37.2116 317.958 37.9112C317.653 38.6108 317.501 38.9819 317.503 39.0245L302.721 77.3547C302.423 78.1821 302.157 78.8156 301.923 79.2551C301.733 79.6923 301.392 80.1161 300.901 80.5263C300.409 80.9366 299.78 81.1618 299.013 81.202C298.246 81.2422 297.101 80.9818 295.576 80.4209C293.004 79.4448 291.678 78.1898 291.597 76.6559C291.544 75.6333 293.333 70.6475 296.966 61.6985L283.125 40.9544C282.199 39.593 281.719 38.5714 281.683 37.8897C281.611 36.5262 282.69 35.1025 284.92 33.6184C286.324 32.6903 287.431 32.2051 288.24 32.1627C289.05 32.1202 289.719 32.256 290.248 32.5701C290.777 32.8842 291.158 33.2274 291.392 33.5997C291.665 33.9272 292.941 35.847 295.218 39.3593C297.536 42.8267 299.735 46.0654 301.816 49.0753C301.993 48.3824 303.006 45.7017 304.855 41.0332C306.702 36.3221 307.681 33.8141 307.793 33.5092C307.948 33.202 308.185 32.8264 308.503 32.3825C309.019 31.6291 309.767 31.2267 310.747 31.1754C311.77 31.1218 312.979 31.3575 314.373 31.8826Z" fill="white"/>
</svg>
