<?xml version="1.0" encoding="UTF-8"?>
<svg version="1.1" xmlns="http://www.w3.org/2000/svg" width="512" height="512">
<path d="M0 0 C4.22470268 1.74469758 8.00274102 4.08504919 11.875 6.5 C13.58826184 7.52918966 15.30155713 8.55832694 17.01647949 9.58474731 C18.80786383 10.65971979 20.59384501 11.74332155 22.37988281 12.82714844 C27.68707106 16.03121173 33.08754324 19.07085289 38.48272705 22.12341309 C47.85737423 27.43641465 57.19677933 32.81299214 66.5 38.25 C67.8617334 39.03721436 67.8617334 39.03721436 69.25097656 39.84033203 C70.0859668 40.33130371 70.92095703 40.82227539 71.78125 41.328125 C72.8650293 41.96089355 72.8650293 41.96089355 73.97070312 42.60644531 C79.71060974 46.54814249 79.71060974 46.54814249 80.37531471 49.88293648 C80.52939558 52.32543426 80.55169112 54.7398766 80.53344727 57.18725586 C80.54206284 58.11615128 80.55067841 59.04504669 80.55955505 60.00209045 C80.58226153 63.07329152 80.5754672 66.14358353 80.56640625 69.21484375 C80.57163997 71.34949516 80.57791552 73.48414424 80.58518982 75.61878967 C80.59560286 80.09354531 80.59101977 84.56798313 80.57641602 89.04272461 C80.55923221 94.77753933 80.58271432 100.5113518 80.61790562 106.24605465 C80.63986564 110.65473574 80.63844138 115.06317653 80.6301403 119.47189522 C80.62931992 121.58620871 80.63619983 123.7005397 80.65091133 125.81480217 C80.66832985 128.7716112 80.65383644 131.72661332 80.63110352 134.68334961 C80.64279572 135.55675995 80.65448792 136.43017029 80.66653442 137.33004761 C80.59786021 141.71975888 80.44327086 143.44779869 77.60595703 146.98236084 C75.20710404 148.83965153 72.87761051 150.48209983 70.24609375 151.98828125 C69.32320557 152.52163086 68.40031738 153.05498047 67.44946289 153.60449219 C66.45551514 154.16813477 65.46156738 154.73177734 64.4375 155.3125 C63.39263428 155.91352539 62.34776855 156.51455078 61.27124023 157.13378906 C58.44191508 158.758893 55.60864444 160.37679862 52.77282715 161.99053955 C49.77606435 163.69691771 46.78278624 165.40939125 43.7890625 167.12109375 C40.27274806 169.13155266 36.7555223 171.14028609 33.23413086 173.1418457 C31.0775839 174.36906435 28.93734228 175.62549828 26.81661987 176.91363525 C24.15910325 178.46017282 21.57279648 179.54061423 18.66325378 180.52561951 C13.61563859 182.45648524 9.31361172 184.611721 6 189 C3.02418621 197.7639739 3.94914877 207.56303868 4.23903179 216.70585084 C4.33641681 220.3907206 4.33248052 224.07544805 4.33843994 227.76139832 C4.36399703 234.73388469 4.47163085 241.7023594 4.61300302 248.67336625 C4.86321518 261.16588404 4.96399186 273.66028558 5.04807973 286.15487784 C5.08071449 290.53664107 5.14640652 294.916321 5.24038553 299.29718649 C5.2819308 301.3639506 5.31253005 303.43054685 5.33866882 305.49755859 C5.37170608 308.01491683 5.42323223 310.5321275 5.49671936 313.04862976 C5.56513224 321.24251031 5.56513224 321.24251031 2.62104797 325.18869019 C-2.25208155 328.5563307 -2.25208155 328.5563307 -4.75390625 329.98828125 C-6.13715088 330.78770142 -6.13715088 330.78770142 -7.54833984 331.60327148 C-8.5430127 332.16731689 -9.53768555 332.7313623 -10.5625 333.3125 C-11.6138916 333.91715088 -12.6652832 334.52180176 -13.74853516 335.14477539 C-16.58105277 336.77146643 -19.41747504 338.39103953 -22.25628662 340.00671387 C-25.13827919 341.64840756 -28.016114 343.29736058 -30.89453125 344.9453125 C-34.40562977 346.95460598 -37.91756354 348.96241204 -41.43188477 350.96606445 C-49.30198814 355.45314449 -57.15644487 359.96664035 -65 364.5 C-75.41792868 370.52086526 -85.8583501 376.5013069 -96.3125 382.45898438 C-97.40304687 383.08095703 -98.49359375 383.70292969 -99.6171875 384.34375 C-100.6803418 384.94445312 -101.74349609 385.54515625 -102.83886719 386.1640625 C-104.97586636 387.40519887 -107.08606593 388.69347569 -109.16894531 390.0234375 C-118.97346537 396.19814631 -118.97346537 396.19814631 -124.60888672 395.68457031 C-130.22543844 394.07656429 -135.10698794 390.88730032 -140.0625 387.875 C-141.28633408 387.15048105 -142.51128622 386.42784765 -143.73730469 385.70703125 C-146.25093325 384.22561658 -148.75799548 382.7339353 -151.26025391 381.23339844 C-154.87920639 379.06619058 -158.51933091 376.93707803 -162.16796875 374.8203125 C-167.78641876 371.56003802 -173.39635431 368.28564678 -179 365 C-179.0093457 366.27641357 -179.01869141 367.55282715 -179.02832031 368.86791992 C-179.06824339 373.61127402 -179.13400903 378.35398112 -179.20751953 383.09692383 C-179.23571564 385.14827146 -179.25693693 387.19972747 -179.27099609 389.2512207 C-179.29244424 392.20320054 -179.33910448 395.1538793 -179.390625 398.10546875 C-179.39185364 399.02023483 -179.39308228 399.93500092 -179.39434814 400.87748718 C-179.48721432 404.93013752 -179.63662766 407.38323409 -181.72460938 410.92724609 C-184.06174737 413.05624841 -186.23495347 414.55876456 -189.015625 416.05859375 C-190.50497559 416.87505371 -190.50497559 416.87505371 -192.02441406 417.70800781 C-193.08885742 418.27874023 -194.15330078 418.84947266 -195.25 419.4375 C-197.50115368 420.66846545 -199.75112217 421.9016004 -202 423.13671875 C-203.15371094 423.76884277 -204.30742187 424.4009668 -205.49609375 425.05224609 C-212.17741863 428.74300438 -218.7304106 432.66133767 -225.29394531 436.55639648 C-226.23334961 437.11012939 -227.17275391 437.6638623 -228.140625 438.234375 C-229.37087402 438.96479004 -229.37087402 438.96479004 -230.62597656 439.70996094 C-234.79140273 441.97344427 -238.09507531 443.57212505 -242.91064453 442.67333984 C-247.74728611 441.11462782 -252.06568794 438.354929 -256.4375 435.8125 C-257.52192383 435.19262207 -258.60634766 434.57274414 -259.72363281 433.93408203 C-263.15570009 431.96730827 -266.57788267 429.98402535 -270 428 C-272.26660747 426.69866191 -274.53352933 425.39787123 -276.80078125 424.09765625 C-278.95117815 422.85791028 -281.10094155 421.61706469 -283.25 420.375 C-284.25474365 419.79596924 -285.2594873 419.21693848 -286.29467773 418.62036133 C-298.14454946 411.71090108 -298.14454946 411.71090108 -300 408 C-300.11734084 405.90293091 -300.16980016 403.80212699 -300.19287109 401.7019043 C-300.20104858 401.05615448 -300.20922607 400.41040466 -300.21765137 399.74508667 C-300.24249426 397.60480679 -300.2590188 395.46459321 -300.2734375 393.32421875 C-300.27876118 392.59311197 -300.28408485 391.8620052 -300.28956985 391.10874367 C-300.3162973 387.23860345 -300.33567298 383.36849543 -300.35009766 379.49829102 C-300.36674045 375.50320748 -300.4115148 371.50894972 -300.4624691 367.51417828 C-300.49614614 364.4403439 -300.50767547 361.36670539 -300.51332474 358.29270363 C-300.52003661 356.82028712 -300.53525738 355.34788347 -300.55921555 353.87564659 C-300.59088279 351.81184247 -300.59090361 349.75026316 -300.58349609 347.6862793 C-300.59158295 346.51316696 -300.5996698 345.34005463 -300.60800171 344.13139343 C-299.70717382 339.49185623 -296.94886681 337.33882726 -293.16088867 334.73657227 C-292.5857251 334.43291748 -292.01056152 334.1292627 -291.41796875 333.81640625 C-290.40766602 333.27101196 -290.40766602 333.27101196 -289.37695312 332.71459961 C-288.29317383 332.1443103 -288.29317383 332.1443103 -287.1875 331.5625 C-285.59623686 330.70314393 -284.00647717 329.84100002 -282.41796875 328.9765625 C-281.55864746 328.50895508 -280.69932617 328.04134766 -279.81396484 327.55957031 C-273.40854821 324.00952681 -267.11389428 320.26424517 -260.79760742 316.55883789 C-259.81252197 315.98125732 -258.82743652 315.40367676 -257.8125 314.80859375 C-256.93207031 314.29095459 -256.05164063 313.77331543 -255.14453125 313.23999023 C-253.78505331 312.45392598 -252.404586 311.702293 -251 311 C-250.99589111 310.39003174 -250.99178223 309.78006348 -250.98754883 309.15161133 C-250.95452425 306.37094208 -250.88387432 303.59243843 -250.8125 300.8125 C-250.80669922 299.85279297 -250.80089844 298.89308594 -250.79492188 297.90429688 C-250.64828067 293.19548473 -250.55478895 290.73940935 -247.6640625 286.88671875 C-244.28422778 284.49308214 -242.13554728 284 -238 284 C-233.98480937 285.51516628 -232.39631647 286.4055253 -230 290 C-230.07788086 292.04614258 -230.07788086 292.04614258 -230.46484375 294.39453125 C-231.08129456 300.19283632 -231.38221005 305.55872328 -229 311 C-223.15719199 316.91055856 -214.91064216 319.98620874 -207.45117188 323.37158203 C-202.15823875 325.86902572 -197.19777715 328.86013047 -192.1875 331.875 C-190.20093074 333.04328059 -188.21261791 334.20860094 -186.22265625 335.37109375 C-185.21348145 335.96132324 -184.20430664 336.55155273 -183.16455078 337.15966797 C-176.92106072 340.790545 -170.64357073 344.36214474 -164.3687439 347.93847656 C-157.76524452 351.70224701 -151.16667615 355.47387887 -144.5859375 359.27734375 C-143.98629181 359.62387497 -143.38664612 359.97040619 -142.76882935 360.32743835 C-139.90226729 361.98459848 -137.03678459 363.64358338 -134.17236328 365.30444336 C-133.1564209 365.89233643 -132.14047852 366.48022949 -131.09375 367.0859375 C-130.20365234 367.6020459 -129.31355469 368.1181543 -128.39648438 368.64990234 C-127.60564453 369.09543457 -126.81480469 369.5409668 -126 370 C-125.33097656 370.43763672 -124.66195312 370.87527344 -123.97265625 371.32617188 C-121.95518533 372.24551401 -121.95518533 372.24551401 -119.78710938 371.19580078 C-118.98080078 370.70063965 -118.17449219 370.20547852 -117.34375 369.6953125 C-116.41836426 369.13980713 -115.49297852 368.58430176 -114.53955078 368.01196289 C-113.53649902 367.38926514 -112.53344727 366.76656738 -111.5 366.125 C-109.32127092 364.81221016 -107.14154303 363.50107685 -104.9609375 362.19140625 C-104.11014114 361.6761866 -104.11014114 361.6761866 -103.24215698 361.15055847 C-97.51344269 357.68408873 -91.70389433 354.36401323 -85.8805542 351.05923462 C-82.92295503 349.38002615 -79.96938311 347.69376544 -77.015625 346.0078125 C-76.43038055 345.67391006 -75.84513611 345.34000763 -75.24215698 344.99598694 C-69.10905934 341.49506653 -62.99093232 337.96830933 -56.875 334.4375 C-55.82779785 333.83357422 -54.7805957 333.22964844 -53.70166016 332.60742188 C-48.63487574 329.68364829 -43.57214439 326.75319789 -38.51834106 323.80705261 C-36.09735623 322.39634215 -33.67453673 320.98880057 -31.25152588 319.58157349 C-29.53157887 318.58087323 -27.81434579 317.57551306 -26.09716797 316.57006836 C-25.06479004 315.97073486 -24.03241211 315.37140137 -22.96875 314.75390625 C-22.05544922 314.22095947 -21.14214844 313.6880127 -20.20117188 313.13891602 C-18 312 -18 312 -16 312 C-16.495 250.62 -16.495 250.62 -17 188 C-29.375 181.07 -29.375 181.07 -42 174 C-54.72172093 166.5958238 -54.72172093 166.5958238 -59.78515625 163.625 C-67.57360339 159.07003267 -75.39429171 154.56902504 -83.26098633 150.15039062 C-88.81186056 147.02386236 -94.30247381 143.8482917 -99.67730713 140.42556763 C-102.16817123 138.84413326 -104.68017978 137.29819292 -107.19445801 135.7543335 C-108.3841427 135.01020748 -109.56329643 134.24893257 -110.73034668 133.4697876 C-114.37101166 131.04307377 -117.73590975 129.0546819 -122 128 C-126.63871496 129.06364972 -130.09307113 131.35122349 -134 134 C-135.80634279 135.03942014 -137.61877722 136.06833447 -139.4375 137.0859375 C-141.29365679 138.17891895 -143.14774776 139.27541456 -145 140.375 C-147.10610909 141.61440643 -149.21290871 142.85264003 -151.3203125 144.08984375 C-152.41118164 144.73034668 -153.50205078 145.37084961 -154.62597656 146.03076172 C-160.35268652 149.37313817 -166.11383184 152.65504477 -171.875 155.9375 C-174.23328512 157.28218023 -176.59131896 158.62730045 -178.94921875 159.97265625 C-179.8242379 160.47190109 -179.8242379 160.47190109 -180.7169342 160.98123169 C-184.80097685 163.31257953 -188.88037198 165.65185639 -192.95703125 167.99609375 C-194.07940186 168.6408667 -195.20177246 169.28563965 -196.3581543 169.94995117 C-198.55437509 171.21981998 -200.74481911 172.49973966 -202.92895508 173.7902832 C-207.66329073 176.5789309 -212.32892875 179.22082228 -217.3671875 181.421875 C-223.89354339 184.24242349 -223.89354339 184.24242349 -229 189 C-230.56417904 194.3952043 -230.19481924 199.73281194 -229.79296875 205.26953125 C-229.63866632 209.47080265 -229.63866632 209.47080265 -231.17822266 211.72558594 C-233.83058879 214.05833988 -236.43037921 215.6993671 -240 215.625 C-240.61875 215.63789063 -241.2375 215.65078125 -241.875 215.6640625 C-245.23591901 214.61377531 -247.74810781 212.65025708 -250 210 C-250.74462891 206.57421875 -250.74462891 206.57421875 -250.7265625 202.6875 C-250.72755951 201.99615967 -250.72855652 201.30481934 -250.72958374 200.5925293 C-250.72492099 199.13676402 -250.70557231 197.68097985 -250.67236328 196.22558594 C-250.62512099 194.00568526 -250.63125091 191.79058909 -250.64453125 189.5703125 C-250.56074209 178.90908187 -250.56074209 178.90908187 -248.30810547 175.25708008 C-245.83147332 172.83519895 -243.49354816 171.25852686 -240.46875 169.57421875 C-239.36241211 168.9507959 -238.25607422 168.32737305 -237.11621094 167.68505859 C-235.91084413 167.01913904 -234.70543945 166.35328805 -233.5 165.6875 C-232.24449384 164.98369546 -230.98962134 164.27875948 -229.73535156 163.57275391 C-227.12746905 162.10605242 -224.51693005 160.64425651 -221.90429688 159.18603516 C-216.41461481 156.11786145 -210.9548224 152.99761618 -205.49649048 149.87411499 C-203.74203156 148.87044149 -201.9866865 147.86833205 -200.23120117 146.86645508 C-191.7500967 142.0224674 -183.31509929 137.10235792 -174.89038086 132.16113281 C-166.53227481 127.2749199 -158.08875062 122.54907525 -149.62084961 117.85620117 C-143.13434653 114.24707218 -136.80971673 110.49535408 -130.6484375 106.35546875 C-127.29197952 104.63763553 -124.77425546 104.11871302 -121 104 C-114.29368249 106.41992427 -108.2310279 110.1533279 -102.0625 113.6875 C-100.99708984 114.29400391 -99.93167969 114.90050781 -98.83398438 115.52539062 C-96.22075795 117.01364065 -93.60951457 118.50525426 -91 120 C-91.00452431 118.66695328 -91.00452431 118.66695328 -91.00914001 117.30697632 C-91.03141092 108.9203236 -91.02016628 100.53452334 -90.97153378 92.1479702 C-90.94770745 87.83652195 -90.93671622 83.52584598 -90.95532227 79.21435547 C-90.97281165 75.05117494 -90.95623998 70.88937995 -90.91632271 66.72636795 C-90.90704834 65.14043185 -90.90992434 63.55437541 -90.92530632 61.96848679 C-91.03360244 49.59933246 -91.03360244 49.59933246 -88.5528717 45.76080322 C-86.77621897 44.18754456 -85.10319122 43.08659936 -83 42 C-82.16670166 41.45472656 -81.33340332 40.90945312 -80.47485352 40.34765625 C-79.70069092 39.92355469 -78.92652832 39.49945313 -78.12890625 39.0625 C-77.23751953 38.5675 -76.34613281 38.0725 -75.42773438 37.5625 C-74.00944336 36.7890625 -74.00944336 36.7890625 -72.5625 36 C-70.50043292 34.85573156 -68.43926267 33.70984577 -66.37890625 32.5625 C-65.3233252 31.97597656 -64.26774414 31.38945312 -63.18017578 30.78515625 C-58.08128557 27.92295103 -53.04144367 24.96185849 -48 22 C-38.79262425 16.60064103 -29.53004884 11.307506 -20.22070312 6.0859375 C-19.31642578 5.57804688 -18.41214844 5.07015625 -17.48046875 4.546875 C-16.68535889 4.10182617 -15.89024902 3.65677734 -15.07104492 3.19824219 C-9.49144101 -0.02994312 -6.51434243 -1.06975175 0 0 Z M-11.578125 25.3515625 C-12.47974365 25.8662207 -13.3813623 26.38087891 -14.31030273 26.91113281 C-15.28040283 27.47670898 -16.25050293 28.04228516 -17.25 28.625 C-18.76799194 29.49656738 -18.76799194 29.49656738 -20.31665039 30.38574219 C-23.5505681 32.24678205 -26.77630143 34.12132024 -30 36 C-31.04591309 36.60875977 -32.09182617 37.21751953 -33.16943359 37.84472656 C-37.19140154 40.18736414 -41.21316695 42.53019509 -45.22558594 44.88916016 C-53.42307511 49.7016093 -61.70550927 54.3575465 -70 59 C-70.55937426 68.4041891 -70.98396755 77.80257243 -71.24349213 87.21983528 C-71.36816829 91.595123 -71.53655287 95.95895449 -71.81054688 100.32763672 C-73.68053809 118.9629843 -73.68053809 118.9629843 -67.80456543 135.87319946 C-62.19204691 140.63652617 -55.83582452 143.36213773 -48.97167969 145.86987305 C-45.01223844 147.37564478 -41.54541575 149.40395343 -37.953125 151.62109375 C-35.71942092 152.89440684 -33.48507771 154.16659961 -31.25 155.4375 C-28.98406493 156.72732002 -26.71843702 158.0176798 -24.453125 159.30859375 C-23.38126953 159.91300293 -22.30941406 160.51741211 -21.20507812 161.14013672 C-19.01386954 162.41166528 -16.85153423 163.7339318 -14.71679688 165.09814453 C-13.67072266 165.7579834 -12.62464844 166.41782227 -11.546875 167.09765625 C-10.62229492 167.70230713 -9.69771484 168.30695801 -8.74511719 168.92993164 C-5.97951871 170.30232648 -5.97951871 170.30232648 -2.86083984 169.29516602 C0.62079554 167.71895201 3.86896684 165.86345712 7.125 163.875 C16.19862167 158.43226823 25.3836783 153.19407421 34.58642578 147.97412109 C36.81063069 146.70854311 39.02500407 145.42547202 41.22740173 144.12231445 C43.73671922 142.66533001 46.25921311 141.4100087 48.9125824 140.23794556 C52.99996511 138.31922484 56.89018151 136.33896846 60 133 C62.05588706 127.26923871 61.76693409 121.94595508 61.46484375 115.93359375 C61.43682392 114.28745747 61.41549214 112.64119504 61.40052795 110.99488831 C61.34356593 106.68581454 61.19658209 102.38447188 61.02996826 98.07843018 C60.87579203 93.675096 60.80786493 89.27049633 60.73242188 84.86523438 C60.5721142 76.23996219 60.31656825 67.62094552 60 59 C59.28849792 58.60273712 58.57699585 58.20547424 57.84393311 57.7961731 C55.16205324 56.29819326 52.48063101 54.79939816 49.79949951 53.30007935 C48.08526343 52.34177272 46.37051832 51.38437686 44.65576172 50.42700195 C38.48155735 46.97351841 32.33504828 43.48334721 26.25 39.875 C23.50031052 38.24947357 20.75053685 36.6240923 18 35 C17.1116748 34.47535156 16.22334961 33.95070313 15.30810547 33.41015625 C12.43990368 31.72246286 9.56452088 30.0476065 6.6875 28.375 C5.78483398 27.84116699 4.88216797 27.30733398 3.95214844 26.75732422 C3.10555664 26.2676416 2.25896484 25.77795898 1.38671875 25.2734375 C0.26076294 24.61480713 0.26076294 24.61480713 -0.88793945 23.94287109 C-5.12392804 22.05183099 -7.83893163 23.19515702 -11.578125 25.3515625 Z M-249.4375 334.25 C-250.94441841 335.16033584 -252.45227808 336.06911488 -253.9609375 336.9765625 C-254.7662793 337.46286133 -255.57162109 337.94916016 -256.40136719 338.45019531 C-261.08306204 341.24232223 -265.82465507 343.92964975 -270.5625 346.625 C-272.25573211 347.58929315 -273.94892662 348.55365232 -275.64208984 349.51806641 C-277.0947247 350.34538087 -278.54736078 351.17269319 -280 352 C-280.33101493 358.26070316 -280.55778509 364.5191413 -280.71411133 370.78662109 C-280.77929148 372.915408 -280.86787133 375.04361705 -280.98071289 377.17041016 C-282.07866901 389.34296572 -282.07866901 389.34296572 -277.47021484 399.98095703 C-274.06517806 402.09087011 -270.73044568 403.55180108 -267 405 C-264.93911276 406.15114062 -262.89618683 407.33518567 -260.875 408.5546875 C-258.91811665 409.66402005 -256.95979371 410.77081716 -255 411.875 C-253.50533203 412.72578125 -253.50533203 412.72578125 -251.98046875 413.59375 C-251.01753906 414.13773437 -250.05460937 414.68171875 -249.0625 415.2421875 C-248.20785156 415.7254248 -247.35320312 416.20866211 -246.47265625 416.70654297 C-245.65667969 417.13338379 -244.84070313 417.56022461 -244 418 C-243.18853516 418.44472656 -242.37707031 418.88945312 -241.54101562 419.34765625 C-238.93640586 420.27405782 -238.93640586 420.27405782 -236.25195312 418.97705078 C-235.27162109 418.38907715 -234.29128906 417.80110352 -233.28125 417.1953125 C-232.18296875 416.54820312 -231.0846875 415.90109375 -229.953125 415.234375 C-228.80185769 414.53161953 -227.6508165 413.82849348 -226.5 413.125 C-224.83710938 412.13886719 -224.83710938 412.13886719 -223.140625 411.1328125 C-220.88379591 409.78921193 -218.64562926 408.41380366 -216.42651367 407.00878906 C-213 405 -213 405 -209.28637695 403.51464844 C-205.25192444 401.72816281 -202.85692031 400.38741882 -200 397 C-197.86289656 389.60663067 -198.78514455 381.58343677 -199.1875 374 C-199.25275816 371.86866521 -199.31206531 369.73713937 -199.36523438 367.60546875 C-199.50802234 362.39945816 -199.72503386 357.20061539 -200 352 C-200.68924561 351.61779297 -201.37849121 351.23558594 -202.08862305 350.84179688 C-205.28996023 349.06425661 -208.48908676 347.28279622 -211.6875 345.5 C-212.83114014 344.86304199 -213.97478027 344.22608398 -215.15307617 343.56982422 C-222.12707422 339.66644859 -228.97265745 335.65664792 -235.64453125 331.2578125 C-241.09211911 328.34881865 -244.79098333 331.37576599 -249.4375 334.25 Z " fill="#000000" transform="translate(366,0)"/>
<path d="M0 0 C3.02384324 1.58287067 5.95069134 3.2764777 8.87841797 5.03076172 C9.95744385 5.65660156 11.03646973 6.28244141 12.14819336 6.92724609 C14.40861502 8.24132643 16.66401846 9.56407345 18.91455078 10.89501953 C22.24340577 12.86289562 25.58541036 14.80607926 28.93310547 16.74169922 C33.85104823 19.58981332 38.7641417 22.44538401 43.65527344 25.33935547 C45.46941624 26.40739917 47.29178827 27.46155765 49.12109375 28.50341797 C50.0116748 29.01775391 50.90225586 29.53208984 51.81982422 30.06201172 C53.01007202 30.73973633 53.01007202 30.73973633 54.22436523 31.43115234 C56.62362323 33.12270345 57.81516856 34.37050477 59.31591797 36.90576172 C59.70359802 40.16246033 59.70359802 40.16246033 59.7199707 44.07348633 C59.72683395 44.78780319 59.7336972 45.50212006 59.74076843 46.23808289 C59.75904174 48.59496036 59.75519832 50.95117248 59.74951172 53.30810547 C59.75407342 54.94951087 59.75937896 56.59091435 59.76539612 58.23231506 C59.77432834 61.67131309 59.77190309 65.11007891 59.76196289 68.54907227 C59.75047532 72.95206665 59.77068028 77.3542588 59.79988003 81.75714779 C59.81824357 85.14670386 59.81794927 88.53606775 59.81224251 91.92566109 C59.8120893 93.54874357 59.81813342 95.17183908 59.83053398 96.79487419 C59.84544517 99.06663919 59.83476784 101.33692331 59.81762695 103.60864258 C59.81746078 104.90007675 59.81729462 106.19151093 59.81712341 107.52207947 C59.23115312 111.47801671 58.09485252 113.0885038 55.31591797 115.90576172 C52.94775391 117.53637695 52.94775391 117.53637695 50.30029297 118.96435547 C49.30771484 119.50842041 48.31513672 120.05248535 47.29248047 120.61303711 C46.22771484 121.18401123 45.16294922 121.75498535 44.06591797 122.34326172 C41.80961822 123.57824897 39.55443905 124.81528536 37.30029297 126.05419922 C35.56875977 127.00311035 35.56875977 127.00311035 33.80224609 127.97119141 C27.26067462 131.60112224 20.82202086 135.40654987 14.37353516 139.19848633 C12.54265847 140.27360896 10.70848519 141.34314312 8.87060547 142.40625 C7.2119851 143.37980182 5.5697855 144.38209835 3.94873047 145.41699219 C-1.28085358 148.63911264 -5.54556557 150.31533774 -11.68408203 148.90576172 C-15.75676658 147.21459383 -19.46831501 145.0446867 -23.24658203 142.78076172 C-24.32560791 142.15492188 -25.40463379 141.52908203 -26.51635742 140.88427734 C-28.77677908 139.57019701 -31.03218252 138.24744999 -33.28271484 136.91650391 C-36.61156983 134.94862782 -39.95357442 133.00544418 -43.30126953 131.06982422 C-48.21863677 128.22204342 -53.12977307 125.36443004 -58.0234375 122.47607422 C-59.84205929 121.40272357 -61.66417544 120.33527741 -63.48925781 119.27294922 C-64.37983887 118.74958984 -65.27041992 118.22623047 -66.18798828 117.68701172 C-66.98148682 117.22359375 -67.77498535 116.76017578 -68.5925293 116.28271484 C-73.23601008 113.22572504 -73.23601008 113.22572504 -74.25410461 110.22654724 C-74.81659533 107.19052662 -74.82766746 104.28558084 -74.84521484 101.19702148 C-74.85017975 100.53147247 -74.85514465 99.86592346 -74.86026001 99.1802063 C-74.87482534 96.98584956 -74.88167326 94.79156504 -74.88720703 92.59716797 C-74.89296198 91.067866 -74.89871967 89.53856404 -74.90447998 88.00926208 C-74.91497315 84.80573186 -74.9208272 81.60222662 -74.92431641 78.39868164 C-74.92980552 74.29851549 -74.95384929 70.19868067 -74.98228836 66.09861851 C-75.00092984 62.94072 -75.00612108 59.7829012 -75.00765228 56.62495232 C-75.01067463 55.11350628 -75.01868909 53.6020615 -75.03183746 52.09066963 C-75.04893444 49.9748229 -75.04700967 47.85978468 -75.04052734 45.74389648 C-75.04417297 44.54128677 -75.0478186 43.33867706 -75.05157471 42.09962463 C-74.55938682 37.82204105 -73.1194036 35.12548031 -69.84423828 32.34228516 C-63.58239308 28.38053114 -57.17465075 24.72926007 -50.68408203 21.15576172 C-43.13400749 16.9662693 -35.61262205 12.74504514 -28.18408203 8.34326172 C-27.15734375 7.73973877 -27.15734375 7.73973877 -26.10986328 7.12402344 C-23.36995328 5.51138679 -20.65123754 3.88495077 -17.96533203 2.18310547 C-11.97531968 -1.49911103 -6.73020973 -2.74375114 0 0 Z M-10.66577148 21.87524414 C-12.21590942 22.80880737 -12.21590942 22.80880737 -13.79736328 23.76123047 C-14.36510468 24.09394958 -14.93284607 24.4266687 -15.51779175 24.76947021 C-17.35834072 25.85521745 -19.17666572 26.97333847 -20.99658203 28.09326172 C-22.25282833 28.84295873 -23.51040461 29.59043151 -24.76928711 30.33569336 C-27.26450355 31.81740773 -29.75154029 33.31147817 -32.23193359 34.81787109 C-36.01755501 37.1146361 -39.8417623 39.34231498 -43.67114258 41.56518555 C-48.97706402 44.34530931 -48.97706402 44.34530931 -53.68408203 47.90576172 C-53.84514138 49.48783207 -53.938415 51.07687324 -54.00390625 52.66577148 C-54.04579071 53.68095352 -54.08767517 54.69613556 -54.13082886 55.74208069 C-54.28112576 60.41371378 -54.38847803 65.08528796 -54.47363281 69.75854492 C-54.53032673 72.21987104 -54.61212506 74.68075439 -54.71972656 77.14038086 C-55.90838886 90.82858112 -55.90838886 90.82858112 -51.2355957 103.05053711 C-48.40245522 104.80853932 -45.71585867 106.09324376 -42.57006836 107.18667603 C-39.32639268 108.42341923 -36.46045836 110.28779486 -33.50048828 112.08154297 C-32.29638991 112.77497353 -31.08999747 113.46443576 -29.88134766 114.14990234 C-27.42898857 115.5451588 -24.97847333 116.9435253 -22.52978516 118.34521484 C-17.61975909 121.14821535 -17.61975909 121.14821535 -12.68408203 123.90576172 C-11.68070801 124.52684814 -10.67733398 125.14793457 -9.64355469 125.7878418 C-6.73572305 127.23323711 -6.73572305 127.23323711 -3.91772461 126.04394531 C-2.98081787 125.4698291 -2.04391113 124.89571289 -1.07861328 124.30419922 C-0.02085693 123.67336426 1.03689941 123.0425293 2.12670898 122.39257812 C3.24102295 121.69567871 4.35533691 120.9987793 5.50341797 120.28076172 C6.65944904 119.58094965 7.81693423 118.88353425 8.97583008 118.18847656 C11.31232774 116.78390293 13.64133018 115.36801772 15.96533203 113.94287109 C20.72046096 111.05181923 25.5463323 108.2904709 30.37841797 105.53076172 C35.12169484 103.07696209 35.12169484 103.07696209 39.31591797 99.90576172 C39.47697732 98.32369136 39.57025094 96.73465019 39.63574219 95.14575195 C39.67762665 94.13056992 39.71951111 93.11538788 39.76266479 92.06944275 C39.9129617 87.39780966 40.02031397 82.72623548 40.10546875 78.05297852 C40.16216267 75.5916524 40.243961 73.13076904 40.3515625 70.67114258 C41.5402248 56.98294232 41.5402248 56.98294232 36.86743164 44.76098633 C34.03429116 43.00298412 31.34769461 41.71827968 28.2019043 40.62484741 C24.95822861 39.38810421 22.09229429 37.52372858 19.13232422 35.72998047 C17.92822585 35.03654991 16.72183341 34.34708768 15.51318359 33.66162109 C13.06082451 32.26636463 10.61030927 30.86799814 8.16162109 29.46630859 C3.25159503 26.66330809 3.25159503 26.66330809 -1.68408203 23.90576172 C-2.67698242 23.27943848 -3.66988281 22.65311523 -4.69287109 22.0078125 C-7.66916081 20.56082512 -7.66916081 20.56082512 -10.66577148 21.87524414 Z " fill="#000000" transform="translate(386.68408203125,363.09423828125)"/>
<path d="M0 0 C5.6885544 5.28914526 9.33754557 11.77378435 10.19921875 19.54296875 C10.3817931 25.0201991 9.64381166 28.06173812 5.9609375 32.39453125 C2.46763762 34.14118119 -1.2271864 33.94946642 -5.0390625 33.39453125 C-9.95433812 30.18891671 -10.98956174 26.15148906 -12.265625 20.69921875 C-13.12218689 18.14683736 -13.93566195 17.04425717 -16.0390625 15.39453125 C-19.63513044 14.30007579 -21.33580007 14.07486651 -24.7890625 15.64453125 C-27.30700805 17.60293334 -28.88279946 19.1744448 -29.29975891 22.43002319 C-29.3043663 23.2077005 -29.30897369 23.98537781 -29.3137207 24.78662109 C-29.32325272 25.67118988 -29.33278473 26.55575867 -29.34260559 27.46713257 C-29.34123848 28.89685898 -29.34123848 28.89685898 -29.33984375 30.35546875 C-29.34412888 31.33818756 -29.348414 32.32090637 -29.35282898 33.33340454 C-29.35857365 35.41301707 -29.35907154 37.49264969 -29.35473633 39.57226562 C-29.35158154 42.75035029 -29.37501614 45.92749956 -29.40039062 49.10546875 C-29.40266415 51.12630091 -29.40336687 53.14713557 -29.40234375 55.16796875 C-29.4115535 56.11707123 -29.42076324 57.06617371 -29.43025208 58.04403687 C-29.39596169 62.94842118 -29.3202676 66.45588524 -26.0390625 70.39453125 C-22.98212928 71.92299786 -20.40921703 71.6269557 -17.0390625 71.39453125 C-14.21547307 69.83793708 -13.21884633 68.90211061 -12.1328125 65.8359375 C-11.936875 64.88589844 -11.7409375 63.93585938 -11.5390625 62.95703125 C-10.62682308 58.54587355 -9.58315533 56.25857674 -6.0390625 53.39453125 C-1.97005157 52.26425044 0.22779408 52.12665192 4.2109375 53.58203125 C8.56789402 56.45366168 8.56789402 56.45366168 9.9609375 59.39453125 C11.07552608 67.08828854 8.899698 73.80423402 5.2734375 80.51953125 C0.39795073 86.58094723 -5.16489762 91.99467972 -13.0390625 93.39453125 C-24.40523463 94.40261747 -32.36103895 93.32957323 -41.2890625 86.20703125 C-46.77062688 81.13029298 -50.72040778 74.56469989 -51.18623352 67.00668335 C-51.19607773 66.12195343 -51.20592194 65.23722351 -51.21606445 64.32568359 C-51.22889969 63.31718353 -51.24173492 62.30868347 -51.25495911 61.2696228 C-51.26234604 60.18420197 -51.26973297 59.09878113 -51.27734375 57.98046875 C-51.2854155 56.85565094 -51.29348724 55.73083313 -51.30180359 54.57192993 C-51.31563163 52.18973323 -51.3263595 49.80751681 -51.33422852 47.42529297 C-51.34573385 44.99880129 -51.36616246 42.57233463 -51.39575195 40.14599609 C-51.43860175 36.63231269 -51.45462388 33.11938163 -51.46484375 29.60546875 C-51.48235184 28.5321933 -51.49985992 27.45891785 -51.51789856 26.3531189 C-51.48951227 16.38430271 -48.86627598 8.42930927 -41.953125 1.1484375 C-29.67752067 -10.10002443 -13.07405365 -10.29393879 0 0 Z " fill="#000000" transform="translate(228.0390625,206.60546875)"/>
<path d="M0 0 C2.36362564 0.61605397 2.36362564 0.61605397 4.7265625 -0.60546875 C8.07189477 -1.91096427 9.86064224 -1.60542466 13.2890625 -0.60546875 C17.86533369 2.54707362 17.86533369 2.54707362 19.2890625 5.39453125 C19.39955776 7.02695121 19.44819378 8.663747 19.46606445 10.29980469 C19.48531731 11.83214752 19.48531731 11.83214752 19.50495911 13.39544678 C19.51234604 14.5037384 19.51973297 15.61203003 19.52734375 16.75390625 C19.5354155 17.89104065 19.54348724 19.02817505 19.55180359 20.19976807 C19.56565348 22.61070222 19.57637157 25.02165606 19.58422852 27.43261719 C19.60142746 31.11561405 19.6453054 34.79771028 19.68945312 38.48046875 C19.69958103 40.82160797 19.70809683 43.16275484 19.71484375 45.50390625 C19.73235184 46.60410095 19.74985992 47.70429565 19.76789856 48.83782959 C19.75051233 54.98375728 19.48504278 58.75674037 15.2890625 63.39453125 C10.53674225 65.77069137 4.29628955 64.42543094 -0.7109375 63.39453125 C-1.7009375 63.72453125 -2.6909375 64.05453125 -3.7109375 64.39453125 C-14.94239394 65.21601667 -23.00816918 64.34931396 -31.9609375 57.20703125 C-38.04545309 51.5718711 -41.42729487 44.86771499 -41.94921875 36.63671875 C-42.25033209 24.85008944 -41.05989563 16.04681649 -32.62890625 7.1484375 C-22.94331152 -1.70865422 -12.53059214 -2.79861928 0 0 Z M-17.7109375 22.39453125 C-21.14223198 26.21443017 -21.15754244 29.0168048 -21.00390625 33.984375 C-20.62550826 37.09732914 -19.72960754 39.00203342 -17.7109375 41.39453125 C-13.9735519 43.88612165 -12.13762167 43.8524641 -7.7109375 43.39453125 C-4.32154194 41.2577384 -2.98511193 40.21705455 -1.7109375 36.39453125 C-1.12026268 31.49193028 -0.73751533 26.92353745 -3.8359375 22.83203125 C-8.82574069 18.60154594 -12.54219275 18.34335293 -17.7109375 22.39453125 Z " fill="#000000" transform="translate(290.7109375,235.60546875)"/>
<path d="M0 0 C3.18707586 2.10211387 4.69636793 3.59915202 5.515625 7.37890625 C5.74407075 10.86270399 5.78189962 13.72052789 3.92578125 16.7578125 C1.28006472 19.29480095 -1.43543333 20.35080256 -5 20.625 C-8.56456667 20.35080256 -11.28006472 19.29480095 -13.92578125 16.7578125 C-16.17308416 13.08040773 -15.91390612 9.09241786 -15 5 C-10.6427052 -0.7704715 -6.91725867 -1.66968313 0 0 Z " fill="#000000" transform="translate(131,240)"/>
</svg>
