<?xml version="1.0" encoding="UTF-8"?>
<svg version="1.1" xmlns="http://www.w3.org/2000/svg" width="512" height="512">
<path d="M0 0 C6.09812636 4.7544714 7.05516036 12.72286646 8 20 C9.71728114 41.93081555 6.9065081 59.95954175 -4 79 C-4.72509766 80.27617187 -4.72509766 80.27617187 -5.46484375 81.578125 C-17.89464064 101.6099136 -38.43191967 114.36593763 -61 120 C-62.0262969 120.26462005 -62.0262969 120.26462005 -63.07332706 120.53458595 C-67.25274008 121.19921694 -71.37068193 121.14300575 -75.59629822 121.13803101 C-76.56822241 121.14085229 -77.5401466 121.14367357 -78.54152304 121.14658034 C-81.80104621 121.15491905 -85.06053539 121.15626396 -88.32006836 121.15771484 C-90.6558695 121.1623835 -92.99166974 121.16752715 -95.32746887 121.17311096 C-100.35894116 121.18438875 -105.39040754 121.19282438 -110.42188835 121.19923019 C-118.37572737 121.20990783 -126.32952664 121.23013324 -134.28334045 121.25234985 C-137.00577818 121.25982904 -139.72821608 121.26724282 -142.45065403 121.27463722 C-143.13097025 121.27648779 -143.81128647 121.27833835 -144.51221834 121.280245 C-152.25220077 121.30116203 -159.99218777 121.31999588 -167.73217773 121.33789062 C-168.43954268 121.33952881 -169.14690763 121.34116699 -169.87570787 121.34285481 C-181.34294767 121.3691493 -192.81019068 121.38778885 -204.27744787 121.40448253 C-216.05466225 121.42190424 -227.83181346 121.45074841 -239.60897738 121.4893719 C-246.21994193 121.51046423 -252.83081635 121.52590239 -259.44181633 121.52817917 C-265.65771831 121.53032248 -271.87343246 121.54615966 -278.08927727 121.57256889 C-280.37174444 121.57977464 -282.65423433 121.58185671 -284.93671036 121.57846642 C-288.05026968 121.57458002 -291.16322664 121.58899979 -294.27671814 121.60800171 C-295.18187619 121.60247201 -296.08703423 121.59694232 -297.01962131 121.59124506 C-302.08142508 121.64464637 -305.62400757 122.16082637 -310 125 C-311.38008781 127.58766464 -311.053577 128.77497662 -310.375 131.625 C-308.54264749 134.78997252 -307.52583461 134.99977147 -304 136 C-300.56481723 136.28739045 -297.14180933 136.26995152 -293.69628906 136.25537109 C-292.65972672 136.25899155 -291.62316437 136.262612 -290.55519104 136.26634216 C-288.30500416 136.27323122 -286.0548006 136.27574252 -283.80460358 136.27439499 C-280.22889511 136.27342756 -276.6534855 136.28640192 -273.07781982 136.30337524 C-262.91111631 136.34955469 -252.74444149 136.37421048 -242.57763672 136.38085938 C-236.35363983 136.3859106 -230.12995124 136.41035113 -223.90605927 136.44618607 C-221.5477052 136.4559093 -219.1893083 136.45835743 -216.83094025 136.45301437 C-200.53567079 136.41785893 -184.20876972 136.72641177 -169.5625 144.8125 C-168.90620605 145.15869385 -168.24991211 145.5048877 -167.57373047 145.86157227 C-145.42554355 157.78605144 -130.14274357 176.21178559 -122.5625 200.125 C-120.85296136 206.02789128 -119.88432961 211.69956098 -119.82299805 217.85009766 C-119.80374519 219.54182602 -119.80374519 219.54182602 -119.78410339 221.26773071 C-119.77671646 222.4710202 -119.76932953 223.67430969 -119.76171875 224.9140625 C-119.753647 226.16126068 -119.74557526 227.40845886 -119.73725891 228.69345093 C-119.72345694 231.32426578 -119.71271749 233.95509825 -119.70483398 236.5859375 C-119.69372172 239.9531583 -119.6592383 243.31972698 -119.61966228 246.68671608 C-119.58724764 249.90826657 -119.58272547 253.12987378 -119.57421875 256.3515625 C-119.54795662 258.16256943 -119.54795662 258.16256943 -119.52116394 260.01016235 C-119.52555229 261.69243423 -119.52555229 261.69243423 -119.5300293 263.40869141 C-119.52416306 264.39431061 -119.51829681 265.37992981 -119.51225281 266.39541626 C-120.13602418 269.72637296 -121.39408961 270.9062627 -124 273 C-126.74089228 273.72804951 -129.23021206 273.57443241 -132 273 C-134.96858157 270.79259319 -135.82865791 269.51402627 -137 266 C-137.09540543 264.37678824 -137.13535665 262.7500236 -137.1418457 261.12402344 C-137.15239738 259.63536774 -137.15239738 259.63536774 -137.16316223 258.11663818 C-137.16732651 257.04174133 -137.17149078 255.96684448 -137.17578125 254.859375 C-137.19900783 252.56769944 -137.22312625 250.27603277 -137.24804688 247.984375 C-137.28292801 244.38405653 -137.31237176 240.78405936 -137.32592773 237.18359375 C-137.43439266 213.07434283 -140.41821619 192.38040317 -158.15234375 174.65234375 C-175.29596734 158.68455168 -194.87151667 153.84505806 -217.66870117 153.8581543 C-218.67182846 153.85467987 -219.67495575 153.85120544 -220.70848083 153.84762573 C-222.86527655 153.84032964 -225.02207948 153.83495192 -227.17888451 153.83133507 C-230.59712529 153.82410419 -234.01522789 153.80839256 -237.4334259 153.78999329 C-247.14464529 153.73780768 -256.85578177 153.68951086 -266.56713867 153.67407227 C-272.52571883 153.66398287 -278.48393921 153.63464806 -284.44237709 153.59275246 C-286.70489086 153.5804666 -288.96745543 153.57531677 -291.23000145 153.57755089 C-294.39355276 153.57990811 -297.55607098 153.55770921 -300.71948242 153.5300293 C-301.64591553 153.53663071 -302.57234863 153.54323212 -303.52685547 153.55003357 C-310.57304389 153.44907725 -315.71643194 151.66172419 -321.20703125 147.2109375 C-326.78333825 140.83413874 -329.41964945 134.42535745 -329 125.875 C-327.86624474 118.17993771 -323.6462483 113.12584173 -317.84375 108.2265625 C-312.5903434 104.7317115 -307.79964735 104.71203431 -301.69204712 104.73498535 C-300.28043794 104.72841345 -300.28043794 104.72841345 -298.84031141 104.72170877 C-295.68467107 104.7093806 -292.5291968 104.71119751 -289.37353516 104.71289062 C-287.11144769 104.7068666 -284.84936246 104.6999424 -282.58728027 104.69218445 C-277.71297167 104.67728633 -272.8387041 104.66854378 -267.96437454 104.66447449 C-260.24747886 104.65775949 -252.53067066 104.6360004 -244.81381226 104.61193848 C-233.98444339 104.57957782 -223.15508011 104.55273918 -212.32568359 104.53173828 C-211.63862313 104.53040329 -210.95156267 104.5290683 -210.24368219 104.52769285 C-205.37078848 104.51827205 -200.49789429 104.50911208 -195.625 104.5 C-190.07600873 104.48961379 -184.52701776 104.47909146 -178.97802734 104.46826172 C-178.29483903 104.46693098 -177.61165073 104.46560023 -176.90775974 104.46422917 C-165.47969041 104.4417285 -154.05165816 104.4114164 -142.62362134 104.37586927 C-134.96319202 104.35260623 -127.30282301 104.33880063 -119.64236188 104.33237457 C-114.85831123 104.32640496 -110.07430891 104.31228093 -105.2902832 104.29603004 C-103.08415739 104.29019003 -100.87801966 104.28767428 -98.67188644 104.28886986 C-72.91996693 104.29884024 -49.01425943 101.96451374 -29.72265625 82.8828125 C-16.29382252 68.66404737 -9.80012281 52.20775644 -9.6875 32.8125 C-9.68186035 31.88574463 -9.6762207 30.95898926 -9.67041016 30.00415039 C-9.72557123 24.7680553 -10.28005891 20.00907274 -11.53491211 14.92700195 C-12.42129341 11.25445203 -12.71424372 7.72001937 -12 4 C-8.56691207 -0.26535167 -5.30823445 -0.77210683 0 0 Z " fill="#000000" transform="translate(448,223)"/>
<path d="M0 0 C2.4466605 3.66999075 2.8237551 6.73535118 2 11 C-0.50817719 14.04021478 -2.12933088 14.85488848 -6 15.5 C-10.81081215 15.23508744 -15.37513691 13.47664703 -19.9140625 11.97265625 C-38.67130968 6.06056189 -61.11329036 9.25466449 -78.5 17.875 C-101.20491033 29.76156011 -116.69082204 47.62648054 -124.4375 72.125 C-131.04545754 94.94171437 -127.40847124 119.3843224 -116.16357422 140.02050781 C-112.97745936 145.44078042 -109.10521647 150.25589222 -105 155 C-104.42765625 155.67289063 -103.8553125 156.34578125 -103.265625 157.0390625 C-88.16781719 173.4074779 -65.12840032 181.94373414 -43.29003906 182.9765625 C-18.6072533 183.610325 3.75949931 173.54737411 21.625 156.875 C38.07334277 139.68036219 46.32231092 116.68985234 46 93 C44.45850245 69.20313161 35.11201842 47.93116293 17.4375 31.8125 C14.7807489 29.21951092 13.43979462 27.5688866 13.1875 23.8125 C14.15853824 19.25608981 15.18816319 17.65171257 19 15 C21.8125 14.25 21.8125 14.25 25 15 C27.95957601 17.04278427 30.44294772 19.48169094 33 22 C33.639375 22.5671875 34.27875 23.134375 34.9375 23.71875 C51.17489919 38.64668152 61.9149781 63.15953014 63.17700195 85.07348633 C63.72201308 114.05461559 63.72201308 114.05461559 59 128 C58.68651611 128.94456055 58.68651611 128.94456055 58.36669922 129.90820312 C53.04883335 145.57101106 44.56262322 158.29869464 33 170 C32.35675781 170.71542969 31.71351563 171.43085938 31.05078125 172.16796875 C16.37299807 188.11931229 -8.39249097 199.21082498 -29.93579102 200.12451172 C-63.42873632 200.91154583 -90.06336124 193.85604424 -114.81567383 170.56787109 C-132.22710559 153.71419066 -144.77383023 129.25426514 -145.23828125 104.703125 C-145.70942676 73.30750959 -138.79300582 46.59369895 -116.5390625 23.60546875 C-115.70117188 22.74566406 -114.86328125 21.88585937 -114 21 C-113.43023437 20.35675781 -112.86046875 19.71351562 -112.2734375 19.05078125 C-87.96728005 -7.68599194 -31.19082921 -20.45682813 0 0 Z " fill="#000000" transform="translate(361,104)"/>
<path d="M0 0 C1.94482097 -0.00456951 3.88964033 -0.00987735 5.8344574 -0.0158844 C9.8829511 -0.02476209 13.93124689 -0.02244842 17.97973633 -0.01245117 C23.16834491 -0.00088613 28.35628049 -0.02131448 33.54480076 -0.05036831 C37.5485008 -0.06868763 41.55203756 -0.0684478 45.55576897 -0.06273079 C47.46994925 -0.06257749 49.38414054 -0.06862907 51.29828072 -0.08102226 C53.96434641 -0.09587378 56.62914062 -0.08530403 59.29516602 -0.06811523 C60.47725647 -0.08261719 60.47725647 -0.08261719 61.68322754 -0.09741211 C65.23134836 -0.04942701 67.22402136 0.1298882 70.08287048 2.31651306 C71.93165674 4.86102643 72.54597105 6.27844025 72.62109375 9.43359375 C70.34398532 15.07214797 70.34398532 15.07214797 67.62109375 16.43359375 C65.33708455 16.54453963 63.04982264 16.59018095 60.76318359 16.60717773 C59.70401985 16.61720825 59.70401985 16.61720825 58.62345886 16.62744141 C57.08531813 16.64151208 55.54715626 16.65339968 54.00898361 16.66338921 C51.55959404 16.67983818 49.11035552 16.70308819 46.66104126 16.72828674 C39.69467796 16.79887904 32.72824607 16.85856587 25.76171875 16.91040039 C21.49934769 16.94259479 17.23713965 16.98398597 12.97490311 17.03059578 C11.36374544 17.0464042 9.75255018 17.05882057 8.14133835 17.06750298 C-17.07181693 17.20509806 -38.10052091 20.94014157 -57.12890625 38.62109375 C-72.16444806 54.54107919 -77.00933423 72.78550875 -76.72265625 94.24609375 C-76.05323226 112.54368284 -66.35881712 129.18198344 -53.390625 141.7421875 C-49.36732472 145.12488463 -44.91007524 147.79151271 -40.37890625 150.43359375 C-39.72148438 150.82546875 -39.0640625 151.21734375 -38.38671875 151.62109375 C-25.47456063 158.71446817 -10.99220264 159.54388129 3.3984375 159.609375 C5.39519328 159.63253462 7.39193817 159.65665025 9.38867188 159.68164062 C12.49169716 159.71694436 15.59430645 159.74624652 18.69750977 159.75952148 C21.72330449 159.77494589 24.74794635 159.8150611 27.7734375 159.859375 C28.70260483 159.85746658 29.63177216 159.85555817 30.58909607 159.85359192 C37.00251409 159.97584363 37.00251409 159.97584363 40.20336914 162.34448242 C41.73629973 164.60335741 42.16335567 165.72883094 42.12109375 168.43359375 C42.1365625 169.42359375 42.1365625 169.42359375 42.15234375 170.43359375 C41.37794682 173.34897044 39.9258409 174.52673862 37.62109375 176.43359375 C35.0905304 176.94152832 35.0905304 176.94152832 32.2043457 176.95117188 C31.11833572 176.96378052 30.03232574 176.97638916 28.91340637 176.98937988 C27.74057602 176.98128296 26.56774567 176.97318604 25.359375 176.96484375 C24.14017868 176.96867065 22.92098236 176.97249756 21.6648407 176.97644043 C19.07660093 176.97916486 16.48833388 176.97176679 13.90014648 176.95507812 C9.99332718 176.93391729 6.08839799 176.95473873 2.18164062 176.98046875 C-14.18482093 177.00025384 -30.21320508 176.70060039 -44.87890625 168.55859375 C-45.86938965 168.0332605 -45.86938965 168.0332605 -46.87988281 167.49731445 C-48.7290159 166.50196007 -50.55675273 165.47733607 -52.37890625 164.43359375 C-53.2296875 163.95019531 -54.08046875 163.46679688 -54.95703125 162.96875 C-74.98881985 150.53895311 -87.74484388 130.00167408 -93.37890625 107.43359375 C-98.50997575 85.14521423 -93.83435566 60.91816953 -82.37890625 41.43359375 C-72.25680161 25.83194174 -58.39067344 14.32886669 -41.50390625 6.68359375 C-40.89264893 6.40169189 -40.2813916 6.11979004 -39.65161133 5.8293457 C-26.68180288 0.21819876 -13.87247369 -0.02871865 0 0 Z " fill="#000000" transform="translate(150.37890625,263.56640625)"/>
<path d="M0 0 C1.1554834 -0.02247803 2.3109668 -0.04495605 3.50146484 -0.06811523 C4.59539551 -0.06497314 5.68932617 -0.06183105 6.81640625 -0.05859375 C7.8019751 -0.06044678 8.78754395 -0.0622998 9.80297852 -0.06420898 C13.1488769 0.57297211 14.3328834 1.81719276 16.4375 4.4375 C16.96875 6.4375 16.96875 6.4375 16.9375 8.4375 C16.95296875 9.4275 16.95296875 9.4275 16.96875 10.4375 C16.19741236 13.34135936 14.72000654 14.52461634 12.4375 16.4375 C10.00244141 17.01171875 10.00244141 17.01171875 7.2890625 17.125 C6.29036133 17.18139648 5.29166016 17.23779297 4.26269531 17.29589844 C2.67859863 17.36599121 2.67859863 17.36599121 1.0625 17.4375 C-17.78231468 18.65564858 -33.20751184 23.7137605 -47.5625 36.4375 C-48.17609375 36.95699219 -48.7896875 37.47648437 -49.421875 38.01171875 C-60.46100201 48.06340092 -68.61451201 64.06685676 -69.75537109 78.9543457 C-70.49739406 103.44335216 -65.36685438 121.74636761 -48.3125 140.0625 C-43.92747464 144.30956951 -38.8136291 147.37561714 -33.5625 150.4375 C-32.90507813 150.829375 -32.24765625 151.22125 -31.5703125 151.625 C-17.59136622 159.30442113 -2.01626668 159.56530658 13.49609375 159.578125 C16.17644929 159.5964275 18.85677395 159.61596787 21.53710938 159.63671875 C25.72654418 159.66714707 29.91566857 159.68980189 34.10522461 159.68798828 C36.86013696 159.68735412 39.61437791 159.6997444 42.36915588 159.72698975 C44.95215775 159.75232202 47.53542977 159.75872645 50.11851501 159.74420166 C51.2839534 159.76061707 52.44939178 159.77703247 53.65014648 159.79394531 C55.18589577 159.79941376 55.18589577 159.79941376 56.75267029 159.80499268 C60.42225113 160.66949323 61.46348895 162.30744356 63.4375 165.4375 C64.06329283 169.192257 63.80971859 170.82401258 61.83085632 174.08555603 C58.67250942 177.18925392 57.02341238 177.06514786 52.64379883 177.06860352 C51.63049751 177.07933647 51.63049751 177.07933647 50.59672546 177.09028625 C48.36197216 177.10719438 46.12922282 177.08773502 43.89453125 177.06640625 C42.32671443 177.06723602 40.75889771 177.06969949 39.19108582 177.07371521 C35.89641267 177.07657626 32.60241796 177.06186536 29.30786133 177.03442383 C25.13464132 177.0007047 20.96266316 177.00623274 16.7893877 177.0250864 C13.54341274 177.03579944 10.29771312 177.02658525 7.05176353 177.01170158 C5.51676954 177.00659832 3.98174573 177.0069034 2.44675636 177.01324654 C-11.44142648 177.04902941 -25.71362105 175.41826865 -38.0625 168.5625 C-39.0529834 168.03716675 -39.0529834 168.03716675 -40.06347656 167.5012207 C-41.91260965 166.50586632 -43.74034648 165.48124232 -45.5625 164.4375 C-46.41328125 163.95410156 -47.2640625 163.47070312 -48.140625 162.97265625 C-68.1724136 150.54285936 -80.92843763 130.00558033 -86.5625 107.4375 C-91.6935695 85.14912048 -87.01794941 60.92207578 -75.5625 41.4375 C-62.69232656 21.6001268 -43.29958675 8.04398706 -20.6875 1.5 C-13.85951381 0.11536402 -6.94885836 0.09052189 0 0 Z " fill="#000000" transform="translate(143.5625,71.5625)"/>
<path d="M0 0 C0.69656204 -0.00671722 1.39312408 -0.01343445 2.11079407 -0.02035522 C4.4019798 -0.03927761 6.69287197 -0.04325578 8.98413086 -0.04541016 C10.58166117 -0.05183975 12.17919029 -0.05856823 13.77671814 -0.06558228 C17.11972791 -0.07753889 20.46263443 -0.08126453 23.80566406 -0.08007812 C28.0887507 -0.07987448 32.37117717 -0.10722979 36.65410709 -0.14162254 C39.95095361 -0.1638545 43.24763995 -0.16791689 46.54455376 -0.16685867 C48.12381717 -0.16921818 49.70308476 -0.17806143 51.28227425 -0.19352341 C53.48943678 -0.21311919 55.69515805 -0.20737336 57.90234375 -0.1953125 C59.15745255 -0.19816254 60.41256134 -0.20101257 61.70570374 -0.20394897 C65.45044387 0.37820088 66.61895139 1.31586175 68.88647461 4.29052734 C69.41772461 6.29052734 69.41772461 6.29052734 69.38647461 8.29052734 C69.40194336 9.28052734 69.40194336 9.28052734 69.41772461 10.29052734 C68.63473776 13.23824254 67.24566137 14.38658589 64.88647461 16.29052734 C61.97145081 16.79605103 61.97145081 16.79605103 58.54492188 16.8046875 C56.61755943 16.82458237 56.61755943 16.82458237 54.65126038 16.84487915 C53.2518001 16.8399054 51.85234026 16.83480589 50.45288086 16.82958984 C49.01324471 16.8394994 47.57362125 16.85144164 46.13401794 16.86532593 C42.34653331 16.89768383 38.55933776 16.90807904 34.77172852 16.91217041 C28.71332029 16.92092626 22.65514965 16.95651576 16.59693718 17.00434494 C14.48474583 17.01690043 12.37285638 17.01617449 10.26063538 17.0140686 C8.97257492 17.02102753 7.68451447 17.02798645 6.35742188 17.03515625 C4.66009666 17.03704453 4.66009666 17.03704453 2.92848206 17.03897095 C-0.17154015 17.29532483 -2.35428186 17.87254021 -5.11352539 19.29052734 C-6.51287552 22.08922761 -6.36617944 24.19551526 -6.11352539 27.29052734 C-4.26009764 29.85002281 -3.17596146 30.26971532 -0.11352539 31.29052734 C1.62905813 31.39142544 3.37514494 31.43618797 5.12060547 31.44824219 C6.72258034 31.46363541 6.72258034 31.46363541 8.35691833 31.4793396 C9.51007034 31.48664093 10.66322235 31.49394226 11.85131836 31.50146484 C14.28426788 31.5295264 16.7172105 31.55819081 19.15014648 31.58740234 C22.99283711 31.62872424 26.83539806 31.66560549 30.67822266 31.69189453 C34.38202584 31.71944093 38.08524054 31.76530619 41.78881836 31.81396484 C42.93994614 31.81721771 44.09107391 31.82047058 45.27708435 31.82382202 C46.34821976 31.84038849 47.41935516 31.85695496 48.52294922 31.87402344 C49.93500893 31.88615372 49.93500893 31.88615372 51.37559509 31.89852905 C54.36734253 32.3656004 55.73160005 33.18375172 57.88647461 35.29052734 C58.99020839 39.26396896 59.30191043 41.38052506 57.57397461 45.16552734 C55.88647461 47.29052734 55.88647461 47.29052734 53.88647461 48.29052734 C51.98893499 48.40212214 50.08750309 48.449795 48.18676758 48.4675293 C46.39382767 48.48678215 46.39382767 48.48678215 44.56466675 48.50642395 C42.61634445 48.51750435 42.61634445 48.51750435 40.62866211 48.52880859 C39.63691168 48.53492188 39.63691168 48.53492188 38.62512589 48.54115868 C35.12109947 48.56202768 31.61711224 48.57632198 28.11303711 48.58569336 C24.50845644 48.59671964 20.90449964 48.63107194 17.30013847 48.67086506 C14.51698737 48.69713365 11.73398206 48.70539449 8.95071793 48.70897484 C6.98104276 48.71616305 5.01146764 48.74256515 3.04196167 48.7693634 C-5.28145788 48.74930855 -10.91952082 47.96576132 -17.35571289 42.32568359 C-17.89454102 41.67470703 -18.43336914 41.02373047 -18.98852539 40.35302734 C-19.54282227 39.70462891 -20.09711914 39.05623047 -20.66821289 38.38818359 C-25.14764636 31.88695177 -24.78816268 24.91911818 -24.11352539 17.29052734 C-22.43266957 10.63093401 -17.64974217 6.10505287 -12.11352539 2.29052734 C-7.99001052 0.26852451 -4.56864245 0.02773259 0 0 Z " fill="#000000" transform="translate(144.113525390625,135.70947265625)"/>
<path d="M0 0 C0.66 -0.0103125 1.32 -0.020625 2 -0.03125 C5.15822645 0.8076539 6.0736356 1.80368135 8 4.5 C8.62012471 8.2488445 8.55995295 11.97319423 8.53125 15.765625 C8.53699036 17.42667267 8.53699036 17.42667267 8.54284668 19.12127686 C8.54556841 21.4648123 8.53818908 23.80837798 8.52148438 26.15185547 C8.50016104 29.72302904 8.52123677 33.292172 8.546875 36.86328125 C8.54423018 39.14323358 8.53910203 41.42318466 8.53125 43.703125 C8.53934692 44.76484924 8.54744385 45.82657349 8.55578613 46.92047119 C8.46062834 54.52442986 7.18188637 59.86898057 2.03515625 65.7421875 C1.38417969 66.28101562 0.73320312 66.81984375 0.0625 67.375 C-0.58589844 67.92929688 -1.23429687 68.48359375 -1.90234375 69.0546875 C-6.38756445 72.14506303 -10.25814527 72.75527702 -15.65454102 72.79052734 C-16.6262323 72.80060318 -16.6262323 72.80060318 -17.61755371 72.81088257 C-19.74641708 72.82979109 -21.87496429 72.83378235 -24.00390625 72.8359375 C-25.48933541 72.84236792 -26.9747633 72.84909647 -28.46018982 72.85610962 C-31.56780943 72.86806265 -34.67531801 72.87179224 -37.78295898 72.87060547 C-41.76339548 72.87040181 -45.74312173 72.89775979 -49.72338963 72.93214989 C-52.78862275 72.95438741 -55.85368365 72.95844408 -58.91898918 72.95738602 C-60.38661089 72.95974458 -61.85423716 72.96858261 -63.32177925 72.98405075 C-65.37331194 73.00365893 -67.42329564 72.99789654 -69.47485352 72.98583984 C-71.22428001 72.9901149 -71.22428001 72.9901149 -73.00904846 72.99447632 C-76.61930966 72.3976132 -77.78552404 71.35380322 -80 68.5 C-80.53125 66.5 -80.53125 66.5 -80.5 64.5 C-80.5103125 63.84 -80.520625 63.18 -80.53125 62.5 C-79.75260427 59.56862785 -78.33190285 58.40504807 -76 56.5 C-73.27479553 55.99447632 -73.27479553 55.99447632 -70.11743164 55.98583984 C-68.93262711 55.9725766 -67.74782257 55.95931335 -66.52711487 55.94564819 C-65.25101852 55.95069366 -63.97492218 55.95573914 -62.66015625 55.9609375 C-60.65218906 55.94291972 -58.6442219 55.92489222 -56.63626003 55.90629005 C-53.82518886 55.88503538 -51.01420494 55.88165177 -48.20306396 55.87835693 C-43.28797575 55.87064886 -38.37303753 55.84367905 -33.45811462 55.80337524 C-30.84274537 55.78372926 -28.22727391 55.77441206 -25.61183167 55.77645874 C-24.42387497 55.76949982 -23.23591827 55.76254089 -22.01196289 55.75537109 C-20.44787437 55.75348282 -20.44787437 55.75348282 -18.85218811 55.7515564 C-15.84555196 55.48637804 -13.690126 54.85303913 -11 53.5 C-8.1243899 49.05651579 -8.72105015 43.63653681 -8.7265625 38.52734375 C-8.7062831 36.55663485 -8.68543251 34.58593175 -8.6640625 32.61523438 C-8.64141909 29.5187487 -8.62497174 26.42249256 -8.61914062 23.32592773 C-8.6096355 20.33014857 -8.5758949 17.33539395 -8.5390625 14.33984375 C-8.54410797 13.41372787 -8.54915344 12.487612 -8.55435181 11.53343201 C-8.45590215 5.11667502 -8.45590215 5.11667502 -6.09130859 1.91821289 C-3.83121652 0.38554013 -2.70552887 -0.04227389 0 0 Z " fill="#000000" transform="translate(256,15.5)"/>
<path d="M0 0 C2.4375 2.0625 2.4375 2.0625 4 5 C3.94807092 12.07719162 1.77764674 15.29456926 -3 20.3125 C-4.19652886 21.62780075 -5.39183661 22.94421336 -6.5859375 24.26171875 C-7.17213867 24.89899902 -7.75833984 25.5362793 -8.36230469 26.19287109 C-10.54203231 28.59811019 -12.58943422 31.0971974 -14.625 33.625 C-18.32348248 38.19052599 -22.10205829 42.68001723 -25.90795898 47.15576172 C-28.87681501 50.65385992 -31.79634514 54.18706216 -34.6875 57.75 C-35.41195312 58.62785156 -36.13640625 59.50570312 -36.8828125 60.41015625 C-38.30142037 62.1454644 -39.69210919 63.90395249 -41.0546875 65.68359375 C-45.70212265 71.47932513 -45.70212265 71.47932513 -48.99609375 72.80078125 C-52.03936883 73.10332906 -54.1963395 72.5694851 -56.70336914 70.79296875 C-62.51885569 65.51593832 -68.20833356 60.1130748 -73.80249023 54.60253906 C-74.8989066 53.52789713 -76.0015524 52.45957671 -77.11010742 51.39746094 C-78.73270953 49.84186121 -80.33464255 48.26735676 -81.93359375 46.6875 C-82.67566322 45.98717651 -82.67566322 45.98717651 -83.432724 45.27270508 C-86.94852249 41.73544908 -87.85507589 38.9455808 -88 34 C-86.86349056 31.62366207 -85.85558971 29.85558971 -84 28 C-80.32414804 27.28348876 -78.54241884 27.04728695 -75 28 C-70.7060778 31.20435174 -67.17106605 35.06818032 -63.5625 39 C-62.08009402 40.57489121 -60.59133496 42.14334448 -59.09788513 43.70776367 C-57.75472163 45.12088679 -56.42877619 46.5503161 -55.10375977 47.98046875 C-53.24556898 50.2308393 -53.24556898 50.2308393 -51 50 C-49.62508701 48.49212839 -48.32635538 46.91460239 -47.0625 45.3125 C-46.25683594 44.30445313 -45.45117188 43.29640625 -44.62109375 42.2578125 C-44.19296387 41.72188477 -43.76483398 41.18595703 -43.32373047 40.63378906 C-41.14217589 37.94124696 -38.87919883 35.31920585 -36.625 32.6875 C-32.76883304 28.16304801 -29.033604 23.5605018 -25.375 18.875 C-24.92060547 18.29484131 -24.46621094 17.71468262 -23.99804688 17.11694336 C-22.23478918 14.86434994 -20.47187931 12.61170878 -18.72460938 10.34667969 C-17.53441556 8.80692502 -16.32999995 7.2781953 -15.125 5.75 C-14.44695312 4.87859375 -13.76890625 4.0071875 -13.0703125 3.109375 C-9.11540787 -0.92015047 -5.34918569 -1.70718692 0 0 Z " fill="#000000" transform="translate(362,164)"/>
<path d="M0 0 C0.75222839 -0.0038269 1.50445679 -0.00765381 2.27947998 -0.01159668 C3.8697646 -0.01431434 5.46009402 -0.00696315 7.05029297 0.00976562 C9.46295212 0.03106091 11.87259311 0.01002482 14.28515625 -0.015625 C23.42197492 -0.03360829 30.30031262 0.20749847 37.4765625 6.49609375 C38.01539063 7.14707031 38.55421875 7.79804688 39.109375 8.46875 C39.94082031 9.44134766 39.94082031 9.44134766 40.7890625 10.43359375 C43.51385141 14.38821981 44.48369604 17.94519355 44.52490234 22.71704102 C44.53766205 23.72481094 44.55042175 24.73258087 44.56356812 25.77088928 C44.56579376 26.84809738 44.56801941 27.92530548 44.5703125 29.03515625 C44.5769693 30.15059311 44.5836261 31.26602997 44.59048462 32.41526794 C44.60059557 34.7695857 44.60530212 37.12393203 44.60498047 39.47827148 C44.60936351 43.08429829 44.64572843 46.6891107 44.68359375 50.29492188 C44.68946015 52.58332915 44.69343073 54.87174223 44.6953125 57.16015625 C44.70968353 58.23938858 44.72405457 59.31862091 44.73886108 60.43055725 C44.73270782 61.43517502 44.72655457 62.43979279 44.72021484 63.47485352 C44.72306488 64.35689957 44.72591492 65.23894562 44.72885132 66.14772034 C44.073145 69.30842873 42.69475526 70.5142343 40.234375 72.53125 C38.234375 73.0625 38.234375 73.0625 36.234375 73.03125 C35.244375 73.04671875 35.244375 73.04671875 34.234375 73.0625 C31.14346286 72.24147646 30.14856737 71.12047798 28.234375 68.53125 C27.62958351 65.25709345 27.67721458 62.01334913 27.6953125 58.69140625 C27.68351959 57.73229843 27.67172668 56.77319061 27.65957642 55.78501892 C27.62428464 52.72109778 27.615145 49.65785784 27.609375 46.59375 C27.59301859 43.53341777 27.57093466 40.47338993 27.53775024 37.41319275 C27.51816648 35.51008429 27.50878035 33.60683665 27.51083374 31.70362854 C27.5737911 25.32565743 27.5737911 25.32565743 25.234375 19.53125 C21.49090619 17.34731976 18.03093761 17.28050969 13.76171875 17.2578125 C12.53259766 17.2371875 11.30347656 17.2165625 10.03710938 17.1953125 C7.45644761 17.16923204 4.87569446 17.1510261 2.29492188 17.140625 C1.06708984 17.11742187 -0.16074219 17.09421875 -1.42578125 17.0703125 C-2.54605713 17.06209473 -3.66633301 17.05387695 -4.82055664 17.04541016 C-8.38818308 16.42256167 -9.56189639 15.34663245 -11.765625 12.53125 C-12.296875 10.53125 -12.296875 10.53125 -12.265625 8.53125 C-12.28109375 7.54125 -12.28109375 7.54125 -12.296875 6.53125 C-10.63023741 0.25684968 -5.61742755 -0.06318604 0 0 Z " fill="#000000" transform="translate(219.765625,423.46875)"/>
<path d="M0 0 C0.66 -0.0103125 1.32 -0.020625 2 -0.03125 C4.91560585 0.7432078 6.09317429 2.19486129 8 4.5 C8.50793457 7.03538513 8.50793457 7.03538513 8.51757812 9.92358398 C8.53018677 11.00828476 8.54279541 12.09298553 8.55578613 13.21055603 C8.54768921 14.37728348 8.53959229 15.54401093 8.53125 16.74609375 C8.5350769 17.94935806 8.53890381 19.15262238 8.54284668 20.39234924 C8.54556845 22.93678626 8.53818887 25.48125113 8.52148438 28.02563477 C8.50009931 31.91941826 8.52126972 35.81135249 8.546875 39.70507812 C8.54423141 42.17708741 8.53910578 44.64909554 8.53125 47.12109375 C8.53934692 48.28579697 8.54744385 49.45050018 8.55578613 50.65049744 C8.46235956 58.71118837 8.46235956 58.71118837 6.10546875 62.73217773 C3.70250049 64.74979058 2.6099596 65.17825273 -0.5 65.125 C-1.2528125 65.13789062 -2.005625 65.15078125 -2.78125 65.1640625 C-6.31872522 64.10531111 -7.13153416 62.71087996 -9 59.5 C-9.54638209 55.36903522 -9.41952298 51.28015573 -9.3125 47.12109375 C-9.29413086 45.91687271 -9.27576172 44.71265167 -9.25683594 43.47193909 C-9.21266723 40.92909675 -9.1582208 38.38641508 -9.09423828 35.84399414 C-9.00026898 31.94865025 -8.9490751 28.05436794 -8.90234375 24.15820312 C-8.8541298 21.68744857 -8.80343259 19.21674096 -8.75 16.74609375 C-8.73622314 15.5793663 -8.72244629 14.41263885 -8.70825195 13.21055603 C-8.67562256 12.12585526 -8.64299316 11.04115448 -8.609375 9.92358398 C-8.58842773 8.97047836 -8.56748047 8.01737274 -8.54589844 7.03538513 C-7.56884469 2.49753089 -4.64370796 -0.07255794 0 0 Z " fill="#000000" transform="translate(320,15.5)"/>
</svg>
