<?xml version="1.0" encoding="UTF-8"?>
<svg version="1.1" xmlns="http://www.w3.org/2000/svg" width="512" height="512">
<path d="M0 0 C1.10190674 0.29753174 1.10190674 0.29753174 2.22607422 0.60107422 C26.66046703 7.29988158 47.44109612 20.96653115 65 39 C65.495 39.44988281 65.99 39.89976563 66.5 40.36328125 C90.85941133 63.08745432 103.09371912 99.51378332 104.38574219 131.99707031 C105.02164101 162.7481774 91.10473944 191.93462376 78 219 C77.64615234 219.73412109 77.29230469 220.46824219 76.92773438 221.22460938 C75.08226757 225.03398909 73.1807777 228.81189199 71.24511719 232.57617188 C70.29691171 234.42201186 69.35303306 236.27007524 68.41113281 238.11914062 C59.99242251 254.64218875 51.29772648 270.94982727 42 287 C41.14341797 288.48258301 41.14341797 288.48258301 40.26953125 289.99511719 C32.31668013 303.74582501 24.21621226 317.40515683 16 331 C16.89332031 331.01417969 17.78664063 331.02835937 18.70703125 331.04296875 C67.02250087 332.49323511 119.44698663 343.91939697 162 367 C163.08925781 367.58652344 164.17851562 368.17304688 165.30078125 368.77734375 C180.54870001 377.32160318 195.56178851 389.31847756 201.375 406.3125 C204.37336555 417.14693016 203.81251769 426.77848354 199 437 C191.52950956 449.44519626 181.14950106 458.34611449 169 466 C168.42459473 466.36593262 167.84918945 466.73186523 167.25634766 467.10888672 C129.07782847 490.99023054 81.23756396 499.4475107 37.11785889 504.74285889 C35.114049 504.98615267 33.11188792 505.24291639 31.10986328 505.50048828 C-14.61751031 511.19213074 -64.31213159 510.80226306 -110 505 C-111.41907885 504.82642107 -112.83818768 504.65308707 -114.25732422 504.47998047 C-163.09545812 498.42620989 -221.72360158 488.41387636 -259 454 C-260.10214844 453.00033203 -260.10214844 453.00033203 -261.2265625 451.98046875 C-270.72826291 442.95919139 -277.04270333 432.24659151 -277.4375 418.875 C-276.7886815 402.28687375 -267.40858783 390.82635732 -255.75 379.875 C-212.66944913 342.82126195 -144.37562026 335.42211928 -90 330 C-90.65464233 328.93193115 -90.65464233 328.93193115 -91.32250977 327.84228516 C-101.8101947 310.70851797 -112.09018 293.47674326 -122 276 C-122.60521484 274.93523437 -123.21042969 273.87046875 -123.83398438 272.7734375 C-189.28570664 157.31131321 -189.28570664 157.31131321 -173.10058594 97.44726562 C-165.37257965 70.71647672 -149.76792556 45.57445479 -128 28 C-126.72576172 26.96939453 -126.72576172 26.96939453 -125.42578125 25.91796875 C-90.58170889 -1.22523086 -42.94994135 -12.40776083 0 0 Z M-120 39 C-120.81855469 39.68578125 -121.63710937 40.3715625 -122.48046875 41.078125 C-147.89873365 62.98906342 -162.53060919 95.1456805 -165.18457031 128.30615234 C-165.88506093 140.010393 -164.18980072 150.75762544 -161 162 C-160.80164551 162.69996094 -160.60329102 163.39992187 -160.39892578 164.12109375 C-150.34469366 198.48305175 -132.51386743 231.32436523 -114.62158203 262.16699219 C-112.23367822 266.3388133 -109.93402956 270.55789174 -107.62402344 274.77319336 C-100.83379723 287.14439105 -93.70282661 299.24763549 -86.3298645 311.27592468 C-85.79726517 312.14481071 -85.79726517 312.14481071 -85.25390625 313.03125 C-84.72191116 313.89886711 -84.72191116 313.89886711 -84.1791687 314.78401184 C-80.38549876 320.98284406 -76.69090376 327.23954893 -73 333.5 C-67.08957658 343.51624939 -61.09068113 353.47396942 -55.04006958 363.40588379 C-49.26714094 372.88368369 -43.57810984 382.40619929 -38 392 C-34.59311664 388.89618295 -32.29844804 385.48185386 -30.015625 381.5234375 C-29.64303558 380.88946045 -29.27044617 380.2554834 -28.88656616 379.60229492 C-28.08614609 378.23935322 -27.288364 376.87485949 -26.49298096 375.50897217 C-24.3753695 371.87341856 -22.23781703 368.24961995 -20.1015625 364.625 C-19.67052216 363.89268158 -19.23948181 363.16036316 -18.79537964 362.40585327 C-14.82545256 355.67405874 -10.74339261 349.01691502 -6.625 342.375 C-0.13067498 331.88311945 6.19591118 321.3035594 12.43652344 310.65917969 C13.99401401 308.01018105 15.56158672 305.36743421 17.1328125 302.7265625 C31.35681116 278.80707563 45.1115893 254.66650223 58 230 C58.54140625 228.96391602 59.0828125 227.92783203 59.640625 226.86035156 C80.63987258 186.40821188 99.6276841 144.9090462 85.79394531 99.15551758 C80.39543349 82.41674531 72.44067347 67.36789258 61 54 C60.57638184 53.4942041 60.15276367 52.9884082 59.71630859 52.46728516 C38.25027981 26.98091702 6.30789601 11.39034742 -26.75 8.40991211 C-60.66802488 5.85748721 -94.28935135 16.70303411 -120 39 Z M-253.44921875 395.35546875 C-260.30109625 402.71395457 -264.46566737 410.32622813 -264.265625 420.51171875 C-263.24013285 430.11816723 -257.64725395 436.43921439 -251 443 C-249.98099609 444.03447266 -249.98099609 444.03447266 -248.94140625 445.08984375 C-233.04528805 460.264777 -210.53062274 468.38946268 -190 475 C-188.68926514 475.43094971 -188.68926514 475.43094971 -187.35205078 475.87060547 C-158.79360043 485.15870659 -128.79412062 489.8227429 -99 493 C-97.97068359 493.11182617 -96.94136719 493.22365234 -95.88085938 493.33886719 C-24.05801108 500.85300676 53.35971349 496.08139847 122 473 C122.78294434 472.73719238 123.56588867 472.47438477 124.37255859 472.20361328 C144.61003622 465.28841036 163.61962295 456.11381939 179 441 C179.67160156 440.34128906 180.34320313 439.68257813 181.03515625 439.00390625 C186.52725688 433.20863233 190.05792456 426.58570247 190.5 418.5 C189.8677552 407.2578972 183.08342998 398.77406494 175.17578125 391.34765625 C158.36587422 376.81226197 136.8982285 368.65973074 116 362 C115.02434082 361.68724121 114.04868164 361.37448242 113.04345703 361.05224609 C79.23007196 350.43068519 43.31433383 345.06429042 8 343 C5.55939265 346.99810954 3.1222546 350.99832412 0.6875 355 C0.31428619 355.61337219 -0.05892761 356.22674438 -0.44345093 356.85870361 C-7.63707358 368.68969388 -14.71790512 380.58597835 -21.75317383 392.51171875 C-22.14093994 393.16766022 -22.52870605 393.82360168 -22.92822266 394.49942017 C-23.97727327 396.27408504 -25.02447321 398.04984353 -26.0715332 399.82568359 C-27.40305357 402.01740758 -28.799834 404.17033192 -30.24682617 406.28759766 C-32.18094478 408.74166887 -32.18094478 408.74166887 -32 411 C-35.3 411 -38.6 411 -42 411 C-42.37560059 409.96915283 -42.37560059 409.96915283 -42.75878906 408.91748047 C-44.19400025 405.5440002 -45.97713659 402.45608082 -47.859375 399.3203125 C-48.24062531 398.67891327 -48.62187561 398.03751404 -49.01467896 397.37667847 C-50.25613262 395.29058324 -51.50288551 393.20771517 -52.75 391.125 C-53.60972153 389.68370335 -54.46925792 388.24229625 -55.32861328 386.80078125 C-62.01643994 375.59456032 -68.73009755 364.40096648 -75.59277344 353.30078125 C-76.54278303 351.74753863 -77.47277621 350.1819003 -78.38378906 348.60546875 C-78.8165918 347.86941406 -79.24939453 347.13335937 -79.6953125 346.375 C-80.25629639 345.39660156 -80.25629639 345.39660156 -80.82861328 344.3984375 C-81.2151709 343.93695313 -81.60172852 343.47546875 -82 343 C-136.30784442 343 -213.207464 356.65406824 -253.44921875 395.35546875 Z " fill="#000000" transform="translate(293,4)"/>
<path d="M0 0 C1.61239858 1.36533751 3.21664542 2.74036147 4.8125 4.125 C5.62203125 4.77855469 6.4315625 5.43210937 7.265625 6.10546875 C25.19076553 21.12763841 37.42605089 44.88098571 39.8125 68.125 C40.57739022 83.47523104 40.5493087 98.40278079 35.8125 113.125 C35.60351074 113.77855469 35.39452148 114.43210938 35.17919922 115.10546875 C26.70848057 140.53666003 7.61380537 161.17408958 -16.12304688 173.13183594 C-40.55963926 184.88775573 -68.59011468 187.02217785 -94.32739258 178.12451172 C-121.15206739 168.30553572 -141.98287217 149.91848664 -154.31933594 124.07470703 C-165.29147762 99.43367119 -166.2944047 71.49781712 -156.99414062 46.16748047 C-146.87984258 20.55724515 -128.36202151 0.26369688 -103.5234375 -11.703125 C-70.14169739 -26.10309132 -28.98314651 -22.71773848 0 0 Z M-130.1875 25.125 C-145.65914925 44.92513378 -152.4847102 68.89917034 -149.5 93.875 C-145.76893155 117.72252841 -133.014996 139.31540079 -113.5625 153.75 C-92.85176252 167.45992481 -69.03958634 173.51363394 -44.375 168.9375 C-21.16643995 163.53958196 -0.53004182 151.30286037 12.8125 131.125 C25.79195547 109.73334608 30.84699815 86.87575266 25.8125 62.125 C21.74019277 46.51174109 14.67409906 33.06889363 3.8125 21.125 C2.91144531 20.08472656 2.91144531 20.08472656 1.9921875 19.0234375 C-12.65911797 3.10362074 -34.86391049 -6.08180195 -56.25390625 -7.22265625 C-84.99493038 -8.05549119 -111.27556193 3.1845744 -130.1875 25.125 Z " fill="#000000" transform="translate(317.1875,60.875)"/>
<path d="M0 0 C3.22828819 2.07784367 6.10713945 4.48204607 9 7 C9.93392578 7.79083984 9.93392578 7.79083984 10.88671875 8.59765625 C24.10777115 20.68971991 26.4580939 36.18415351 28 53 C28.6496875 52.83886719 29.299375 52.67773438 29.96875 52.51171875 C33.83653536 51.85878076 37.58484907 51.81588096 41.5 51.8125 C42.24636719 51.80025391 42.99273437 51.78800781 43.76171875 51.77539062 C47.93750105 51.76430448 51.23474099 51.97200739 55 54 C61.56879129 62.02852268 60.59338492 74.21871958 60 84 C58.20069744 97.5765557 51.09312174 109.85662974 41 119 C23.00553825 132.70002944 0.64864686 134.24410826 -21.23828125 131.5703125 C-36.56613393 128.75818098 -49.44138391 120.65767945 -58.8125 108.25 C-67.70898405 94.81063047 -69.96192556 79.19099954 -67.43359375 63.48046875 C-65.4702706 55.80192219 -65.4702706 55.80192219 -62 53 C-59.29799651 52.09933217 -57.71968573 51.87161637 -54.9453125 51.8671875 C-54.16542969 51.86589844 -53.38554687 51.86460937 -52.58203125 51.86328125 C-51.36580078 51.86908203 -51.36580078 51.86908203 -50.125 51.875 C-49.32191406 51.87113281 -48.51882812 51.86726563 -47.69140625 51.86328125 C-43.66306714 51.86991772 -39.93058896 51.99746112 -36 53 C-35.96132812 51.71029297 -35.96132812 51.71029297 -35.921875 50.39453125 C-35.13912183 34.0812435 -30.37823771 19.90483384 -19 8 C-6.84361977 -1.9908712 -6.84361977 -1.9908712 0 0 Z M-10.05859375 17.97265625 C-19.75391641 28.09714812 -22.34289923 39.03408095 -22.30078125 52.58203125 C-21.92868119 56.81044104 -21.24293108 59.64860559 -18.34375 62.80078125 C-17.7353125 63.29964844 -17.126875 63.79851562 -16.5 64.3125 C-15.58734375 65.08013672 -15.58734375 65.08013672 -14.65625 65.86328125 C-13.05996882 67.18862281 -13.05996882 67.18862281 -11 67 C-10.9906543 66.29391602 -10.98130859 65.58783203 -10.97167969 64.86035156 C-10.91794341 61.65619455 -10.83430243 58.45349243 -10.75 55.25 C-10.73582031 54.13882813 -10.72164062 53.02765625 -10.70703125 51.8828125 C-10.67480469 50.81289062 -10.64257812 49.74296875 -10.609375 48.640625 C-10.5779541 47.16384277 -10.5779541 47.16384277 -10.54589844 45.65722656 C-9.85521643 42.29524851 -8.71209673 41.05276188 -6 39 C-0.6875 39.3125 -0.6875 39.3125 1 41 C1.15825258 42.99782126 1.25119171 45.00088834 1.31640625 47.00390625 C1.35830078 48.21884766 1.40019531 49.43378906 1.44335938 50.68554688 C1.48267578 51.96494141 1.52199219 53.24433594 1.5625 54.5625 C1.60568359 55.84576172 1.64886719 57.12902344 1.69335938 58.45117188 C1.799848 61.63399853 1.90185962 64.81690674 2 68 C3.27310312 67.06558465 4.543388 66.12732889 5.8125 65.1875 C6.87404297 64.40439453 6.87404297 64.40439453 7.95703125 63.60546875 C11.79350801 60.59057019 13.39034459 58.94179504 14 54 C15.08700558 40.7242761 12.04457152 30.99195241 4.09765625 20.375 C1.90779303 17.89560179 -0.30615635 15.91720009 -3 14 C-6.14513832 14 -7.80554167 15.97360169 -10.05859375 17.97265625 Z M-54 65 C-56.99549128 74.93626375 -55.33957694 85.7703983 -51 95 C-44.75210241 106.02477119 -35.67690897 114.29553636 -23.31640625 117.75 C-19.14265248 118.64304687 -15.27369481 119.08320468 -11 119 C-11 116.36 -11 113.72 -11 111 C-11.49814209 110.72849121 -11.99628418 110.45698242 -12.50952148 110.17724609 C-17.29424356 107.56277083 -22.05971286 104.9165144 -26.80712891 102.23486328 C-28.59774083 101.2265227 -30.39724599 100.23398846 -32.19921875 99.24609375 C-34.38451953 97.9546197 -36.24368816 96.83073183 -38 95 C-38.75 91.25 -38.75 91.25 -38 88 C-35 86 -35 86 -32.36328125 86.08984375 C-27.91602081 87.29334164 -24.19746852 89.33018163 -20.1875 91.5625 C-18.66101466 92.39870435 -17.13371527 93.23342499 -15.60546875 94.06640625 C-14.93668701 94.43709229 -14.26790527 94.80777832 -13.57885742 95.18969727 C-12.14749614 96.07609979 -12.14749614 96.07609979 -11 96 C-10.13500753 90.52171437 -12.17167058 87.05871952 -15.04296875 82.59375 C-21.69421507 73.77852533 -30.9702433 67.01865358 -42 65 C-44.08234592 64.93256652 -46.16668557 64.91485528 -48.25 64.9375 C-49.32765625 64.94652344 -50.4053125 64.95554687 -51.515625 64.96484375 C-52.74539062 64.98224609 -52.74539062 64.98224609 -54 65 Z M8.57421875 80.07421875 C4.56633489 84.97716352 1.62615615 89.54269712 2 96 C7.66682227 94.34717684 12.40135089 91.66229962 17.43359375 88.65820312 C20.66917592 86.83529334 22.658419 85.98002221 26.40625 86.19921875 C29 87 29 87 30 88 C30.625 91.1875 30.625 91.1875 30 95 C27.47979563 97.7185878 24.23938416 99.26018721 21 101 C20.24396484 101.40750488 19.48792969 101.81500977 18.70898438 102.23486328 C13.16743702 105.21147196 7.59501409 108.12529387 2 111 C2 113.64 2 116.28 2 119 C13.64730592 119.77648706 24.36306795 115.29195589 33.125 107.875 C41.33843839 100.16622756 46.54667849 90.74004498 47.2109375 79.3984375 C47.35387797 72.11202204 47.35387797 72.11202204 46 65 C30.97913193 64.05628054 18.95141559 69.16485797 8.57421875 80.07421875 Z " fill="#000000" transform="translate(260,77)"/>
</svg>
