<?xml version="1.0" encoding="UTF-8"?>
<svg version="1.1" xmlns="http://www.w3.org/2000/svg" width="512" height="512">
<path d="M0 0 C1.0063147 0.00456207 1.0063147 0.00456207 2.03295898 0.00921631 C34.49689292 0.22575802 63.34094534 13.33623958 86.07543945 36.34521484 C102.22592434 53.27975158 113.56232778 76.17163264 116.75 99.4375 C116.91435547 100.55511719 116.91435547 100.55511719 117.08203125 101.6953125 C120.83030703 131.9813808 112.80791751 162.82242994 94.75 187.4375 C84.71280337 200.11587906 84.71280337 200.11587906 79.8203125 203.41015625 C79.13710938 204.07917969 78.45390625 204.74820313 77.75 205.4375 C77.8104204 209.97452288 79.17103856 214.19760229 80.41308594 218.53833008 C85.19915255 235.2985596 88.28980456 252.99009015 88.75 270.4375 C88.77046387 271.1078125 88.79092773 271.778125 88.81201172 272.46875 C90.55006484 336.81980756 66.84253195 396.20453899 23.22509766 443.07617188 C16.52246024 450.12159454 9.41869693 456.44699437 1.75 462.4375 C0.77804687 463.22640625 -0.19390625 464.0153125 -1.1953125 464.828125 C-10.04852749 471.88407078 -19.4689688 477.75569256 -29.25 483.4375 C-29.86536621 483.80085449 -30.48073242 484.16420898 -31.11474609 484.53857422 C-60.66964172 501.85699693 -97.26113162 512.3540196 -131.5859375 512.67578125 C-132.45471527 512.6855751 -133.32349304 512.69536896 -134.21859741 512.70545959 C-153.89738415 512.88148187 -172.93053582 512.63349602 -192.25 508.4375 C-193.73935059 508.11604004 -193.73935059 508.11604004 -195.25878906 507.78808594 C-229.99707414 500.01693587 -262.98470879 484.39178551 -290.25 461.4375 C-290.8279834 460.95958008 -291.4059668 460.48166016 -292.00146484 459.98925781 C-304.30469929 449.81536484 -315.4056684 439.0396408 -325.25 426.4375 C-326.03890625 425.46554687 -326.8278125 424.49359375 -327.640625 423.4921875 C-364.78910433 376.88135966 -381.28279093 315.34211524 -375.23217773 256.32519531 C-372.34022639 230.96682555 -366.02469306 206.60781122 -355.25 183.4375 C-354.93450195 182.75284668 -354.61900391 182.06819336 -354.29394531 181.36279297 C-343.51825807 158.23135657 -329.00099275 137.71853794 -311.25 119.4375 C-310.70230957 118.86402832 -310.15461914 118.29055664 -309.59033203 117.69970703 C-301.89084738 109.64874804 -293.92282282 102.34718053 -284.96923828 95.71240234 C-283.30028678 94.4747902 -281.64822447 93.21696181 -279.99609375 91.95703125 C-258.08916513 75.51785788 -232.65852228 63.5530259 -206.25 56.4375 C-205.41742676 56.21223633 -204.58485352 55.98697266 -203.72705078 55.75488281 C-173.1718684 47.70407174 -137.79988985 44.29546138 -106.6171875 51.00390625 C-103.32556203 51.60682775 -100.58964092 51.81571528 -97.25 51.4375 C-94.87252195 49.2498846 -94.87252195 49.2498846 -93.0625 46.1875 C-76.125798 21.495358 -48.28650754 6.47314528 -19.28173828 1.06152344 C-12.88090975 -0.01675856 -6.47700841 -0.05144371 0 0 Z M-68.9375 49.6875 C-86.53172736 68.08880201 -95.95965697 91.9738346 -96.5 117.4375 C-95.98253801 140.44933925 -87.99249147 163.38313424 -72.25 180.4375 C-71.37859375 181.40042969 -70.5071875 182.36335937 -69.609375 183.35546875 C-52.98757792 201.16251168 -29.54065396 212.78347486 -4.97265625 213.640625 C21.39473374 214.0867164 43.44800304 206.50243678 63.75 189.4375 C64.99716797 188.48037109 64.99716797 188.48037109 66.26953125 187.50390625 C83.5405312 173.11593937 93.50965569 149.698505 96.4375 127.9375 C96.5648344 126.43928885 96.66728867 124.93883592 96.75 123.4375 C96.80285156 122.51066406 96.85570312 121.58382812 96.91015625 120.62890625 C97.66605114 94.30404507 87.70115769 70.46309919 70.44140625 50.80859375 C52.24770623 31.71865234 28.54267004 21.83478297 2.31689453 20.49658203 C-24.87772556 19.87064537 -49.4075653 31.2842923 -68.9375 49.6875 Z M-227.25 86.4375 C-227.99685059 86.75444824 -228.74370117 87.07139648 -229.51318359 87.39794922 C-246.10709439 94.54774907 -261.28667529 103.99681156 -275.25 115.4375 C-275.77368164 115.85966797 -276.29736328 116.28183594 -276.83691406 116.71679688 C-290.60954743 127.83859552 -302.78983249 140.14359021 -313.25 154.4375 C-314.40242188 156.00757813 -314.40242188 156.00757813 -315.578125 157.609375 C-348.73200868 204.21028843 -361.53567701 261.03931797 -352.25 317.4375 C-344.93688596 356.77291957 -327.5555984 392.65379313 -300.40234375 422.09765625 C-298.28283386 424.40180584 -296.23564658 426.75745434 -294.1875 429.125 C-290.47746447 433.28429765 -286.55299697 436.9024012 -282.25 440.4375 C-281.74114258 440.86401855 -281.23228516 441.29053711 -280.70800781 441.72998047 C-237.71760923 477.69523925 -182.11533671 496.56683481 -125.96630859 491.71484375 C-79.24340165 486.94428629 -35.10062143 468.39733096 -0.8984375 435.91015625 C0.99804108 434.13955014 2.88404444 432.47870456 4.88671875 430.83984375 C7.14467615 428.94537745 9.04386421 427.17127948 10.9375 424.9375 C11.52273438 424.24785156 12.10796875 423.55820312 12.7109375 422.84765625 C13.38382812 422.05230469 14.05671875 421.25695312 14.75 420.4375 C15.58789062 419.48746094 16.42578125 418.53742188 17.2890625 417.55859375 C28.27930717 405.01766266 37.00375441 391.1777218 44.75 376.4375 C45.09272949 375.78620117 45.43545898 375.13490234 45.78857422 374.46386719 C70.26386235 327.15356873 74.10849207 270.16706471 58.75 219.4375 C54.43642434 220.80173326 50.37242749 222.45355489 46.25 224.3125 C17.66982623 236.77471872 -15.09279645 236.7083064 -44.03710938 225.36474609 C-55.46382492 220.57672032 -65.6997691 214.31820906 -75.25 206.4375 C-76.04792969 205.79167969 -76.84585937 205.14585937 -77.66796875 204.48046875 C-99.50219317 186.02848219 -112.51577922 157.74153298 -115.875 129.6875 C-117.52117763 109.96385325 -114.45393953 91.14740459 -108.25 72.4375 C-109.85282217 72.11817566 -111.4573779 71.80755486 -113.0625 71.5 C-113.95582031 71.32597656 -114.84914063 71.15195313 -115.76953125 70.97265625 C-153.33957486 65.19589309 -192.50859279 71.58898129 -227.25 86.4375 Z " fill="#000000" transform="translate(385.25,-0.4375)"/>
<path d="M0 0 C5.88051043 4.14575985 9.38429284 9.10961473 12.53125 15.52734375 C12.90378906 16.28144531 13.27632812 17.03554687 13.66015625 17.8125 C17.66523741 30.29470361 13.94084694 43.18169142 8.53125 54.52734375 C8.05171875 55.54699219 7.5721875 56.56664062 7.078125 57.6171875 C-3.28698675 77.92027728 -21.66196728 93.1564726 -42.984375 100.78515625 C-61.99805724 106.54041881 -82.65378762 107.77098855 -101.46875 100.52734375 C-104.5667801 98.86750887 -106.97788756 96.99535424 -109.46875 94.52734375 C-110.09265625 93.92921875 -110.7165625 93.33109375 -111.359375 92.71484375 C-119.01157784 84.74111978 -121.09715488 76.58022525 -120.93505859 65.78320312 C-120.49413205 55.60797526 -116.94359509 49.06764411 -109.890625 41.7265625 C-103.19218267 35.64394471 -95.33267763 32.25544651 -86.20068359 32.6171875 C-82.7195744 32.83731548 -79.24576394 33.05817133 -75.77612305 33.42041016 C-69.69515867 33.92700889 -65.483537 33.12029711 -60.46875 29.52734375 C-57.06015628 26.11875003 -55.72769326 22.88976681 -54.28125 18.33984375 C-50.67239243 8.56493198 -43.91598471 1.03446198 -34.46875 -3.47265625 C-23.18080707 -8.21359228 -10.25313863 -6.11619187 0 0 Z M-32.59375 22.15234375 C-34.13385355 24.92453015 -35.23989854 27.45270789 -36.34375 30.40234375 C-39.65864337 38.99268999 -45.58058627 46.67881941 -53.99609375 50.75 C-60.05082621 53.23057321 -65.08214964 54.66805247 -71.65625 54.65234375 C-72.80867188 54.64976562 -73.96109375 54.6471875 -75.1484375 54.64453125 C-77.9491567 54.54568234 -80.52746745 54.24750175 -83.28125 53.77734375 C-88.1565925 53.15896391 -91.57478518 54.62664761 -95.46875 57.52734375 C-98.64026079 60.93671785 -99.71680676 63.52805056 -99.90625 68.08984375 C-99.64246212 73.33042964 -97.96573631 76.07194039 -94.21875 79.71484375 C-84.22842341 86.29937718 -69.51742981 85.30910183 -58.20068359 82.98852539 C-39.68644501 78.74501255 -24.2964081 68.03338656 -14.03125 52.02734375 C-9.00866288 43.31258786 -4.98139307 34.79010654 -6.46875 24.52734375 C-8.02078473 20.32772036 -10.52609934 18.31587099 -14.5078125 16.2578125 C-21.96797872 13.47882628 -27.73441476 16.14963551 -32.59375 22.15234375 Z " fill="#000000" transform="translate(314.46875,225.47265625)"/>
<path d="M0 0 C7.59285241 6.31155856 12.84351698 12.80485217 15.75 22.3125 C15.94207031 22.93253906 16.13414062 23.55257813 16.33203125 24.19140625 C18.73700267 36.39607428 16.0490609 47.68322887 9.47265625 57.9921875 C3.08826369 66.59157339 -5.77464017 70.71545912 -15.625 74.25 C-20.24772032 76.09620344 -22.05845212 77.68589892 -24.25 82.3125 C-25.02649534 84.41458382 -25.79668274 86.51900254 -26.5625 88.625 C-30.41122078 98.92736842 -36.78145159 106.79788898 -46.83984375 111.53125 C-57.29596999 115.83039148 -67.92709868 117.16683012 -78.84765625 113.34375 C-90.73237808 108.24201575 -98.21871503 100.76469973 -103.33984375 88.890625 C-107.22585961 77.88302643 -105.98205398 66.14742102 -101.03125 55.75390625 C-94.96510228 44.68318665 -86.82997193 39.61363243 -75.25 35.3125 C-70.61367126 33.5559722 -67.35998341 32.21685277 -65 27.6875 C-64.03926823 25.44579253 -63.20186058 23.1796352 -62.37109375 20.88671875 C-58.05485415 9.27440885 -50.82315372 1.2288276 -39.5625 -4 C-26.91508978 -9.47977372 -11.27260528 -7.87327879 0 0 Z M-37.94140625 20.1953125 C-40.81321847 24.2115311 -42.66861445 28.20861642 -44.25 32.875 C-47.16875393 41.4398681 -52.33511104 47.84520071 -60.25 52.3125 C-63.4387386 53.66941004 -66.62051213 54.9663797 -69.88256836 56.13330078 C-75.39151376 58.14735461 -79.83686656 60.64968251 -82.5625 66 C-84.92666899 71.20117178 -85.22955626 75.96364204 -83.625 81.44921875 C-81.25716685 86.99882769 -77.37732446 90.26979616 -72.25 93.3125 C-67.03079895 95.05223368 -62.70609457 94.78141181 -57.5625 93.125 C-50.30255496 89.15257724 -47.0687584 83.46149639 -44.39453125 75.890625 C-41.08303691 66.57795097 -35.56809259 59.85551652 -26.68359375 55.359375 C-23.99068659 54.20094945 -21.26758847 53.2158698 -18.5 52.25 C-12.67359199 50.19409871 -9.05967056 48.06188321 -5.9375 42.625 C-3.57658679 37.43099094 -3.19885052 32.59586579 -4.9453125 27.140625 C-7.52324012 21.37819855 -11.07397822 18.11510695 -16.5625 15 C-24.54301464 12.958473 -32.23554812 13.8437568 -37.94140625 20.1953125 Z " fill="#000000" transform="translate(400.25,295.6875)"/>
<path d="M0 0 C8.92625334 6.63862058 15.66832268 15.04730149 18.078125 26.09765625 C19.88015471 39.33478805 17.4041791 50.68964949 9.39453125 61.421875 C3.40555545 68.20700433 -3.24253965 71.31564419 -11.60546875 74.421875 C-16.24179749 76.1784028 -19.49548534 77.51752223 -21.85546875 82.046875 C-22.81620052 84.28858247 -23.65360817 86.5547398 -24.484375 88.84765625 C-28.8006146 100.45996615 -36.03231503 108.5055474 -47.29296875 113.734375 C-57.62311188 118.21014085 -69.53703277 117.62399677 -79.921875 113.6796875 C-89.83706663 109.03239244 -97.60961253 100.60227252 -101.60546875 90.421875 C-105.42771687 79.14624304 -104.50240918 67.48283588 -99.3515625 56.828125 C-92.92669256 45.20383716 -83.41920143 39.85797908 -71.23046875 35.484375 C-66.60774843 33.63817156 -64.79701663 32.04847608 -62.60546875 27.421875 C-61.82897341 25.31979118 -61.05878601 23.21537246 -60.29296875 21.109375 C-56.05813982 9.77346098 -48.86406274 2.19213838 -37.91796875 -2.890625 C-25.93565272 -8.08223176 -11.10501521 -6.72627608 0 0 Z M-37.60546875 23.421875 C-39.60852586 26.74546605 -41.16904717 30.18634359 -42.4609375 33.84375 C-45.77243184 43.15642403 -51.28737616 49.87885848 -60.171875 54.375 C-62.86478216 55.53342555 -65.58788028 56.5185052 -68.35546875 57.484375 C-74.18187676 59.54027629 -77.79579819 61.67249179 -80.91796875 67.109375 C-83.27888196 72.30338406 -83.65661823 77.13850921 -81.91015625 82.59375 C-79.33222863 88.35617645 -75.78149053 91.61926805 -70.29296875 94.734375 C-63.9875839 96.34738043 -58.17101019 96.12897011 -52.44921875 92.859375 C-46.8875464 88.52315588 -44.47822527 82.32509293 -42.16796875 75.859375 C-38.82361714 66.73163828 -33.36882831 60.65246237 -24.60546875 56.421875 C-21.30998747 55.11966058 -18.00482366 53.88943616 -14.65625 52.73046875 C-9.00894854 50.30813074 -5.83465821 47.12609182 -3.3359375 41.62890625 C-1.54719499 36.22441685 -1.91569311 31.34607937 -4.23046875 26.171875 C-6.87920753 21.47340551 -10.25232638 18.72229578 -14.98046875 16.109375 C-24.02422896 13.74077113 -31.63199747 16.15684236 -37.60546875 23.421875 Z " fill="#000000" transform="translate(186.60546875,130.578125)"/>
<path d="M0 0 C6.27538541 5.20997483 10.21431922 10.21191844 12.71875 17.98828125 C14.5285295 23.35852492 16.99940476 26.48095885 21.84375 29.42578125 C24.78481222 30.40613532 26.18649873 30.46984463 29.1953125 30.234375 C30.04738281 30.17701172 30.89945312 30.11964844 31.77734375 30.06054688 C33.54859593 29.9307236 35.31945866 29.79545277 37.08984375 29.65429688 C47.51806435 28.97419553 55.41390646 31.14526868 63.84375 37.42578125 C70.60638064 43.43987644 74.33331521 50.24776237 75.22265625 59.26953125 C75.71856932 70.32917991 73.79895953 78.23915059 66.59375 86.80078125 C57.05286438 96.71399411 44.2007177 98.78006881 30.83203125 99.421875 C8.74252817 99.44351016 -11.5332177 92.23893566 -28.15625 77.42578125 C-28.91550781 76.760625 -29.67476562 76.09546875 -30.45703125 75.41015625 C-43.07653995 63.64066627 -53.64798327 45.1202991 -54.53125 27.67578125 C-54.23175886 17.3985063 -50.53701135 9.74320563 -43.37109375 2.484375 C-31.40983374 -8.63305714 -13.23497716 -9.66249239 0 0 Z M-30.46875 19.67578125 C-33.12743282 24.00844954 -33.5106918 27.83817734 -32.40625 32.78515625 C-25.36466273 51.88546172 -13.97512046 65.05388045 4.66015625 73.73828125 C17.9316612 78.99279267 33.52979979 80.47198904 47.0703125 75.3125 C49.55283767 74.07123742 51.18309089 72.6399934 52.84375 70.42578125 C54.59642445 65.16775789 54.61486783 61.06055105 52.28125 56.11328125 C49.28495048 52.80966896 47.13420718 51.64141078 42.84375 50.42578125 C40.93556127 50.58749216 39.02398733 50.76104987 37.13671875 51.0859375 C25.65047655 52.78832774 15.38482501 50.96881704 5.9375 44.1328125 C-0.03501508 39.26342987 -3.3684489 34.39840857 -6.21875 27.23828125 C-8.4709397 21.67334692 -9.85344534 18.34773484 -15.15625 15.42578125 C-21.73623541 13.54578542 -25.63160668 14.96937154 -30.46875 19.67578125 Z " fill="#000000" transform="translate(180.15625,363.57421875)"/>
<path d="M0 0 C2.00801025 1.44592244 3.82458372 2.97367183 5.6484375 4.64453125 C6.57076172 5.43150391 6.57076172 5.43150391 7.51171875 6.234375 C16.17842779 14.12163698 19.04483407 24.15984874 19.9609375 35.51953125 C19.53895058 47.8316201 14.67781832 58.10326892 5.8359375 66.51953125 C-3.20755734 74.17275748 -13.47326888 77.10649206 -25.2890625 76.58203125 C-36.76905714 75.26027249 -45.70957391 70.2519668 -53.3515625 61.64453125 C-60.47029868 51.70488509 -63.42868218 41.86749803 -62.3515625 29.64453125 C-60.17094904 18.21367217 -54.96968914 8.83377945 -45.6640625 1.70703125 C-31.72976173 -7.16995056 -14.50309601 -8.359758 0 0 Z M-38.1640625 24.921875 C-41.28901458 29.45511141 -41.8153522 33.17181277 -41.3515625 38.64453125 C-39.96313168 45.61417901 -36.17508837 49.74061206 -30.3515625 53.64453125 C-25.29085599 55.81340547 -20.6471698 56.20799626 -15.3515625 54.64453125 C-9.03483513 51.66450868 -4.69529735 47.97187468 -2.0390625 41.39453125 C-0.95244751 35.46754041 -1.24349013 30.77859655 -4.0390625 25.39453125 C-8.89231438 19.62309658 -13.48692435 16.02465959 -21.1640625 15.26953125 C-28.54623966 15.50587214 -33.72734191 19.2433549 -38.1640625 24.921875 Z " fill="#000000" transform="translate(123.3515625,273.35546875)"/>
<path d="M0 0 C3.79296748 3.00276593 5.67476274 5.26540129 6.5625 10 C6.35597481 19.10588347 -5.05346443 27.17283212 -11.18359375 33.1875 C-14.01994356 36.0199159 -16.63208362 38.95771782 -19.2265625 42.0078125 C-22.19693779 45.34457769 -25.42081411 48.42778176 -28.59765625 51.56640625 C-30.63714373 53.63242365 -32.555078 55.73005549 -34.4375 57.9375 C-37.39214062 61.35424081 -40.43459708 64.67907042 -43.5625 67.9375 C-44.45066406 68.87464844 -45.33882813 69.81179687 -46.25390625 70.77734375 C-49.41712546 73.33761648 -50.94592811 74.00511232 -55 74 C-60.91648356 72.00354568 -64.46522219 69.09215125 -68.7734375 64.65234375 C-69.38265045 64.03984268 -69.9918634 63.42734161 -70.61953735 62.79627991 C-71.89640169 61.50904832 -73.16850957 60.2170827 -74.43603516 58.9206543 C-76.38109927 56.93126172 -78.33944519 54.95576212 -80.30078125 52.98242188 C-81.54245065 51.72733762 -82.7833635 50.47150435 -84.0234375 49.21484375 C-84.90145523 48.32574562 -84.90145523 48.32574562 -85.79721069 47.41868591 C-90.94441977 42.14865808 -90.94441977 42.14865808 -91.1875 37.125 C-91.07657553 31.54852452 -91.07657553 31.54852452 -89 29 C-85.17372015 26.35804487 -81.96890789 25.42910466 -77.32275391 26.10620117 C-72.01622047 28.14816238 -68.30954215 33.00101865 -64.5 37.0625 C-63.57457365 38.02308348 -62.64750284 38.98208554 -61.71875 39.93945312 C-59.46252171 42.27793974 -57.22426473 44.63115807 -55 47 C-54.33742188 46.33613281 -53.67484375 45.67226562 -52.9921875 44.98828125 C-50.75424264 42.74954894 -48.50714862 40.52025255 -46.2578125 38.29296875 C-44.88015605 36.9245318 -43.50255306 35.55604103 -42.125 34.1875 C-41.44308594 33.51396484 -40.76117188 32.84042969 -40.05859375 32.14648438 C-36.05095351 28.15792814 -32.24946231 24.06182337 -28.55859375 19.77905273 C-26.61493455 17.56046806 -24.55361669 15.49126335 -22.4375 13.4375 C-19.18525017 10.23511431 -16.15818251 6.95880468 -13.2890625 3.41015625 C-9.48615056 -0.74999894 -5.26886044 -0.9336051 0 0 Z " fill="#000000" transform="translate(436,78)"/>
<path d="M0 0 C3.14373796 2.67217727 3.87287599 4.52540369 4.9375 8.5 C5.00870535 12.48749959 4.47505731 13.92751507 2 17 C-0.52414681 19.61429492 -1.76807058 19.97469861 -5.4375 20.375 C-9.20656993 19.9782558 -11.02618388 19.29408672 -14 17 C-16.66836411 12.99745384 -16.8340238 9.70686701 -16 5 C-11.19115788 -1.07432689 -7.28495761 -1.86660835 0 0 Z " fill="#000000" transform="translate(240,114)"/>
<path d="M0 0 C2.44597914 1.90242822 3.35040209 2.80586139 4.25 5.75 C4.70208548 10.72294029 4.40736025 13.80329969 1.25 17.75 C-2.17176689 20.31632517 -5.59640421 20.11435051 -9.75 19.75 C-13.56215241 18.05571004 -15.23308675 16.60115874 -16.75 12.75 C-16.98125754 8.37152387 -16.52437401 4.78249869 -13.875 1.25 C-9.43967581 -1.88081708 -4.91438512 -2.23381142 0 0 Z " fill="#000000" transform="translate(394.75,247.25)"/>
<path d="M0 0 C2.74039337 1.24563335 4.4643868 2.31135445 6.3125 4.6875 C7.34754666 8.16902059 7.71228432 11.4456307 7 15 C3.85987727 18.883836 1.71258797 20.8023937 -3.25 21.375 C-8.10423522 20.88957648 -9.80346282 19.65318534 -13 16 C-14.42229465 12.05889304 -14.42828638 9.07071596 -12.875 5.1875 C-9.12856072 0.81665417 -5.7592953 -0.71991191 0 0 Z " fill="#000000" transform="translate(200,226)"/>
<path d="M0 0 C3.51038651 2.59463351 4.77811815 4.23728114 6 8.4375 C6 12.55333147 5.29147823 14.60229091 3 18 C0.04881112 20.40467242 -3.29107729 20.41186021 -7.03125 20.328125 C-10.14316604 19.80947233 -11.85067869 18.21445226 -14 16 C-15.73765543 12.52468913 -15.59585352 8.7911999 -15 5 C-10.58053726 -0.73335706 -6.94670018 -1.6767897 0 0 Z " fill="#000000" transform="translate(292,412)"/>
</svg>
