<?xml version="1.0" encoding="UTF-8"?>
<svg version="1.1" xmlns="http://www.w3.org/2000/svg" width="512" height="512">
<path d="M0 0 C3.86264175 3.38991909 7.09293732 7.36933612 10.375 11.3125 C24.62475992 28.35836107 39.79992566 45.09966322 58 58 C58.61617188 58.44456543 59.23234375 58.88913086 59.8671875 59.34716797 C95.49956125 84.9713524 136.14643957 101.24942961 180.39404297 102.5715332 C185.24702777 102.75079504 189.43624264 103.27694875 194 105 C196.02085613 108.03128419 196.25252464 108.62081405 196.2746582 112.02026367 C196.28874474 113.24002899 196.28874474 113.24002899 196.30311584 114.48443604 C196.30234543 115.37000183 196.30157501 116.25556763 196.30078125 117.16796875 C196.3063353 118.0982489 196.31188934 119.02852905 196.31761169 119.98699951 C196.3295325 123.05398703 196.32303897 126.12051128 196.3125 129.1875 C196.31100952 130.23898224 196.30951904 131.29046448 196.3079834 132.37380981 C196.25470177 153.35225635 195.11600132 174.13304134 193 195 C192.92738953 195.71955872 192.85477905 196.43911743 192.77996826 197.18048096 C188.90747568 235.06931278 181.52455492 272.60329113 169.25 308.6875 C169.01761627 309.3777124 168.78523254 310.0679248 168.54580688 310.77905273 C167.88186466 312.73633125 167.20221221 314.687283 166.515625 316.63671875 C165.93216309 318.30287231 165.93216309 318.30287231 165.33691406 320.00268555 C163.92510926 323.16790241 162.34811776 325.45948471 160 328 C156.90645968 328.92588355 154.13859548 328.69554955 151 328 C148.375 326.0625 148.375 326.0625 147 323 C147.19673733 315.15509893 149.78636818 308.20370704 152.37689209 300.87701416 C172.7682163 242.90057153 177.91477669 181.06029937 179 120 C178.28094482 120.01812744 177.56188965 120.03625488 176.82104492 120.05493164 C122.93995961 120.81516626 67.49859046 93.56700028 29 57 C27.7347971 55.91009629 26.46421593 54.8263944 25.1875 53.75 C15.88445003 45.63375887 7.2187077 36.84004503 -0.1328125 26.9140625 C-0.74898437 26.28242187 -1.36515625 25.65078125 -2 25 C-3.32 25 -4.64 25 -6 25 C-7.8954803 26.93222629 -9.52254674 28.81993809 -11.1875 30.9375 C-21.54673111 43.54311408 -33.13552335 54.96972836 -46 65 C-46.78375 65.67417969 -47.5675 66.34835938 -48.375 67.04296875 C-85.67725761 99.0413116 -137.45251917 120.86531823 -187 120 C-185.81250907 186.81440655 -180.90365698 259.19580162 -153.265625 320.9609375 C-151.52228627 325.14710273 -151.48463015 327.50891986 -152 332 C-153.5 334.5 -153.5 334.5 -156 336 C-159.71301817 336.66195201 -162.72864773 336.78736097 -165.99511719 334.7644043 C-168.31812482 332.72003311 -169.01670757 331.22485348 -170.078125 328.3359375 C-170.43011963 327.39250488 -170.78211426 326.44907227 -171.14477539 325.47705078 C-171.50949951 324.45337402 -171.87422363 323.42969727 -172.25 322.375 C-172.63986084 321.3010498 -173.02972168 320.22709961 -173.43139648 319.12060547 C-174.64097313 315.75378305 -175.82450816 312.37886021 -177 309 C-177.35143066 308.00033203 -177.70286133 307.00066406 -178.06494141 305.97070312 C-197.11599193 251.20464911 -204.07489436 191.62630271 -204.29516602 133.85668945 C-204.30684967 131.72055525 -204.32754872 129.58445371 -204.35668945 127.44848633 C-204.39910104 124.32353393 -204.41547673 121.19942194 -204.42578125 118.07421875 C-204.44328934 117.12012619 -204.46079742 116.16603363 -204.47883606 115.18302917 C-204.45737477 108.68498729 -204.45737477 108.68498729 -202.28588867 105.43286133 C-198.16320551 102.84864393 -193.99403253 102.86453836 -189.23046875 102.640625 C-167.83689813 101.48019701 -147.1959221 98.35010187 -127 91 C-125.85700439 90.58476074 -125.85700439 90.58476074 -124.69091797 90.16113281 C-101.30378056 81.51998957 -80.57325625 69.38085866 -61 54 C-60.06800781 53.27425781 -59.13601562 52.54851563 -58.17578125 51.80078125 C-41.85127879 38.54912631 -26.34185224 23.02157225 -14 6 C-10.06737269 0.8567825 -6.77008315 -1.63457863 0 0 Z " fill="#454646" transform="translate(260,8)"/>
<path d="M0 0 C0.66 -0.0103125 1.32 -0.020625 2 -0.03125 C5.1442105 0.80393091 6.13911716 1.79767448 8 4.5 C8.63184895 7.91017044 8.6966674 11.28822921 8.75 14.75 C8.77964844 15.68585938 8.80929687 16.62171875 8.83984375 17.5859375 C8.91039804 19.89071092 8.96316252 22.19448168 9 24.5 C10.19882812 24.88478516 10.19882812 24.88478516 11.421875 25.27734375 C25.05789429 30.03074484 37.09132752 38.49544004 44 51.5 C48.07964281 50.19844994 48.07964281 50.19844994 52 48.5 C59.0521327 47.93127962 59.0521327 47.93127962 62.5 50 C64.62393143 53.53988572 64.78350902 56.47409726 64 60.5 C61.07349168 65.15580869 54.93571305 67.40189201 50 69.5 C49.34 69.5 48.68 69.5 48 69.5 C48.04640625 70.50675781 48.0928125 71.51351562 48.140625 72.55078125 C48.72938522 91.13590419 43.82975594 107.36805602 37 124.5 C37.71027344 124.90992188 38.42054688 125.31984375 39.15234375 125.7421875 C40.07144531 126.28101563 40.99054688 126.81984375 41.9375 127.375 C42.85402344 127.90867187 43.77054688 128.44234375 44.71484375 128.9921875 C47 130.5 47 130.5 48 132.5 C48.56872038 139.5521327 48.56872038 139.5521327 46.5 143 C43.02072478 145.08756513 39.90365136 145.1531109 36 144.5 C32.625 143 32.625 143 30 141.5 C29.34 141.5 28.68 141.5 28 141.5 C26.79193831 143.20763608 25.66043795 144.96956008 24.5625 146.75 C20.04077575 153.71345535 14.74722763 159.5354037 9 165.5 C8.40574219 166.15742188 7.81148438 166.81484375 7.19921875 167.4921875 C0.04612658 175.19551753 -9.46805021 181.20127755 -19 185.5 C-18.7834375 186.11746094 -18.566875 186.73492187 -18.34375 187.37109375 C-16.47233044 193.06332825 -14.93524977 198.49089241 -16 204.5 C-17.5 207.0625 -17.5 207.0625 -20 208.5 C-22.78176608 209.04153233 -25.25075665 209.23026776 -28 208.5 C-31.82354603 205.53890796 -33.13646923 202.23202993 -34.75 197.75 C-35.17796875 196.57953125 -35.6059375 195.4090625 -36.046875 194.203125 C-36.36140625 193.31109375 -36.6759375 192.4190625 -37 191.5 C-37.70938721 191.66081055 -38.41877441 191.82162109 -39.1496582 191.98730469 C-44.12997827 192.88312243 -49.13959189 192.72645291 -54.1875 192.75 C-55.27353516 192.770625 -56.35957031 192.79125 -57.47851562 192.8125 C-63.76188556 192.84269037 -68.97126727 192.2664984 -74.87231445 190.04980469 C-77.35650689 189.40787682 -78.62045011 189.58668147 -81 190.5 C-83.36219162 192.53672786 -83.36219162 192.53672786 -85.625 195 C-90.76939238 200.40075745 -90.76939238 200.40075745 -95.875 200.8125 C-98.82968653 200.75340627 -99.89058393 200.56564964 -102.5 199 C-104.18247868 196.19586886 -104.73872232 193.9414758 -104.59765625 190.66015625 C-103.60920799 187.08752953 -101.28429264 184.85628863 -98.7265625 182.26171875 C-96.80743322 180.4128925 -96.80743322 180.4128925 -95 177.5 C-95.39832031 176.943125 -95.79664063 176.38625 -96.20703125 175.8125 C-103.90345182 164.7266582 -104.40169793 156.59237708 -104 143.5 C-104.71671875 143.2421875 -105.4334375 142.984375 -106.171875 142.71875 C-109.16338801 141.4295897 -111.59227605 139.87791273 -114.25 138 C-115.12140625 137.3915625 -115.9928125 136.783125 -116.890625 136.15625 C-119 134.5 -119 134.5 -120 132.5 C-120.56872038 125.4478673 -120.56872038 125.4478673 -118.5 122 C-115.77447987 120.36468792 -113.63428726 119.70703457 -110.4375 119.828125 C-104.99177648 121.32918982 -100.47110737 125.16157316 -96 128.5 C-95.28457031 127.82195312 -94.56914062 127.14390625 -93.83203125 126.4453125 C-88.02945665 121.00527567 -82.1090591 115.92660896 -75.74658203 111.15332031 C-70.54717577 107.22656217 -65.75909927 102.94755553 -61 98.5 C-62.46582015 95.07719483 -64.38062255 92.93519517 -67.0625 90.375 C-70.64855216 86.93809648 -71.90053327 85.73338748 -72.3125 80.625 C-72.25340627 77.67031347 -72.06564964 76.60941607 -70.5 74 C-67.69826952 72.31896171 -65.4422773 71.76561269 -62.1640625 71.89453125 C-58.53842334 72.90892488 -56.27317025 75.3492474 -53.6640625 77.96875 C-52.13160895 79.72571046 -52.13160895 79.72571046 -50 79.5 C-49.79431396 78.78569824 -49.58862793 78.07139648 -49.37670898 77.33544922 C-37.76661448 37.37766903 -37.76661448 37.37766903 -23.2265625 28.87890625 C-18.13181669 26.41528259 -13.64069875 25.16852726 -8 24.5 C-8.0314209 23.62263184 -8.0314209 23.62263184 -8.06347656 22.72753906 C-8.14680115 20.06853535 -8.19870897 17.40980645 -8.25 14.75 C-8.28351563 13.82960937 -8.31703125 12.90921875 -8.3515625 11.9609375 C-8.45005258 5.16512196 -8.45005258 5.16512196 -6.234375 1.890625 C-3.90397303 0.44023496 -2.71714866 -0.04245545 0 0 Z M-20.0625 48.5625 C-25.25534533 56.43552356 -27.92560284 65.14907683 -30.3125 74.1875 C-34.88388961 90.46084412 -40.75938011 102.7586459 -53 114.5 C-54.20462891 115.66402344 -54.20462891 115.66402344 -55.43359375 116.8515625 C-60.13883391 121.22457717 -65.11734462 125.19118969 -70.1875 129.125 C-81.66243332 137.46136079 -81.66243332 137.46136079 -87.3125 149.8515625 C-87.59013926 155.59522473 -86.76363145 159.99214764 -83 164.5 C-76.51787514 171.54968418 -69.78491317 175.29069406 -60.18359375 175.87890625 C-38.77400163 176.61264753 -21.03656108 169.76918485 -5 155.5 C11.21963404 140.34334165 21.9881294 119.67818054 28 98.5 C28.3196875 97.38367188 28.639375 96.26734375 28.96875 95.1171875 C31.66025495 84.37608904 33.7635362 70.25687498 29 59.8125 C22.72109691 49.75576106 13.82303319 43.69593914 2.4375 40.5 C-6.52842047 40.5 -13.58100353 42.08100353 -20.0625 48.5625 Z " fill="#454646" transform="translate(320,183.5)"/>
<path d="M0 0 C14.35546434 11.70990834 26.06794902 27.89121936 28.30664062 46.72021484 C29.76601625 68.44058871 26.97909464 88.67535502 12.32739258 105.62890625 C-0.87957734 120.09489289 -17.32732525 130.10586173 -37.24804688 131.03271484 C-57.93878131 131.62467515 -76.50369154 127.612305 -92.13085938 113.34521484 C-106.8738166 99.20544466 -115.50400135 82.70692505 -116.09399414 62.08496094 C-116.33065412 41.68831843 -111.22582647 23.74080029 -96.89331055 8.796875 C-71.34187485 -16.78517169 -29.7766123 -22.50418132 0 0 Z M-75.69335938 12.72021484 C-74.36625679 15.66231319 -72.92545947 17.73635916 -70.64352417 20.01055908 C-70.01812744 20.63870514 -69.39273071 21.2668512 -68.74838257 21.91403198 C-68.06361847 22.59160553 -67.37885437 23.26917908 -66.67333984 23.96728516 C-65.95128357 24.68963348 -65.22922729 25.41198181 -64.48529053 26.15621948 C-62.09841949 28.54169764 -59.70454318 30.92001424 -57.31054688 33.29833984 C-55.65387159 34.95128487 -53.99763743 36.60467212 -52.34182739 38.25848389 C-47.9831002 42.60957573 -43.61840014 46.95462797 -39.25244141 51.29846191 C-34.79814433 55.73229856 -30.3495052 60.17180393 -25.90039062 64.61083984 C-17.17025083 73.31953144 -8.43379243 82.02185493 0.30664062 90.72021484 C4.17839694 87.01404258 6.24601833 84.23098446 8.05664062 79.15771484 C8.46398437 78.04267578 8.87132812 76.92763672 9.29101562 75.77880859 C13.46252602 63.21614459 12.82402882 47.72864797 7.30664062 35.72021484 C5.23056474 31.83528076 2.91328866 28.26815244 0.30664062 24.72021484 C-0.19351563 24.01251953 -0.69367188 23.30482422 -1.20898438 22.57568359 C-10.33304338 10.8941232 -24.83340223 4.71554211 -39.19335938 2.84521484 C-52.10645559 2.09662956 -64.79936049 5.85138834 -75.69335938 12.72021484 Z M-88.69335938 26.72021484 C-98.37760787 38.25191997 -99.82062017 51.91371431 -98.91650391 66.39941406 C-97.94485857 76.50495079 -93.61915945 84.65454251 -87.69335938 92.72021484 C-87.19320312 93.42791016 -86.69304687 94.13560547 -86.17773438 94.86474609 C-77.16846263 106.39934401 -62.90284521 112.51816962 -48.75585938 114.59521484 C-37.8164021 115.30327033 -26.36624186 112.86932835 -16.69335938 107.72021484 C-15.00066066 106.07999333 -13.33051285 104.41588111 -11.69335938 102.72021484 C-21.58222832 92.80801841 -31.47396768 82.89869451 -41.36905575 72.9927063 C-45.96310132 68.39343058 -50.55620736 63.79322453 -55.1472168 59.19091797 C-59.57352238 54.75378815 -64.00222956 50.31906881 -68.43264961 45.88604736 C-70.12689477 44.18994711 -71.82025612 42.49296357 -73.51273918 40.79510498 C-75.87395248 38.42668742 -78.23822087 36.06136215 -80.60327148 33.69677734 C-81.31033234 32.98612122 -82.01739319 32.27546509 -82.74588013 31.54327393 C-83.3867305 30.90379822 -84.02758087 30.26432251 -84.68785095 29.60546875 C-85.24737929 29.04501862 -85.80690763 28.48456848 -86.38339138 27.90713501 C-87.52225019 26.60830728 -87.52225019 26.60830728 -88.69335938 26.72021484 Z " fill="#464747" transform="translate(147.693359375,373.27978515625)"/>
<path d="M0 0 C3.55861799 3.49289909 7.0906667 7.0119809 10.61829853 10.53613567 C12.16033611 12.07173542 13.70251902 13.60718925 15.24483967 15.14250469 C18.46492171 18.35065974 21.68089263 21.56287234 24.89442158 24.77759075 C28.99624346 28.87961609 33.11167022 32.96769124 37.23075104 37.05237579 C40.41621854 40.21552641 43.59247368 43.38780672 46.76627254 46.56266117 C48.27919113 48.07323293 49.79532316 49.58059384 51.3148222 51.08454609 C63.87945174 63.53254346 73.39243849 74.60020785 74.63782978 92.96972942 C74.63782978 107.84228698 69.79973801 119.48696286 59.53626728 130.05566692 C49.73597993 139.30187442 38.0877946 143.73541128 24.63782978 143.89160442 C2.91502404 142.24474911 -8.69143233 129.88383865 -23.34263897 115.24707317 C-24.88467655 113.71147342 -26.42685945 112.17601959 -27.96918011 110.64070415 C-31.18926215 107.43254911 -34.40523307 104.22033651 -37.61876202 101.0056181 C-41.7205839 96.90359275 -45.83601066 92.81551761 -49.95509148 88.73083305 C-53.14055898 85.56768243 -56.31681412 82.39540213 -59.49061298 79.22054768 C-61.00353157 77.70997591 -62.5196636 76.20261501 -64.03916264 74.69866276 C-76.60379218 62.25066539 -86.11677893 51.183001 -87.36217022 32.81347942 C-87.36217022 17.94092187 -82.52407845 6.29624599 -72.26060772 -4.27245808 C-49.92172532 -25.34836479 -20.55655707 -19.94440777 0 0 Z M-62.73717022 10.20410442 C-68.30021157 17.37459682 -70.85955674 25.28800467 -70.17857647 34.32910442 C-68.09552391 48.07295639 -57.95881139 56.80479606 -48.48717022 66.01660442 C-47.21280214 67.27086797 -45.93935671 68.52606966 -44.66685772 69.78222942 C-41.57582221 72.82960407 -38.47259217 75.8640251 -35.36217022 78.89160442 C-29.72648361 74.20339509 -24.53113056 69.19175034 -19.36607647 63.99316692 C-18.53253139 63.1582069 -17.69898632 62.32324688 -16.8401823 61.46298504 C-14.19930498 58.81654595 -11.56194126 56.16663684 -8.92467022 53.51660442 C-7.12607373 51.71298799 -5.32724795 49.90960017 -3.52818584 48.10644817 C0.86314226 43.70414181 5.25159707 39.29898728 9.63782978 34.89160442 C4.77983029 29.14574117 -0.27779172 23.66007811 -5.55504131 18.29370403 C-6.5054587 17.32173781 -7.44956886 16.34356166 -8.38707256 15.35913372 C-16.18251899 7.17978956 -25.30528324 -0.67227454 -37.15513897 -1.20605183 C-47.18043735 -0.76245455 -55.82598892 2.73725026 -62.73717022 10.20410442 Z M19.84716511 48.56201458 C19.06773045 49.34366985 18.28829578 50.12532513 17.48524189 50.93066692 C16.60440434 51.81158001 15.72356678 52.6924931 14.81603718 53.60010052 C13.84902954 54.57221568 12.88207628 55.54438494 11.91517353 56.51660442 C10.93032948 57.50331254 9.94526515 58.48980084 8.95998859 59.47607708 C6.36192719 62.0779645 3.76688215 64.68284054 1.17243671 67.28833294 C-1.47336464 69.94434662 -4.12198392 72.59754683 -6.77037334 75.25097942 C-11.97041393 80.46175881 -17.16727376 85.67569605 -22.36217022 90.89160442 C-17.50417073 96.63746768 -12.44654872 102.12313074 -7.16929913 107.48950481 C-6.21888174 108.46147104 -5.27477158 109.43964719 -4.33726788 110.42407513 C3.45817855 118.60341928 12.5809428 126.45548339 24.43079853 126.98926067 C34.45609692 126.5456634 43.10164848 123.04595859 50.01282978 115.57910442 C55.57587113 108.40861203 58.1352163 100.49520418 57.45423603 91.45410442 C55.50716063 78.60742134 46.58592458 70.27402088 37.70448017 61.60156536 C35.80294492 59.74474596 33.91567269 57.87430444 32.03040791 56.00097942 C30.83132023 54.81529211 29.63147853 53.63036674 28.43079853 52.44629192 C27.8641901 51.88707043 27.29758167 51.32784893 26.71380329 50.75168133 C23.50597588 46.74769734 23.50597588 46.74769734 19.84716511 48.56201458 Z " fill="#464747" transform="translate(430.3621702194214,361.10839557647705)"/>
<path d="M0 0 C0.66 -0.0103125 1.32 -0.020625 2 -0.03125 C5.00101226 0.76589388 6.16507889 2.0155493 8 4.5 C8.390625 7.734375 8.390625 7.734375 8.25 11.25 C8.21390625 12.42046875 8.1778125 13.5909375 8.140625 14.796875 C8.09421875 15.68890625 8.0478125 16.5809375 8 17.5 C8.89589844 17.61730469 9.79179687 17.73460937 10.71484375 17.85546875 C13.8260184 18.46586568 15.84468409 19.24209832 18.5625 20.8125 C19.33335937 21.25335938 20.10421875 21.69421875 20.8984375 22.1484375 C23 23.5 23 23.5 25.6875 25.9375 C26.450625 26.453125 27.21375 26.96875 28 27.5 C30.99110568 26.85485956 33.28274698 25.85862651 36 24.5 C43.0521327 23.93127962 43.0521327 23.93127962 46.5 26 C48.61527243 29.52545405 48.80881059 32.48895972 48 36.5 C45.39740086 40.30379875 42.3588161 41.31123197 38 42.5 C38.32355469 43.47324219 38.64710938 44.44648438 38.98046875 45.44921875 C40.2044327 49.75527761 40.34553766 53.85666391 40.3125 58.3125 C40.30686035 59.10857666 40.3012207 59.90465332 40.29541016 60.72485352 C40.09038011 70.6708407 37.27521721 77.63799766 32.01171875 86.0546875 C30.73865467 88.41093136 30.73865467 88.41093136 31.60546875 90.5859375 C33.12765606 92.67521419 34.7938845 94.42641995 36.625 96.25 C39.14515757 99.07005106 40.52329191 100.9232376 40.6875 104.75 C40 108.5 40 108.5 38.5 111 C35.69391575 112.68365055 33.43985237 113.24077697 30.15625 113.09375 C26.62154453 112.12042531 24.4267579 109.85447008 21.859375 107.32421875 C20.01555655 105.51526241 18.09470401 104.0061478 16 102.5 C12.3253833 104.08902344 11.14263132 105.19191636 9.4375 108.875 C8.5904344 111.43031456 7.86037295 114.00329206 7.140625 116.59765625 C4.11948829 127.18401643 0.67192441 134.35758862 -8.75390625 140.40625 C-11.16892673 141.58225997 -13.35424702 142.090815 -16 142.5 C-15.95359375 143.46421875 -15.9071875 144.4284375 -15.859375 145.421875 C-15.82328125 146.68515625 -15.7871875 147.9484375 -15.75 149.25 C-15.70359375 150.50296875 -15.6571875 151.7559375 -15.609375 153.046875 C-16 156.5 -16 156.5 -17.765625 158.921875 C-20.11717219 160.58275798 -21.16434211 161.04430715 -24 161 C-24.99 161.01546875 -24.99 161.01546875 -26 161.03125 C-28.98174986 160.23922269 -30.16411059 158.95326814 -32 156.5 C-32.390625 153.484375 -32.390625 153.484375 -32.25 150.25 C-32.19585937 148.63351562 -32.19585937 148.63351562 -32.140625 146.984375 C-32.09421875 146.16453125 -32.0478125 145.3446875 -32 144.5 C-33.2375 144.603125 -34.475 144.70625 -35.75 144.8125 C-44.13261718 144.77289708 -51.62369348 141.25079826 -57.625 135.5 C-60.30297246 132.69773345 -61.71761494 130.15670197 -63 126.5 C-63.99 126.995 -63.99 126.995 -65 127.5 C-69.02985632 128.84328544 -71.74421055 128.90531328 -76 128.5 C-78.5 127 -78.5 127 -80 124.5 C-80.54771229 121.71579587 -80.56117312 119.28296057 -80 116.5 C-77.39740086 112.69620125 -74.3588161 111.68876803 -70 110.5 C-70.1429248 109.90533936 -70.28584961 109.31067871 -70.43310547 108.69799805 C-72.31344151 99.87355639 -72.22776158 91.28087155 -72.125 82.3125 C-72.11494397 80.77279232 -72.10582279 79.23307824 -72.09765625 77.69335938 C-72.07586468 73.96210413 -72.04148142 70.23109446 -72 66.5 C-73.134375 65.88125 -74.26875 65.2625 -75.4375 64.625 C-78.875 62.75 -78.875 62.75 -80 60.5 C-80.56872038 53.4478673 -80.56872038 53.4478673 -78.5 50 C-74.4108444 47.54650664 -70.2995952 47.96901708 -65.75 49.01953125 C-64.88375 49.25736328 -64.88375 49.25736328 -64 49.5 C-63.53851563 48.88253906 -63.07703125 48.26507813 -62.6015625 47.62890625 C-50.28030219 31.6307481 -34.13142508 20.54457687 -14.0546875 16.9765625 C-12.04369813 16.74331295 -10.02167303 16.60640384 -8 16.5 C-8.04640625 15.68015625 -8.0928125 14.8603125 -8.140625 14.015625 C-8.17671875 12.93796875 -8.2128125 11.8603125 -8.25 10.75 C-8.29640625 9.68265625 -8.3428125 8.6153125 -8.390625 7.515625 C-8 4.5 -8 4.5 -6.234375 2.140625 C-3.87710195 0.40976018 -2.87529794 -0.04492653 0 0 Z M-45.265625 53.07421875 C-52.84626079 62.91500706 -55.71891633 72.32928886 -55.5 84.6875 C-55.48936523 85.77667725 -55.47873047 86.86585449 -55.46777344 87.98803711 C-55.17018108 100.72141116 -53.27033551 114.63248968 -44.375 124.375 C-37.12023703 128.94281372 -29.9692171 129.02149124 -21.703125 127.3046875 C-17.43242768 126.03335275 -15.86851648 125.01393269 -13 121.5 C-11.32728684 117.92917261 -10.1495424 114.26740786 -9 110.5 C-5.50202327 99.31749173 -2.95500625 93.49461433 7.24609375 87.2734375 C15.52907715 81.93943117 19.91328948 74.76013156 23 65.5 C23.61210368 57.60285911 24.20049821 49.91763608 19 43.5 C13.84947033 38.1188496 9.31232041 33.93733438 1.6875 33.1640625 C-16.2499545 32.97404709 -33.21518385 39.38242441 -45.265625 53.07421875 Z " fill="#454646" transform="translate(208,127.5)"/>
<path d="M0 0 C2.05859375 0.484375 2.05859375 0.484375 4.62109375 2.609375 C6.38892446 6.14503641 6.89893392 7.58825237 6.05859375 11.484375 C1.56697365 18.4582062 -5.47815263 23.46027745 -11.94140625 28.484375 C-12.57401367 28.98130859 -13.20662109 29.47824219 -13.85839844 29.99023438 C-34.19953905 45.94826251 -55.66082362 59.22503868 -78.94140625 70.484375 C-79.58207031 70.88527344 -80.22273438 71.28617187 -80.8828125 71.69921875 C-85.69209055 73.53349747 -89.8722609 72.89172405 -94.51953125 71.12109375 C-95.75263341 70.48887971 -96.97631381 69.83804757 -98.19140625 69.171875 C-98.8661499 68.81722168 -99.54089355 68.46256836 -100.23608398 68.09716797 C-102.4804604 66.90949229 -104.71030394 65.69677766 -106.94140625 64.484375 C-108.59338726 63.60738928 -110.24574113 62.73110562 -111.8984375 61.85546875 C-127.89442376 53.30154753 -146.00311975 43.4226615 -158.94140625 30.484375 C-159.46613589 26.24352725 -159.6289985 22.65901175 -157.44140625 18.921875 C-153.97626281 16.92941752 -150.80631374 16.85986523 -146.94140625 17.484375 C-144.37210247 18.98633854 -142.3816431 20.36198263 -140.12890625 22.234375 C-138.81526001 23.25654401 -137.49735095 24.27325237 -136.17578125 25.28515625 C-135.48677734 25.81447754 -134.79777344 26.34379883 -134.08789062 26.88916016 C-123.75079008 34.5714412 -112.37663657 40.94289562 -101.12890625 47.171875 C-100.20392334 47.68935303 -99.27894043 48.20683105 -98.32592773 48.73999023 C-91.98388959 52.39215531 -91.98388959 52.39215531 -84.94140625 53.484375 C-81.53289296 52.23530713 -78.42404899 50.55538176 -75.25390625 48.796875 C-74.32980957 48.29647705 -73.40571289 47.7960791 -72.45361328 47.28051758 C-50.57808999 35.27456408 -29.83597382 20.97015888 -11.41894531 4.08886719 C-7.45463422 0.56085598 -5.16807564 -0.3137449 0 0 Z " fill="#454646" transform="translate(342.94140625,431.515625)"/>
<path d="M0 0 C3.02796305 0.94380677 6.00610063 1.97843179 8.98803711 3.05859375 C10.0109082 3.40664063 11.0337793 3.7546875 12.08764648 4.11328125 C17.0954793 5.88422409 20.63638387 7.19730849 24.17553711 11.30859375 C25.19669516 15.15295347 24.7029647 18.39132837 22.73803711 21.80859375 C18.21104959 24.45853766 13.28686897 23.82543115 8.35107422 22.6171875 C5.32311117 21.67338073 2.34497359 20.63875571 -0.63696289 19.55859375 C-1.65983398 19.21054687 -2.68270508 18.8625 -3.73657227 18.50390625 C-8.74440508 16.73296341 -12.28530965 15.41987901 -15.82446289 11.30859375 C-16.84562094 7.46423403 -16.35189048 4.22585913 -14.38696289 0.80859375 C-9.85997537 -1.84135016 -4.93579475 -1.20824365 0 0 Z " fill="#464747" transform="translate(471.824462890625,312.69140625)"/>
<path d="M0 0 C1.96492759 3.41726538 2.45865805 6.65564028 1.4375 10.5 C-2.7758417 15.3944616 -7.79069478 16.72225909 -13.75 18.75 C-14.75353516 19.11351562 -15.75707031 19.47703125 -16.79101562 19.8515625 C-22.97089383 21.99059646 -28.02236758 23.04718239 -34.5625 22.5 C-37.125 21 -37.125 21 -38.5625 18.5 C-39.10403233 15.71823392 -39.29276776 13.24924335 -38.5625 10.5 C-34.3491583 5.6055384 -29.33430522 4.27774091 -23.375 2.25 C-22.37146484 1.88648438 -21.36792969 1.52296875 -20.33398438 1.1484375 C-6.32289236 -3.70120528 -6.32289236 -3.70120528 0 0 Z " fill="#464747" transform="translate(54.5625,313.5)"/>
<path d="M0 0 C2.5 1.5 2.5 1.5 4 4 C4.74101214 8.04188439 5.00003078 10.39139785 2.8125 13.91015625 C0.97449673 16.06185719 -0.97446161 18.02301904 -3 20 C-3.94990272 20.96941206 -4.8976989 21.94089127 -5.84375 22.9140625 C-14.63459505 31.8898867 -14.63459505 31.8898867 -19.875 32.3125 C-22.82968653 32.25340627 -23.89058393 32.06564964 -26.5 30.5 C-28.19231675 27.67947208 -28.75699258 25.42920215 -28.5625 22.12890625 C-27.41194619 17.77437967 -24.14020753 15.06492859 -21 12 C-20.05009728 11.03058794 -19.1023011 10.05910873 -18.15625 9.0859375 C-8.1668505 -1.11366143 -8.1668505 -1.11366143 0 0 Z " fill="#454646" transform="translate(484,64)"/>
<path d="M0 0 C4.35452658 1.15055381 7.06397766 4.42229247 10.12890625 7.5625 C11.09831831 8.51240272 12.06979752 9.4601989 13.04296875 10.40625 C22.01879295 19.19709505 22.01879295 19.19709505 22.44140625 24.4375 C22.38231252 27.39218653 22.19455589 28.45308393 20.62890625 31.0625 C17.80837833 32.75481675 15.5581084 33.31949258 12.2578125 33.125 C7.90328592 31.97444619 5.19383484 28.70270753 2.12890625 25.5625 C1.15949419 24.61259728 0.18801498 23.6648011 -0.78515625 22.71875 C-9.76098045 13.92790495 -9.76098045 13.92790495 -10.18359375 8.6875 C-10.12450002 5.73281347 -9.93674339 4.67191607 -8.37109375 2.0625 C-5.55056583 0.37018325 -3.3002959 -0.19449258 0 0 Z " fill="#454646" transform="translate(33.87109375,63.4375)"/>
<path d="M0 0 C2.5 1.5 2.5 1.5 4 4 C4.81375438 11.22007559 2.61495024 15.71231328 -0.875 21.9375 C-1.33519531 22.79923828 -1.79539062 23.66097656 -2.26953125 24.54882812 C-5.69409497 30.84704748 -5.69409497 30.84704748 -8 32 C-15.0521327 32.56872038 -15.0521327 32.56872038 -18.5 30.5 C-20.59765552 27.00390746 -20.60447341 23.93073326 -20 20 C-18.68274812 16.50780009 -16.94787637 13.31404945 -15.125 10.0625 C-14.66480469 9.20076172 -14.20460938 8.33902344 -13.73046875 7.45117188 C-10.15015272 0.8665037 -7.94043847 -1.08278706 0 0 Z " fill="#464747" transform="translate(372,24)"/>
<path d="M0 0 C3.47991251 0.92435176 5.19600878 3.24781447 7.06445312 6.23046875 C8.18599368 8.22115234 9.22517977 10.23920081 10.25 12.28125 C10.61351562 12.95929687 10.97703125 13.63734375 11.3515625 14.3359375 C13.869233 19.31448894 14.50242141 22.95676486 14 28.53125 C12.5 31.03125 12.5 31.03125 10 32.53125 C7.22011721 33.07811219 4.74791413 33.26116469 2 32.53125 C-2.00740395 29.40736818 -4.01653636 25.23163311 -6.25 20.78125 C-6.79527344 19.76417969 -6.79527344 19.76417969 -7.3515625 18.7265625 C-9.869233 13.74801106 -10.50242141 10.10573514 -10 4.53125 C-7.44699652 0.2762442 -4.60968987 0.0720264 0 0 Z " fill="#464747" transform="translate(146,23.46875)"/>
<path d="M0 0 C3.12578143 1.6720747 5.39281175 3.7856235 7 7 C7.51512617 11.09157355 7.94367269 15.23589546 5.953125 18.95703125 C3.55501226 21.85592636 1.60351712 23.79811835 -2.171875 24.2734375 C-9.98876369 24.58137554 -9.98876369 24.58137554 -13.5625 21.625 C-17.3057723 17.59378368 -17.39037018 14.90519941 -17.359375 9.55078125 C-16.78039966 5.44131496 -15.00085071 3.78650423 -12 1 C-8.27533151 -0.86233425 -4.05504687 -0.57130829 0 0 Z " fill="#464747" transform="translate(313,288)"/>
<path d="M0 0 C3.12578143 1.6720747 5.39281175 3.7856235 7 7 C7.51512617 11.09157355 7.94367269 15.23589546 5.953125 18.95703125 C3.55501226 21.85592636 1.60351712 23.79811835 -2.171875 24.2734375 C-9.98876369 24.58137554 -9.98876369 24.58137554 -13.5625 21.625 C-17.3057723 17.59378368 -17.39037018 14.90519941 -17.359375 9.55078125 C-16.78039966 5.44131496 -15.00085071 3.78650423 -12 1 C-8.27533151 -0.86233425 -4.05504687 -0.57130829 0 0 Z " fill="#464747" transform="translate(185,208)"/>
<path d="M0 0 C1.051875 -0.00515625 2.10375 -0.0103125 3.1875 -0.015625 C4.280625 -0.00015625 5.37375 0.0153125 6.5 0.03125 C8.1396875 0.00804687 8.1396875 0.00804687 9.8125 -0.015625 C10.864375 -0.01046875 11.91625 -0.0053125 13 0 C14.43859375 0.00676758 14.43859375 0.00676758 15.90625 0.01367188 C19.21298564 0.673525 20.40908706 1.94238555 22.5 4.53125 C23.03125 6.53125 23.03125 6.53125 23 8.53125 C23.0103125 9.19125 23.020625 9.85125 23.03125 10.53125 C22.2561666 13.44921104 20.80895833 14.6243588 18.5 16.53125 C15.90625 17.04882812 15.90625 17.04882812 13 17.0625 C11.948125 17.06765625 10.89625 17.0728125 9.8125 17.078125 C8.719375 17.06265625 7.62625 17.0471875 6.5 17.03125 C4.8603125 17.05445313 4.8603125 17.05445313 3.1875 17.078125 C2.135625 17.07296875 1.08375 17.0678125 0 17.0625 C-0.9590625 17.05798828 -1.918125 17.05347656 -2.90625 17.04882812 C-6.21298564 16.388975 -7.40908706 15.12011445 -9.5 12.53125 C-10.03125 10.53125 -10.03125 10.53125 -10 8.53125 C-10.01546875 7.54125 -10.01546875 7.54125 -10.03125 6.53125 C-8.65240655 1.34030994 -4.94094259 0.02324368 0 0 Z " fill="#464747" transform="translate(481.5,215.46875)"/>
<path d="M0 0 C1.051875 -0.00515625 2.10375 -0.0103125 3.1875 -0.015625 C4.280625 -0.00015625 5.37375 0.0153125 6.5 0.03125 C8.1396875 0.00804687 8.1396875 0.00804687 9.8125 -0.015625 C10.864375 -0.01046875 11.91625 -0.0053125 13 0 C14.43859375 0.00676758 14.43859375 0.00676758 15.90625 0.01367188 C19.21298564 0.673525 20.40908706 1.94238555 22.5 4.53125 C23.03125 6.53125 23.03125 6.53125 23 8.53125 C23.0103125 9.19125 23.020625 9.85125 23.03125 10.53125 C22.2561666 13.44921104 20.80895833 14.6243588 18.5 16.53125 C15.90625 17.04882812 15.90625 17.04882812 13 17.0625 C11.948125 17.06765625 10.89625 17.0728125 9.8125 17.078125 C8.719375 17.06265625 7.62625 17.0471875 6.5 17.03125 C4.8603125 17.05445313 4.8603125 17.05445313 3.1875 17.078125 C2.135625 17.07296875 1.08375 17.0678125 0 17.0625 C-0.9590625 17.05798828 -1.918125 17.05347656 -2.90625 17.04882812 C-6.21298564 16.388975 -7.40908706 15.12011445 -9.5 12.53125 C-10.03125 10.53125 -10.03125 10.53125 -10 8.53125 C-10.01546875 7.54125 -10.01546875 7.54125 -10.03125 6.53125 C-8.65240655 1.34030994 -4.94094259 0.02324368 0 0 Z " fill="#464747" transform="translate(17.5,215.46875)"/>
<path d="M0 0 C2.5 1.5 2.5 1.5 4 4 C4.791013 8.02098277 4.62153384 10.96411027 2.5 14.5 C-1.03588973 16.62153384 -3.97901723 16.791013 -8 16 C-10.5 14.5 -10.5 14.5 -12 12 C-12.791013 7.97901723 -12.62153384 5.03588973 -10.5 1.5 C-6.96411027 -0.62153384 -4.02098277 -0.791013 0 0 Z " fill="#464747" transform="translate(268,328)"/>
<path d="M0 0 C2.5 1.5 2.5 1.5 4 4 C4.791013 8.02098277 4.62153384 10.96411027 2.5 14.5 C-1.03588973 16.62153384 -3.97901723 16.791013 -8 16 C-10.5 14.5 -10.5 14.5 -12 12 C-12.791013 7.97901723 -12.62153384 5.03588973 -10.5 1.5 C-6.96411027 -0.62153384 -4.02098277 -0.791013 0 0 Z " fill="#464747" transform="translate(324,248)"/>
<path d="M0 0 C2.5 1.5 2.5 1.5 4 4 C4.791013 8.02098277 4.62153384 10.96411027 2.5 14.5 C-1.03588973 16.62153384 -3.97901723 16.791013 -8 16 C-10.5 14.5 -10.5 14.5 -12 12 C-12.791013 7.97901723 -12.62153384 5.03588973 -10.5 1.5 C-6.96411027 -0.62153384 -4.02098277 -0.791013 0 0 Z " fill="#464747" transform="translate(212,176)"/>
</svg>
